<?xml version="1.0" encoding="UTF-8"?>
<svg width="177px" height="177px" viewBox="0 0 177 177" version="1.1" xmlns="http://www.w3.org/2000/svg" xmlns:xlink="http://www.w3.org/1999/xlink">
    <!-- Generator: Sketch 42 (36781) - http://www.bohemiancoding.com/sketch -->
    <title>Funding</title>
    <desc>Created with Sketch.</desc>
    <defs></defs>
    <g id="Symbols" stroke="none" stroke-width="1" fill="none" fill-rule="evenodd">
        <g id="CATALYSTFORMULA" transform="translate(-424.000000, 1.000000)">
            <g id="Funding" transform="translate(425.000000, 0.000000)">
                <circle id="Oval" stroke="#323232" stroke-width="2" fill="#FFFFFF" cx="87.5" cy="87.5" r="87.5"></circle>
                <g id="hand" transform="translate(47.000000, 84.000000)">
                    <path d="M38.634966,10.2578466 C38.634966,10.2578466 38.7099995,6.43034268 30.9785446,2.71642133 C23.2470898,-0.99750002 17.8746891,-0.332012881 10.7435024,4.96291686 C3.61231581,10.2578466 -3.42883058,22.4782639 4.56974365,33.5407489 C12.5683179,44.6032338 12.5330521,42.4947144 12.5330521,42.4947144 L19.4646496,35.648506 C19.4646496,35.648506 23.9599083,30.7293897 27.4692265,34.0347187 C30.9785446,37.3400477 29.0261722,39.3517551 29.0261722,39.3517551 C29.0261722,39.3517551 33.6219759,35.7636131 36.5737949,38.5764969 C39.525614,41.3893807 37.1905705,45.4097463 37.1905705,45.4097463 C37.1905705,45.4097463 38.9726168,43.0412829 42.3311176,46.9678857 C45.6896184,50.8944885 42.8901174,54.1617026 42.8901174,54.1617026 C42.8901174,54.1617026 45.3054467,52.7308671 47.8198203,54.9194279 C50.3341939,57.1079887 48.7494857,62.2153929 48.7494857,62.2153929 C48.7494857,62.2153929 52.185271,63.5234982 53.4728464,61.4729135 C54.7604218,59.4223289 55.0710606,56.2191479 55.0710606,56.2191479 C55.0710606,56.2191479 60.7931175,59.4566323 62.3072941,57.1880301 C63.8214708,54.9194279 62.906812,49.8104992 62.906812,49.8104992 C62.906812,49.8104992 68.364751,49.4621285 68.364751,46.5867362 C68.364751,43.7113438 66.9721287,39.3052549 66.9721287,39.3052549 L49.0578735,20.5069584 L47.3125936,19.9924065 C47.3125936,19.9924065 37.6857918,27.7404148 33.9138563,27.7404148 C30.1419208,27.7404148 27.4317097,23.4463838 27.4317097,23.4463838 L40.317968,10.924096 L38.634966,10.2578466 Z" id="hand-blue" stroke="#000000" fill="#D8F1FF"></path>
                    <path d="M67.0910036,47.614849 C66.3406354,48.3053894 65.385096,48.6535692 64.3139671,48.6108953 C63.2370588,48.5614325 62.2439528,48.0881407 61.5167026,47.288976 L52.4352252,37.1393898 L51.0500783,38.3963285 L60.1334822,48.5468846 C60.1903137,48.6108953 60.2596674,48.6574486 60.3193886,48.7166101 L60.2904912,48.7457059 L62.2506956,50.7048234 C63.7389097,52.3487363 63.6570338,54.8732822 62.0696054,56.3319518 C60.4812138,57.7945009 57.9777391,57.6470821 56.4827823,56.0002596 L54.514872,53.854929 C54.4936806,53.8297127 54.4782686,53.7977073 54.4551507,53.7724909 L54.448408,53.7802498 L44.0366888,42.4387055 L42.6669539,43.7150414 L53.1287619,55.1118678 C54.5466591,56.7519012 54.448408,59.2211651 52.8918035,60.6604376 C52.1173542,61.3664957 51.1097996,61.6962482 50.0993552,61.6438757 C50.5588232,60.7341469 50.8025243,59.728402 50.7553253,58.6858023 C50.6830819,57.1379056 50.0261485,55.7190002 48.9058941,54.6938581 C47.6816093,53.5717299 45.9853342,53.1440216 44.3526333,53.3370237 C45.5663224,51.0209978 45.1742816,48.1133571 43.1948123,46.3016584 C41.9560788,45.1620727 40.2289798,44.7401836 38.5721978,44.9564624 C38.9902463,44.0913472 39.2175722,43.1437938 39.1809688,42.1603556 C39.1241374,40.5901521 38.467204,39.1479701 37.3276847,38.1034307 C35.3819291,36.319858 32.2301902,36.2490582 30.0609616,37.7455524 C29.9723431,36.2286911 29.3250422,34.8379117 28.2230895,33.8273174 C25.9671688,31.7615154 22.0997386,31.9758545 20.0056432,34.2899407 L14.1529643,40.7957625 C13.7031287,41.2942706 13.3765885,41.8577593 13.1242182,42.4406452 L8.19336515,37.8027741 C4.11402099,33.8748406 1.86773278,28.5842536 1.86773278,22.9086321 C1.86773278,11.5486605 11.0455347,2.30783321 22.3261013,2.30783321 C27.4756111,2.30783321 32.3910522,4.23591514 36.1631211,7.73323076 L39.4699425,10.8503612 L28.3348259,21.1017827 C27.1365487,22.2316698 26.592315,23.2209271 26.6279551,24.2111543 C26.6741909,25.4874902 27.6836721,26.4137066 28.6266893,27.180866 C31.6532062,29.6520696 36.7680392,30.1913118 41.3579034,25.8540974 L47.5217105,20.2589743 L67.2759467,41.9877205 C67.995491,42.7830059 68.3711567,43.8110576 68.3335901,44.8798434 C68.2969868,45.9428101 67.8558204,46.91461 67.0910036,47.614849 Z M81.8768201,22.819405 C81.8768201,10.4245926 71.8609947,0.339987015 59.5497555,0.339987015 C54.1237943,0.339987015 48.8933719,2.32141125 44.8053586,5.93414022 L40.8502731,9.57693486 L37.4317152,6.35602938 C33.3080618,2.53381062 27.9418218,0.429214147 22.3241748,0.429214147 C10.0138989,0.429214147 0,10.5128499 0,22.9086321 C0,29.1021589 2.45049623,34.8737965 6.90935907,39.1683372 L12.6377793,44.55688 C12.5645727,46.2192203 13.162748,47.88544 14.462166,49.0735186 C15.5092138,50.03465 16.8779854,50.5651635 18.3122578,50.5651635 C18.423031,50.5651635 18.5309145,50.5380074 18.6416877,50.5302485 C18.2063008,51.4205801 17.9731954,52.3981991 18.0194312,53.4165523 C18.0897481,54.9654189 18.748608,56.3833544 19.8707888,57.4104363 C20.9168733,58.3715677 22.2808288,58.9001414 23.7151011,58.9001414 C24.9808055,58.9001414 26.2079801,58.4782523 27.2174613,57.7275805 C27.235763,59.2832362 27.8454973,60.8175549 29.0611129,61.9348338 C30.1071974,62.8920857 31.4721161,63.4206595 32.9034987,63.4206595 C34.415794,63.4206595 35.8587355,62.8038284 36.9577985,61.7583192 C36.9577985,61.787415 36.952019,61.815541 36.952019,61.842697 C37.0088505,63.4148403 37.6667471,64.8550826 38.8033767,65.8976822 C39.8494611,66.8588136 41.2163063,67.3873874 42.6496154,67.3873874 C44.308324,67.3873874 45.9005686,66.6774498 47.0227494,65.435059 L48.889519,63.3401611 C49.3586195,63.4604237 49.8344627,63.5438317 50.3112691,63.5438317 C51.704122,63.5438317 53.0728936,63.0298058 54.1478755,62.0521868 C55.3047332,60.9824311 55.9192837,59.5344299 55.9857476,58.0544234 C57.0212364,58.819643 58.2455213,59.2172857 59.4736591,59.2172857 C60.8568795,59.2172857 62.2352836,58.7236269 63.3276039,57.7217614 C65.3484927,55.8615696 65.7174157,52.8530635 64.3717619,50.4943637 C64.4151079,50.4943637 64.4594172,50.4982432 64.5027632,50.4982432 C65.9379988,50.4982432 67.2942483,49.9735488 68.3470755,49.0046586 C69.4865948,47.9630288 70.1416017,46.5198769 70.1984331,44.9477337 C70.2138451,44.5268144 70.1772417,44.1155937 70.1069248,43.7101921 L74.802746,39.2410767 C79.3637129,34.8282131 81.8768201,28.997414 81.8768201,22.819405 Z M15.7192013,47.6837091 C14.1308096,46.2289189 14.0470073,43.7063127 15.5361846,42.0565806 L21.3879003,35.5517288 C22.1536804,34.704071 23.2431109,34.2172012 24.3768507,34.2172012 C25.3458755,34.2172012 26.2648116,34.5712002 26.9660543,35.2132476 C27.7202754,35.9066976 28.1614418,36.8629796 28.209604,37.9104286 C28.2471706,38.7357795 28.0352566,39.5359141 27.6095022,40.2274244 L20.6750987,47.8961084 C19.1984436,48.9367683 17.0417372,48.8960342 15.7192013,47.6837091 Z M21.127824,56.0215966 C20.3736029,55.3300863 19.9333998,54.3738042 19.883311,53.3263553 C19.8341855,52.2430215 20.2079247,51.2004219 20.9390279,50.395438 L21.9851124,49.2403346 C22.226887,49.043453 22.4715513,48.8475412 22.6834653,48.6128351 L28.531328,42.1079832 C28.7027857,41.9188605 28.8395665,41.7054913 28.9840533,41.4998809 L30.4953853,39.8268722 C31.2592389,38.9830939 32.3486694,38.4962241 33.4824092,38.4962241 C34.4523973,38.4962241 35.3722966,38.850223 36.0735393,39.4922704 C36.8364296,40.1934793 37.2795225,41.166249 37.3180523,42.2292157 C37.3575453,43.2980016 36.9818797,44.3241136 36.2623354,45.1174592 L26.7069412,55.6850551 C25.2823013,57.2581682 22.6516782,57.4181952 21.127824,56.0215966 Z M30.3191114,60.5430845 C28.7297565,59.0863546 28.6440277,56.5579292 30.1293521,54.9140163 L36.3596231,48.02413 C37.1282929,47.1745325 38.21965,46.6905723 39.3524265,46.6905723 C40.3204881,46.6905723 41.238461,47.0426315 41.9387403,47.6885584 C43.530985,49.1452883 43.6167138,51.670804 42.1294629,53.3156868 L35.9001551,60.2046033 C34.470699,61.7748068 31.8420023,61.9367735 30.3191114,60.5430845 Z M45.6385658,64.1752106 C44.2187421,65.7434745 41.584266,65.906411 40.0613751,64.5088425 C39.2975215,63.8086035 38.8553919,62.8358338 38.8168621,61.773837 C38.7764058,60.7040813 39.1520715,59.6769994 39.8754688,58.8778346 L42.066852,56.4192392 C42.8345585,55.5715815 43.9239891,55.0837418 45.0567656,55.0837418 C46.0267537,55.0837418 46.946653,55.4396805 47.6478957,56.0836676 C48.4001903,56.7712984 48.8403935,57.7266107 48.8904822,58.7740596 C48.9415342,59.8603029 48.5658685,60.899993 47.8309123,61.7127358 L45.6385658,64.1752106 Z M69.4114617,41.7859896 C69.1966579,41.4087141 68.9500671,41.0498658 68.6543508,40.7210832 L50.7061997,20.9757009 C55.1477242,22.0173307 62.9143716,22.2908312 69.0165311,14.2594195 L67.5331332,13.1178942 C59.4630634,23.7436817 48.4628013,18.3435005 47.9975538,18.1068547 L47.4244228,17.8188062 L40.0931622,24.470107 C36.7699657,27.6182729 32.7281881,28.109992 29.7999221,25.7212265 C29.1622537,25.2004116 28.5091733,24.6078271 28.4918349,24.1413244 C28.4822025,23.8687937 28.6690721,23.3576774 29.6024568,22.4789841 L46.0527613,7.33461824 C49.7843739,4.0351541 54.5784461,2.21860608 59.5507188,2.21860608 C70.8332118,2.21860608 80.0110138,11.4594334 80.0110138,22.819405 C80.0110138,28.4804786 77.7030778,33.8311969 73.5158502,37.8774533 L69.4114617,41.7859896 Z" id="handshake" fill="#000000" fill-rule="nonzero"></path>
                </g>
                <text id="FUNDING" font-family="Futura-Bold, Futura" font-size="20" font-weight="bold" fill="#323232">
                    <tspan x="35.44" y="73">FUNDING</tspan>
                </text>
            </g>
        </g>
    </g>
</svg>