<?xml version="1.0" encoding="UTF-8"?>
<svg width="177px" height="177px" viewBox="0 0 177 177" version="1.1" xmlns="http://www.w3.org/2000/svg" xmlns:xlink="http://www.w3.org/1999/xlink">
    <!-- Generator: Sketch 42 (36781) - http://www.bohemiancoding.com/sketch -->
    <title>Business Plan</title>
    <desc>Created with Sketch.</desc>
    <defs></defs>
    <g id="Symbols" stroke="none" stroke-width="1" fill="none" fill-rule="evenodd">
        <g id="CATALYSTFORMULA" transform="translate(-212.000000, 1.000000)">
            <g id="Business-Plan" transform="translate(213.000000, 0.000000)">
                <circle id="Oval" stroke="#323232" stroke-width="2" fill="#FFFFFF" cx="87.5" cy="87.5" r="87.5"></circle>
                <text id="BUSINESS-PLAN" font-family="Futura-Bold, Futura" font-size="20" font-weight="bold" fill="#323232">
                    <tspan x="35.2" y="50">BUSINESS</tspan>
                    <tspan x="58.77" y="76">PLAN</tspan>
                </text>
                <g id="connections" transform="translate(45.000000, 85.000000)">
                    <ellipse id="Oval-3" fill="#D8F1FF" cx="41.5" cy="15.5" rx="4.5" ry="4.5"></ellipse>
                    <path d="M48.1017386,1.999143 C46.0740168,1.18422569 43.9270927,0.770793814 41.7207809,0.770793814 C33.1031769,0.770793814 25.8066255,7.20138738 24.7491853,15.7285797 C24.6624538,16.4257393 24.6184472,17.1399653 24.6184472,17.850778 C24.6184472,27.2675528 32.2905501,34.9282022 41.7207809,34.9282022 C45.1297974,34.9282022 48.3063907,33.9238486 50.9762671,32.1997225 C51.0719708,32.1655899 51.1574205,32.1122576 51.225353,32.0401523 C55.8041762,28.9724793 58.8235419,23.7574352 58.8235419,17.8499247 C58.8235419,10.8373692 54.6155706,4.6149849 48.1017386,1.999143 Z M41.7207809,33.6482274 C38.6287829,33.6482274 35.7435732,32.7539516 33.3035565,31.2171285 C33.3133832,31.172756 33.319792,31.1262503 33.319792,31.0784646 C33.319792,30.6219402 33.3633713,29.7135847 33.4313038,29.3304456 C34.2127415,25.0092506 38.9607551,24.3645699 41.7212082,24.3645699 C44.0556945,24.3645699 49.5445571,24.8961861 50.0807541,29.8155561 C50.0901535,29.9175274 50.1042527,30.4802897 50.114934,31.2316349 C47.6804715,32.7603515 44.8033795,33.6482274 41.7207809,33.6482274 Z M51.3808715,30.3484523 C51.3731811,30.0250453 51.3650633,29.7677703 51.3548094,29.6785988 C50.9044894,25.5493999 47.3027838,23.0845951 41.7212082,23.0845951 C36.263962,23.0845951 32.8720354,25.222153 32.1696388,29.1047434 C32.1140964,29.4183372 32.0782076,29.9102742 32.0581269,30.346319 C28.3162837,27.4544292 25.900193,22.9301448 25.900193,17.8503513 C25.900193,17.1924443 25.9407816,16.5311239 26.0215316,15.8860166 C26.9995036,7.9988117 33.7487495,2.05076865 41.7212082,2.05076865 C43.7621747,2.05076865 45.7480261,2.43305446 47.6232202,3.18653298 C53.648707,5.60696539 57.5417962,11.3625856 57.5417962,17.8503513 C57.5417962,22.9314248 55.1252782,27.4569891 51.3808715,30.3484523 Z M41.7212082,9.09105689 C38.5753768,9.09105689 36.3780374,11.4338375 36.3780374,14.7882249 C36.3780374,18.3277819 38.7749019,21.2072987 41.7212082,21.2072987 C44.6675145,21.2072987 47.064379,18.3277819 47.064379,14.7882249 C47.064379,11.4338375 44.8670396,9.09105689 41.7212082,9.09105689 Z M41.7212082,19.9268972 C39.4815711,19.9268972 37.6597831,17.6216625 37.6597831,14.7877982 C37.6597831,12.1459302 39.2918727,10.3706051 41.7212082,10.3706051 C44.1505437,10.3706051 45.7826333,12.1455035 45.7826333,14.7877982 C45.7826333,17.6216625 43.960418,19.9268972 41.7212082,19.9268972 Z" id="Shape" fill="#000000" fill-rule="nonzero"></path>
                    <ellipse id="Oval-3" fill="#D8F1FF" cx="67.976962" cy="56.5" rx="4.5" ry="4.5"></ellipse>
                    <path d="M74.357706,43.3005141 C72.3299842,42.4855968 70.1830601,42.0721649 67.9767484,42.0721649 C59.3591444,42.0721649 52.062593,48.5027585 51.0051527,57.0299508 C50.9184212,57.7271105 50.8744146,58.4413364 50.8744146,59.1521491 C50.8744146,68.568924 58.5465175,76.2295733 67.9767484,76.2295733 C71.3857649,76.2295733 74.5623581,75.2252198 77.2322345,73.5010937 C77.3279382,73.466961 77.4133879,73.4136287 77.4813205,73.3415235 C82.0601436,70.2738504 85.0795094,65.0588063 85.0795094,59.1512958 C85.0795094,52.1387404 80.871538,45.916356 74.357706,43.3005141 Z M67.9767484,74.9495985 C64.8847503,74.9495985 61.9995406,74.0553228 59.5595239,72.5184996 C59.5693507,72.4741272 59.5757594,72.4276214 59.5757594,72.3798357 C59.5757594,71.9233113 59.6193387,71.0149559 59.6872713,70.6318167 C60.4687089,66.3106217 65.2167225,65.665941 67.9771756,65.665941 C70.3116619,65.665941 75.8005245,66.1975573 76.3367215,71.1169272 C76.346121,71.2188985 76.3602202,71.7816608 76.3709014,72.533006 C73.9364389,74.0617226 71.0593469,74.9495985 67.9767484,74.9495985 Z M77.636839,71.6498234 C77.6291485,71.3264164 77.6210308,71.0691415 77.6107768,70.9799699 C77.1604568,66.8507711 73.5587512,64.3859662 67.9771756,64.3859662 C62.5199294,64.3859662 59.1280029,66.5235242 58.4256062,70.4061145 C58.3700639,70.7197083 58.334175,71.2116453 58.3140943,71.6476901 C54.5722512,68.7558003 52.1561604,64.2315159 52.1561604,59.1517225 C52.1561604,58.4938154 52.196749,57.8324951 52.277499,57.1873878 C53.255471,49.3001828 60.004717,43.3521398 67.9771756,43.3521398 C70.0181421,43.3521398 72.0039936,43.7344256 73.8791876,44.4879041 C79.9046745,46.9083365 83.7977636,52.6639567 83.7977636,59.1517225 C83.7977636,64.2327959 81.3812456,68.7583602 77.636839,71.6498234 Z M67.9771756,50.392428 C64.8313443,50.392428 62.6340048,52.7352086 62.6340048,56.089596 C62.6340048,59.6291531 65.0308694,62.5086698 67.9771756,62.5086698 C70.9234819,62.5086698 73.3203465,59.6291531 73.3203465,56.089596 C73.3203465,52.7352086 71.123007,50.392428 67.9771756,50.392428 Z M67.9771756,61.2282683 C65.7375385,61.2282683 63.9157506,58.9230336 63.9157506,56.0891693 C63.9157506,53.4473013 65.5478402,51.6719762 67.9771756,51.6719762 C70.4065111,51.6719762 72.0386007,53.4468746 72.0386007,56.0891693 C72.0386007,58.9230336 70.2163855,61.2282683 67.9771756,61.2282683 Z" id="Shape" fill="#000000" fill-rule="nonzero"></path>
                    <ellipse id="Oval-3" fill="#D8F1FF" cx="16.5" cy="56.5" rx="4.5" ry="4.5"></ellipse>
                    <path d="M23.4832914,43.3005141 C21.4555696,42.4855968 19.3086454,42.0721649 17.1023337,42.0721649 C8.48472971,42.0721649 1.18817832,48.5027585 0.130738068,57.0299508 C0.0440066046,57.7271105 0,58.4413364 0,59.1521491 C0,68.568924 7.6721029,76.2295733 17.1023337,76.2295733 C20.5113502,76.2295733 23.6879435,75.2252198 26.3578199,73.5010937 C26.4535236,73.466961 26.5389733,73.4136287 26.6069058,73.3415235 C31.1857289,70.2738504 34.2050947,65.0588063 34.2050947,59.1512958 C34.2050947,52.1387404 29.9971234,45.916356 23.4832914,43.3005141 Z M17.1023337,74.9495985 C14.0103357,74.9495985 11.125126,74.0553228 8.6851093,72.5184996 C8.69493602,72.4741272 8.70134475,72.4276214 8.70134475,72.3798357 C8.70134475,71.9233113 8.7449241,71.0149559 8.81285663,70.6318167 C9.5942943,66.3106217 14.3423079,65.665941 17.102761,65.665941 C19.4372473,65.665941 24.9261099,66.1975573 25.4623069,71.1169272 C25.4717063,71.2188985 25.4858055,71.7816608 25.4964867,72.533006 C23.0620243,74.0617226 20.1849323,74.9495985 17.1023337,74.9495985 Z M26.7624243,71.6498234 C26.7547338,71.3264164 26.7466161,71.0691415 26.7363622,70.9799699 C26.2860421,66.8507711 22.6843365,64.3859662 17.102761,64.3859662 C11.6455148,64.3859662 8.25358823,66.5235242 7.55119155,70.4061145 C7.49564923,70.7197083 7.45976035,71.2116453 7.43967967,71.6476901 C3.69783653,68.7558003 1.28174576,64.2315159 1.28174576,59.1517225 C1.28174576,58.4938154 1.32233438,57.8324951 1.40308436,57.1873878 C2.38105638,49.3001828 9.13030233,43.3521398 17.102761,43.3521398 C19.1437275,43.3521398 21.1295789,43.7344256 23.004773,44.4879041 C29.0302598,46.9083365 32.923349,52.6639567 32.923349,59.1517225 C32.923349,64.2327959 30.5068309,68.7583602 26.7624243,71.6498234 Z M17.102761,50.392428 C13.9569296,50.392428 11.7595901,52.7352086 11.7595901,56.089596 C11.7595901,59.6291531 14.1564547,62.5086698 17.102761,62.5086698 C20.0490672,62.5086698 22.4459318,59.6291531 22.4459318,56.089596 C22.4459318,52.7352086 20.2485923,50.392428 17.102761,50.392428 Z M17.102761,61.2282683 C14.8631239,61.2282683 13.0413359,58.9230336 13.0413359,56.0891693 C13.0413359,53.4473013 14.6734255,51.6719762 17.102761,51.6719762 C19.5320965,51.6719762 21.1641861,53.4468746 21.1641861,56.0891693 C21.1641861,58.9230336 19.3419708,61.2282683 17.102761,61.2282683 Z" id="Shape" fill="#000000" fill-rule="nonzero"></path>
                    <path d="M36.5659855,57.9484536 L48.0922201,57.9484536" id="Line" stroke="#000000" stroke-width="2" stroke-linecap="square"></path>
                    <path d="M53.2591528,33.3402062 L58.6642303,41.3134163" id="Line" stroke="#000000" stroke-width="2" stroke-linecap="square"></path>
                    <path d="M25.039751,32.5463918 L30.4448284,40.5196019" id="Line" stroke="#000000" stroke-width="2" stroke-linecap="square" transform="translate(27.821946, 36.912371) scale(1, -1) translate(-27.821946, -36.912371) "></path>
                </g>
            </g>
        </g>
    </g>
</svg>