<?xml version="1.0" encoding="UTF-8"?>
<svg width="177px" height="177px" viewBox="0 0 177 177" version="1.1" xmlns="http://www.w3.org/2000/svg" xmlns:xlink="http://www.w3.org/1999/xlink">
    <!-- Generator: Sketch 42 (36781) - http://www.bohemiancoding.com/sketch -->
    <title>Opportunity</title>
    <desc>Created with Sketch.</desc>
    <defs></defs>
    <g id="Symbols" stroke="none" stroke-width="1" fill="none" fill-rule="evenodd">
        <g id="CATALYSTFORMULA" transform="translate(0.000000, 1.000000)">
            <g id="Opportunity" transform="translate(1.000000, 0.000000)">
                <circle id="Oval" stroke="#323232" stroke-width="2" fill="#FFFFFF" cx="87.5" cy="87.5" r="87.5"></circle>
                <g id="idea" transform="translate(52.000000, 81.000000)">
                    <g id="house" transform="translate(14.000000, 21.000000)">
                        <path d="M34.9243567,5.83732032 L34.9243567,5.83732032 C42.9361351,13.8180591 42.9361351,26.7410302 34.9243567,34.721769 L20.8380644,48.7200981 C20.5927884,48.9625047 20.1966585,48.9625047 19.9513826,48.7200981 L5.87137876,34.721769 C-2.013672,26.7224633 -1.94854367,13.9021846 6.01737733,5.98247199 C13.9832983,-1.93724065 26.8783782,-2.00199118 34.9243567,5.83732032 Z M34.0313864,33.8402306 C39.5499697,28.3571817 41.2023456,20.1086966 38.2178257,12.94197 C35.2333058,5.77524329 28.1998182,1.1020665 20.3978677,1.1020665 C12.5959172,1.1020665 5.56242961,5.77524329 2.57790972,12.94197 C-0.40661016,20.1086966 1.24576575,28.3571817 6.76434908,33.8402306 L20.3978677,47.3946645 L34.0313864,33.8402306 Z M24.7243718,25.3562053 L16.0713636,25.3562053 L16.0713636,19.4292665 L20.3978677,15.1403635 L24.7243718,19.3792501 L24.7243718,25.306189 L24.7243718,25.3562053 Z M20.3978677,5.48095375 C12.2752096,5.48095448 5.69017015,12.0268637 5.68901308,20.1024043 C5.687856,28.1779448 12.2710193,34.725719 20.3936772,34.7280204 C28.516335,34.7303219 35.1032511,28.1862793 35.1067239,20.1107394 C35.0997949,12.0362274 28.5194876,5.49129391 20.3978677,5.48095375 L20.3978677,5.48095375 Z M20.3978677,33.477612 C14.9568127,33.4776114 10.0516374,30.2186773 7.9700237,25.2207155 C5.88841003,20.2227538 7.0403865,14.4702442 10.8886929,10.6460496 C14.7369993,6.82185499 20.5236105,5.67925095 25.5497594,7.75112659 C30.5759084,9.82300224 33.8515629,14.7012472 33.8490192,20.1107394 C33.8386279,27.4922287 27.8224251,33.473533 20.3978677,33.483864 L20.3978677,33.477612 Z" id="location-house" fill="#000000" fill-rule="nonzero"></path>
                        <path d="M20.0616931,13.7470539 L26.8532983,20.4554984 C27.0669677,20.7035547 27.0526019,21.0733218 26.8203233,21.304253 C26.5880447,21.5351842 26.2161201,21.5494667 25.9666165,21.3370368 L25.167974,20.543027 L25.167974,25.8697695 C25.167974,26.2150604 24.8864272,26.494974 24.5391217,26.494974 L14.6284089,26.494974 C14.2811033,26.494974 13.9995565,26.2150604 13.9995565,25.8697695 L13.9995565,20.5805393 L13.2009141,21.368297 C13.0414003,21.5257687 12.8095032,21.5866725 12.5925761,21.5280667 C12.3756491,21.4694609 12.2066485,21.300249 12.1492352,21.0841715 C12.091822,20.868094 12.1547185,20.6379782 12.3142323,20.4805066 L19.1750113,13.7470539 C19.4202872,13.5046474 19.8164171,13.5046474 20.0616931,13.7470539 Z" id="Combined-Shape" stroke="#000000" stroke-width="1.5" fill="#D8F1FF"></path>
                    </g>
                    <path d="M46.829595,0 L43.7362535,11.5358239 L46.829595,0 Z M67.8081006,13.5645597 L59.3670451,22.0098957 L67.8081006,13.5645597 Z M21.8645597,0.392374962 L24.9536207,11.9253452 L21.8645597,0.392374962 Z M8.44676281,22.713317 L0,14.2708346 L8.44676281,22.713317 Z M22.1998619,84 L46.7867904,84 L22.1998619,84 Z M35.8859006,16.6148665 C35.4293188,16.5906106 34.9656029,16.5749156 34.4990334,16.5749156 C34.4990334,16.5749156 33.5972844,16.5849033 33.1863608,16.6077324 C19.8399049,17.2911783 9.23008592,28.3233354 9.23008592,41.8410095 C9.23008592,49.1791347 13.5290887,56.1391531 18.5614759,61.4383553 C19.5046026,62.3286898 20.7616293,63.7141301 21.4108315,65.2836299 C22.018656,66.7518257 22.1741792,68.6423596 22.1670451,70.7454894 L22.1670451,72.7373274 L22.1670451,78.143541 L27.5732587,78.143541 L34.4276925,78.143541 L34.4990334,78.143541 L41.3591746,78.143541 L46.7582541,78.143541 L46.7582541,72.7387542 L46.7582541,70.7469162 C46.7482663,68.6423596 46.9109236,66.7532525 47.5173213,65.2850568 C48.1679503,63.7112765 49.4221234,62.3286898 50.3666769,61.4383553 C55.3976373,56.1391531 59.6966401,49.1762811 59.6966401,41.8410095 C59.6966401,28.3704204 49.1638693,17.3739337 35.8859006,16.6148665 Z" id="Shape" stroke="#000000" stroke-width="2" stroke-linecap="round" stroke-linejoin="round"></path>
                </g>
                <text id="OPPORTUNITY" font-family="Futura-Bold, Futura" font-size="20" font-weight="bold" fill="#323232">
                    <tspan x="9.14" y="73">OPPORTUNITY</tspan>
                </text>
            </g>
        </g>
    </g>
</svg>