<?xml version="1.0" encoding="UTF-8"?>
<svg width="411px" height="202px" viewBox="0 0 411 202" version="1.1" xmlns="http://www.w3.org/2000/svg" xmlns:xlink="http://www.w3.org/1999/xlink">
    <!-- Generator: Sketch 42 (36781) - http://www.bohemiancoding.com/sketch -->
    <title>Catalyst_Logo_pantone</title>
    <desc>Created with Sketch.</desc>
    <defs>
        <polygon id="path-1" points="0.103613445 108.613846 0.103613445 0.668153846 364.085559 0.668153846 364.085559 108.613846 0.103613445 108.613846"></polygon>
    </defs>
    <g id="Symbols" stroke="none" stroke-width="1" fill="none" fill-rule="evenodd">
        <g id="Icon" transform="translate(-436.000000, -281.000000)">
            <g id="Catalyst_Logo_pantone" transform="translate(436.000000, 281.000000)">
                <path d="M12.2298403,196.665128 C7.95060504,196.665128 4.58144118,194.439675 4.58144118,189.881726 L4.58144118,182.81 C4.58144118,178.676769 7.69329832,175.619145 12.1711261,175.619145 C16.3951008,175.619145 19.3618992,177.925744 19.3618992,181.301043 L19.3618992,182.03653 L17.135937,182.03653 L17.135937,181.579009 C17.135937,179.182632 15.3106134,177.651231 12.0865084,177.651231 C8.97810504,177.651231 6.98181933,179.581453 6.98181933,182.609726 L6.98181933,189.70735 C6.98181933,192.787419 8.97810504,194.669299 12.2004832,194.669299 C15.3986849,194.669299 17.1083067,193.129265 17.1083067,190.736342 L17.1083067,190.24947 L19.3618992,190.24947 L19.3618992,190.991863 C19.3618992,194.500103 16.2517689,196.665128 12.2298403,196.665128" id="Fill-1" fill="#9B5C1F"></path>
                <path d="M33.4118824,187.431829 C33.4118824,185.17012 32.5277143,183.491966 29.9287437,183.491966 C27.4489286,183.491966 26.3661681,185.059624 26.3661681,187.544051 L26.3661681,190.872735 C26.3661681,193.129265 27.2503361,194.847128 29.8182227,194.847128 C32.2997647,194.847128 33.3825252,193.276017 33.3825252,190.79159 L33.4118824,187.431829 Z M29.8752101,196.665128 C26.224563,196.665128 24.1108487,194.591607 24.1108487,190.938342 L24.1108487,187.544051 C24.1108487,183.801009 26.5095,181.635983 29.8752101,181.635983 C33.4982269,181.635983 35.662021,183.835538 35.662021,187.509521 L35.662021,190.79159 C35.662021,194.526 33.2391933,196.665128 29.8752101,196.665128 L29.8752101,196.665128 Z" id="Fill-2" fill="#9B5C1F"></path>
                <path d="M58.7004706,196.318103 L58.7004706,187.027829 C58.7004706,184.722957 57.619437,183.545487 55.8787311,183.545487 C53.8530882,183.545487 52.0830252,185.489521 52.0830252,187.880718 L52.0830252,196.318103 L49.8898739,196.318103 L49.8898739,187.027829 C49.8898739,184.741949 48.8347437,183.545487 47.0646807,183.545487 C45.2117269,183.545487 43.2430714,185.309966 43.2430714,187.82547 L43.2430714,196.318103 L41.0464664,196.318103 L41.0464664,181.983009 L43.1584538,181.983009 L43.1584538,184.289607 L43.2430714,184.289607 C44.2671176,182.663248 45.6089118,181.635983 47.7208992,181.635983 C49.8898739,181.635983 51.1435966,182.81 51.7151975,184.289607 L51.8568025,184.289607 C52.8843025,182.690872 54.3383445,181.635983 56.4779622,181.635983 C59.4171303,181.635983 60.9005294,183.782017 60.9005294,186.169761 L60.9005294,196.318103 L58.7004706,196.318103" id="Fill-3" fill="#9B5C1F"></path>
                <path d="M84.4156008,196.318103 L84.4156008,187.027829 C84.4156008,184.722957 83.3311134,183.545487 81.5921345,183.545487 C79.5647647,183.545487 77.7964286,185.489521 77.7964286,187.880718 L77.7964286,196.318103 L75.6015504,196.318103 L75.6015504,187.027829 C75.6015504,184.741949 74.5481471,183.545487 72.7763571,183.545487 C70.9234034,183.545487 68.9547479,185.309966 68.9547479,187.82547 L68.9547479,196.318103 L66.7598697,196.318103 L66.7598697,181.983009 L68.8701303,181.983009 L68.8701303,184.289607 L68.9547479,184.289607 C69.980521,182.663248 71.3223151,181.635983 73.4343025,181.635983 C75.6015504,181.635983 76.8587269,182.81 77.4268739,184.289607 L77.5702059,184.289607 C78.595979,182.690872 80.0517479,181.635983 82.1930924,181.635983 C85.1305336,181.635983 86.6156597,183.782017 86.6156597,186.169761 L86.6156597,196.318103 L84.4156008,196.318103" id="Fill-4" fill="#9B5C1F"></path>
                <path d="M101.456559,196.318103 L101.456559,194.014957 L101.377122,194.014957 C100.373798,195.637863 99.0026471,196.665128 96.9251975,196.665128 C93.8686008,196.665128 92.4162857,194.386154 92.4162857,192.017402 L92.4162857,181.983009 L94.6146176,181.983009 L94.6146176,191.278462 C94.6146176,193.640308 95.8389832,194.753897 97.5468782,194.753897 C99.5759748,194.753897 101.403025,192.958342 101.403025,190.418667 L101.403025,181.983009 L103.625534,181.983009 L103.625534,196.318103 L101.456559,196.318103" id="Fill-5" fill="#9B5C1F"></path>
                <path d="M118.447437,196.318103 L118.447437,187.027829 C118.447437,184.664256 117.224798,183.545487 115.54108,183.545487 C113.511983,183.545487 111.660756,185.368667 111.660756,187.934239 L111.660756,196.318103 L109.464151,196.318103 L109.464151,181.983009 L111.605496,181.983009 L111.605496,184.289607 L111.660756,184.289607 C112.686529,182.663248 114.055954,181.635983 116.136857,181.635983 C119.221084,181.635983 120.645769,183.894239 120.645769,186.285436 L120.645769,196.318103 L118.447437,196.318103" id="Fill-6" fill="#9B5C1F"></path>
                <path d="M126.51029,196.318103 L128.705168,196.318103 L128.705168,181.983009 L126.51029,181.983009 L126.51029,196.318103 Z M126.51029,178.932291 L128.705168,178.932291 L128.705168,175.819419 L126.51029,175.819419 L126.51029,178.932291 Z" id="Fill-7" fill="#9B5C1F"></path>
                <path d="M139.316912,196.582256 C137.548576,196.582256 135.60755,195.924462 135.60755,193.329538 L135.60755,183.835538 L133.039664,183.835538 L133.039664,182.060701 L135.578193,182.060701 L135.578193,177.21788 L137.773071,177.21788 L137.773071,182.060701 L142.081664,182.060701 L142.081664,183.801009 L137.773071,183.801009 L137.773071,192.958342 C137.773071,194.242855 138.463828,194.753897 139.686466,194.753897 C140.599992,194.753897 141.570504,194.526 142.254353,194.270479 L142.254353,195.977983 C141.199223,196.411333 140.057748,196.582256 139.316912,196.582256" id="Fill-8" fill="#9B5C1F"></path>
                <path d="M152.460277,198.602256 C151.548479,201.140205 149.920021,202 148.094697,202 C147.528277,202 146.728727,201.946479 146.013794,201.744479 L146.013794,199.912667 C146.613025,200.064598 147.438479,200.169915 147.978996,200.169915 C149.182639,200.169915 149.947651,199.631248 150.350017,198.547009 L151.263542,196.066034 L146.072508,181.983009 L148.436622,181.983009 L152.348029,193.276017 L152.401563,193.276017 L156.200723,181.983009 L158.423231,181.983009 L152.460277,198.602256" id="Fill-9" fill="#9B5C1F"></path>
                <path d="M183.508046,182.78065 C183.508046,180.092496 181.910672,178.041419 178.572592,178.041419 L173.785651,178.041419 L173.785651,194.270479 L178.741828,194.270479 C182.000471,194.270479 183.508046,192.13135 183.508046,189.629658 L183.508046,182.78065 Z M178.859256,196.318103 L171.473345,196.318103 L171.473345,175.993795 L178.829899,175.993795 C182.969256,175.993795 185.875613,178.328017 185.875613,182.635624 L185.875613,189.477726 C185.875613,193.764615 182.907088,196.318103 178.859256,196.318103 L178.859256,196.318103 Z" id="Fill-10" fill="#9B5C1F"></path>
                <path d="M200.269248,187.312701 C200.269248,185.309966 199.41271,183.491966 196.848277,183.491966 C194.423723,183.491966 193.111286,185.116598 193.111286,187.145231 L193.111286,188.112068 L200.269248,188.112068 L200.269248,187.312701 Z M197.247189,196.665128 C193.705336,196.665128 190.855966,194.847128 190.855966,190.819214 L190.855966,187.709795 C190.855966,183.714684 193.454937,181.635983 196.874181,181.635983 C200.127643,181.635983 202.438223,183.661162 202.438223,187.366222 L202.438223,189.788496 L193.111286,189.788496 L193.111286,190.79159 C193.111286,193.098188 194.624042,194.786701 197.35771,194.786701 C198.758218,194.786701 200.037845,193.902735 200.809765,192.842667 L202.438223,193.764615 C201.182773,195.725915 199.271105,196.665128 197.247189,196.665128 L197.247189,196.665128 Z" id="Fill-11" fill="#9B5C1F"></path>
                <polyline id="Fill-12" fill="#9B5C1F" points="213.495504 196.387162 211.212555 196.387162 206.192483 181.983009 208.503063 181.983009 212.38166 193.693829 212.443828 193.693829 216.346601 181.983009 218.548387 181.983009 213.495504 196.387162"></polyline>
                <path d="M231.857534,187.312701 C231.857534,185.309966 231.002723,183.491966 228.431382,183.491966 C226.006828,183.491966 224.699571,185.116598 224.699571,187.145231 L224.699571,188.112068 L231.857534,188.112068 L231.857534,187.312701 Z M228.833748,196.665128 C225.295349,196.665128 222.445979,194.847128 222.445979,190.819214 L222.445979,187.709795 C222.445979,183.714684 225.041496,181.635983 228.462466,181.635983 C231.714202,181.635983 234.026508,183.661162 234.026508,187.366222 L234.026508,189.788496 L224.699571,189.788496 L224.699571,190.79159 C224.699571,193.098188 226.210601,194.786701 228.947723,194.786701 C230.348231,194.786701 231.624403,193.902735 232.396324,192.842667 L234.026508,193.764615 C232.769332,195.725915 230.862845,196.665128 228.833748,196.665128 L228.833748,196.665128 Z" id="Fill-13" fill="#9B5C1F"></path>
                <path d="M242.600521,196.604701 C240.146609,196.604701 239.177824,195.156171 239.177824,193.098188 L239.177824,175.993795 L241.402059,175.993795 L241.402059,193.044667 C241.402059,193.980427 241.835508,194.753897 243.002887,194.753897 C243.546857,194.753897 244.196168,194.643402 244.795399,194.526 L244.795399,196.209333 C244.001029,196.44241 243.227382,196.604701 242.600521,196.604701" id="Fill-14" fill="#9B5C1F"></path>
                <path d="M258.056193,187.431829 C258.056193,185.17012 257.172025,183.491966 254.578235,183.491966 C252.093239,183.491966 251.008752,185.059624 251.008752,187.544051 L251.008752,190.872735 C251.008752,193.129265 251.896374,194.847128 254.465987,194.847128 C256.947529,194.847128 258.026836,193.276017 258.026836,190.79159 L258.056193,187.431829 Z M254.521248,196.665128 C250.870601,196.665128 248.75516,194.591607 248.75516,190.938342 L248.75516,187.544051 C248.75516,183.801009 251.157265,181.635983 254.521248,181.635983 C258.140811,181.635983 260.313239,183.835538 260.313239,187.509521 L260.313239,190.79159 C260.313239,194.526 257.883504,196.665128 254.521248,196.665128 L254.521248,196.665128 Z" id="Fill-15" fill="#9B5C1F"></path>
                <path d="M274.934824,186.737778 C274.934824,185.000923 273.938408,183.51441 271.683088,183.51441 C269.887122,183.51441 267.887382,185.228821 267.887382,187.431829 L267.887382,191.193863 C267.887382,193.498735 269.856038,194.86612 271.655458,194.86612 C273.308092,194.86612 274.934824,193.78706 274.934824,191.449385 L274.934824,186.737778 Z M271.852324,196.665128 C270.289487,196.665128 268.685206,195.953812 267.973727,194.847128 L267.887382,194.847128 L267.887382,201.946479 L265.68905,201.946479 L265.68905,181.983009 L267.833849,181.983009 L267.833849,184.148034 L267.861479,184.148034 C268.861349,182.635624 270.398282,181.635983 272.113084,181.635983 C275.190403,181.635983 277.186689,183.638718 277.186689,186.572034 L277.186689,191.425214 C277.186689,195.073299 274.508282,196.665128 271.852324,196.665128 L271.852324,196.665128 Z" id="Fill-16" fill="#9B5C1F"></path>
                <path d="M300.221685,196.318103 L300.221685,187.027829 C300.221685,184.722957 299.142378,183.545487 297.399945,183.545487 C295.374303,183.545487 293.605966,185.489521 293.605966,187.880718 L293.605966,196.318103 L291.412815,196.318103 L291.412815,187.027829 C291.412815,184.741949 290.357685,183.545487 288.585895,183.545487 C286.734668,183.545487 284.764286,185.309966 284.764286,187.82547 L284.764286,196.318103 L282.567681,196.318103 L282.567681,181.983009 L284.683122,181.983009 L284.683122,184.289607 L284.764286,184.289607 C285.790059,182.663248 287.130126,181.635983 289.24384,181.635983 C291.412815,181.635983 292.664811,182.81 293.238139,184.289607 L293.378017,184.289607 C294.407244,182.690872 295.863013,181.635983 298.000903,181.635983 C300.938345,181.635983 302.425197,183.782017 302.425197,186.169761 L302.425197,196.318103 L300.221685,196.318103" id="Fill-17" fill="#9B5C1F"></path>
                <path d="M317.070958,187.312701 C317.070958,185.309966 316.210966,183.491966 313.641353,183.491966 C311.220252,183.491966 309.907815,185.116598 309.907815,187.145231 L309.907815,188.112068 L317.070958,188.112068 L317.070958,187.312701 Z M314.043718,196.665128 C310.503592,196.665128 307.652496,194.847128 307.652496,190.819214 L307.652496,187.709795 C307.652496,183.714684 310.249739,181.635983 313.67071,181.635983 C316.924172,181.635983 319.234752,183.661162 319.234752,187.366222 L319.234752,189.788496 L309.907815,189.788496 L309.907815,190.79159 C309.907815,193.098188 311.417118,194.786701 314.154239,194.786701 C315.553021,194.786701 316.837828,193.902735 317.611475,192.842667 L319.234752,193.764615 C317.979303,195.725915 316.067634,196.665128 314.043718,196.665128 L314.043718,196.665128 Z" id="Fill-18" fill="#9B5C1F"></path>
                <path d="M333.433248,196.318103 L333.433248,187.027829 C333.433248,184.664256 332.208882,183.545487 330.519983,183.545487 C328.499521,183.545487 326.648294,185.368667 326.648294,187.934239 L326.648294,196.318103 L324.448235,196.318103 L324.448235,181.983009 L326.586126,181.983009 L326.586126,184.289607 L326.648294,184.289607 C327.670613,182.663248 329.041765,181.635983 331.124395,181.635983 C334.205168,181.635983 335.629853,183.894239 335.629853,186.285436 L335.629853,196.318103 L333.433248,196.318103" id="Fill-19" fill="#9B5C1F"></path>
                <path d="M346.120714,196.582256 C344.348924,196.582256 342.404445,195.924462 342.404445,193.329538 L342.404445,183.835538 L339.841739,183.835538 L339.841739,182.060701 L342.381996,182.060701 L342.381996,177.21788 L344.576874,177.21788 L344.576874,182.060701 L348.885466,182.060701 L348.885466,183.801009 L344.576874,183.801009 L344.576874,192.958342 C344.576874,194.242855 345.26245,194.753897 346.485088,194.753897 C347.398613,194.753897 348.367399,194.526 349.054702,194.270479 L349.054702,195.977983 C347.999571,196.411333 346.85637,196.582256 346.120714,196.582256" id="Fill-20" fill="#9B5C1F"></path>
                <g id="Group-24" transform="translate(0.000000, 88.051282)">
                    <mask id="mask-2" fill="white">
                        <use xlink:href="#path-1"></use>
                    </mask>
                    <g id="Clip-22"></g>
                    <path d="M358.347101,108.613846 C356.062424,108.613846 353.955618,108.014752 352.555109,106.416017 L354.069592,104.993385 C355.211067,106.131145 356.635752,106.814838 358.321197,106.814838 C359.859857,106.814838 361.831966,106.022376 361.831966,104.454718 C361.831966,102.911231 360.832097,102.422632 359.029223,102.060068 L357.062294,101.656068 C354.955487,101.229624 353.297672,100.116034 353.297672,97.9492821 C353.297672,95.4942051 355.211067,93.5847009 358.490433,93.5847009 C360.567882,93.5847009 362.225697,94.0094188 363.365445,95.2421368 L361.970118,96.6354188 C360.918441,95.7497265 360.030819,95.3854359 358.321197,95.3854359 C356.635752,95.3854359 355.551265,96.3211966 355.551265,97.548735 C355.551265,98.8038974 356.407803,99.4047179 357.95337,99.6913162 L360.345113,100.178188 C362.256782,100.549385 364.085559,101.597368 364.085559,103.993744 C364.085559,107.075538 361.144664,108.613846 358.347101,108.613846" id="Fill-21" fill="#9B5C1F" mask="url(#mask-2)"></path>
                    <path d="M44.6712101,49.1326154 C42.3899874,50.6743761 39.5596134,51.9709744 36.199084,53.0155043 C32.8333739,54.0652137 29.5039286,54.5900684 26.1986597,54.5900684 C18.2549622,54.5900684 11.8965504,52.2696581 7.13205882,47.6150256 C2.37447479,42.9638462 0,36.7553675 0,29.0034017 C0,20.5884615 2.68531513,13.7567179 8.07148739,8.5254359 C13.4611134,3.28379487 20.3306849,0.668153846 28.6802017,0.668153846 C34.0801891,0.668153846 39.3247563,1.76447863 44.3931807,3.97439316 C43.1809034,8.89663248 42.1015966,13.9328205 41.1414454,19.0795043 L38.9914664,19.4161709 L34.5188193,6.17394872 C32.8333739,5.58866667 30.919979,5.29516239 28.7872689,5.29516239 C23.3078445,5.29516239 19.0286092,7.20811966 15.9374748,11.0288547 C12.8532479,14.8547692 11.3059538,19.9047692 11.3059538,26.1926667 C11.3059538,33.5751624 13.0518403,39.0395214 16.5470672,42.5702051 C20.0371134,46.0957094 25.5700714,47.860188 33.1424874,47.860188 C36.6411681,47.860188 40.3677983,47.5114359 44.3379202,46.8087521 L44.6712101,49.1326154" id="Fill-23" fill="#9B5C1F" mask="url(#mask-2)"></path>
                </g>
                <path d="M81.8977941,116.113744 C74.1630504,116.113744 68.8787647,116.911385 66.060479,118.482496 C63.2370126,120.069145 61.8209622,122.731402 61.8209622,126.48653 C61.8209622,129.979231 62.7586639,132.44294 64.6271597,133.903556 C66.5008361,135.358991 69.048,136.082393 72.2513824,136.082393 C75.8899412,136.082393 79.0708739,135.436684 81.7820924,134.146991 L81.8977941,116.113744 Z M55.1499832,93.3999658 C62.3148529,90.2784615 68.6577227,88.7194359 74.1734118,88.7194359 C79.8186176,88.7194359 84.2843571,90.1886838 87.5671765,93.1202735 C90.846542,96.0674017 92.4646387,100.312855 92.4249202,105.865265 L92.1503445,128.801761 C92.1106261,130.666376 92.1641597,132.180513 92.2902227,133.314821 C92.4162857,134.456034 92.7513025,135.331368 93.2780042,135.942547 C93.8150672,136.550274 94.6146176,136.968085 95.683563,137.208068 C96.7490546,137.448051 98.1789202,137.579265 99.9887017,137.62588 L100.259824,139.765009 C98.6728109,140.398632 96.7490546,141.016718 94.4591975,141.643436 C92.1831555,142.27706 90.6289538,142.587829 89.8069538,142.587829 C86.2081134,142.587829 83.7352059,140.745658 82.4020462,137.068222 C77.1971975,140.783641 72.2876471,142.64135 67.6854832,142.64135 C62.5168992,142.64135 58.3671807,141.375829 55.2259664,138.865504 C52.0916597,136.341368 50.5167353,132.784786 50.5167353,128.188855 C50.5167353,122.539761 53.0414496,118.358188 58.0977857,115.680393 C63.1575756,112.995692 71.0891849,111.654205 81.8977941,111.654205 L81.9496008,107.351778 C81.9875924,103.234085 80.9393697,100.188547 78.8066597,98.1996239 C76.6704958,96.2176068 73.4032185,95.2265983 68.9910126,95.2265983 C65.6442983,95.2265983 61.4531345,95.8498632 56.4123403,97.0946667 L55.1499832,93.3999658 L55.1499832,93.3999658 Z" id="Fill-25" fill="#9B5C1F"></path>
                <path d="M122.037643,95.9948889 C121.821782,108.418752 121.70608,118.428974 121.70608,126.041094 C121.70608,129.870462 122.281134,132.501641 123.420882,133.957077 C124.562357,135.400427 126.729605,136.135915 129.927807,136.135915 C132.462882,136.135915 135.773332,135.799248 139.855702,135.141453 L140.185538,137.62588 C133.821945,140.819897 128.140475,142.418632 123.14458,142.418632 C119.074298,142.418632 116.036697,141.344752 114.043866,139.184906 C112.059668,137.037145 111.061525,133.798239 111.061525,129.459556 C111.061525,122.330855 111.196223,111.06547 111.453529,95.6599487 L103.843122,93.7901538 L103.511559,91.523265 L112.018223,90.8067692 L115.900273,77.4713162 C118.001899,76.9153846 119.927382,76.3836239 121.654273,75.8708547 L122.205151,76.2558632 C122.098084,80.6998632 122.037643,84.857265 122.037643,88.7194359 L122.037643,90.7532479 L138.636517,90.7532479 L138.636517,95.9948889 L122.037643,95.9948889" id="Fill-26" fill="#9B5C1F"></path>
                <path d="M175.973622,116.113744 C168.245786,116.113744 162.963227,116.911385 160.141487,118.482496 C157.314567,120.069145 155.903697,122.731402 155.903697,126.48653 C155.903697,129.979231 156.843126,132.44294 158.702987,133.903556 C160.574937,135.358991 163.122101,136.082393 166.330664,136.082393 C169.972676,136.082393 173.153609,135.436684 175.861374,134.146991 L175.973622,116.113744 Z M149.227538,93.3999658 C156.399315,90.2784615 162.742185,88.7194359 168.250966,88.7194359 C173.90308,88.7194359 178.365366,90.1886838 181.644731,93.1202735 C184.92237,96.0674017 186.54392,100.312855 186.505929,105.865265 L186.23308,128.801761 C186.193361,130.666376 186.238261,132.180513 186.372958,133.314821 C186.502475,134.456034 186.825403,135.331368 187.36592,135.942547 C187.894349,136.550274 188.695626,136.968085 189.762845,137.208068 C190.823155,137.448051 192.263382,137.579265 194.061076,137.62588 L194.335651,139.765009 C192.757273,140.398632 190.823155,141.016718 188.540206,141.643436 C186.258983,142.27706 184.703055,142.587829 183.891416,142.587829 C180.283941,142.587829 177.812761,140.745658 176.477874,137.068222 C171.279933,140.783641 166.372109,142.64135 161.766492,142.64135 C156.597908,142.64135 152.446462,141.375829 149.300067,138.865504 C146.165761,136.341368 144.599471,132.784786 144.599471,128.188855 C144.599471,122.539761 147.125912,118.358188 152.178794,115.680393 C157.231676,112.995692 165.161559,111.654205 175.973622,111.654205 L176.034063,107.351778 C176.066874,103.234085 175.018651,100.188547 172.891122,98.1996239 C170.753231,96.2176068 167.487681,95.2265983 163.068567,95.2265983 C159.725307,95.2265983 155.53587,95.8498632 150.496803,97.0946667 L149.227538,93.3999658 L149.227538,93.3999658 Z" id="Fill-27" fill="#9B5C1F"></path>
                <path d="M199.246929,63.7387692 L198.972353,61.9242222 C205.484458,60.6673333 211.497492,59.3621026 217.004546,58.0068034 L217.507071,58.4487863 C217.282576,64.4362735 217.173782,72.7648889 217.173782,83.422547 L217.173782,119.311214 C217.173782,125.897795 217.2135,131.186051 217.282576,135.194974 C217.389643,136.263675 217.905983,136.92147 218.822962,137.183897 L224.835996,138.996718 L225.001777,141.265333 C220.038693,141.147932 215.745643,141.09441 212.120899,141.09441 C208.503063,141.09441 204.232462,141.147932 199.298735,141.265333 L199.07942,138.996718 L205.311769,137.183897 C206.230475,136.890393 206.724366,136.299932 206.800349,135.419419 C206.872878,131.260291 206.912597,126.633282 206.912597,121.524581 L206.912597,98.8591453 C206.912597,85.1870256 206.841794,74.2168718 206.696735,65.9469573 L199.246929,63.7387692" id="Fill-28" fill="#9B5C1F"></path>
                <path d="M224.835996,89.9815043 C229.460609,90.0937265 233.580971,90.1489744 237.191899,90.1489744 C239.654445,90.1489744 243.588303,90.0937265 248.991744,89.9815043 L249.209332,92.2432137 L242.755941,94.0042393 C244.118458,97.8664103 245.698563,102.118769 247.503164,106.769949 C249.302584,111.422855 251.210798,116.269128 253.231261,121.30359 C254.082618,123.390923 254.99787,125.804564 255.996013,128.523795 C257.018332,125.775214 258.125269,122.957573 259.303008,120.084684 C261.033353,115.820239 262.708437,111.624855 264.319626,107.489897 C265.937723,103.351487 267.609353,98.8591453 269.339697,94.0042393 L263.050361,92.2432137 L262.832773,89.9815043 C265.550899,90.0937265 268.733559,90.1489744 272.372118,90.1489744 C275.642849,90.1489744 278.823782,90.0937265 281.911462,89.9815043 L282.186038,92.2432137 L277.06408,93.6813846 C275.917424,94.0474017 275.097151,94.7967009 274.577357,95.9413675 C273.21484,99.0645983 271.745256,102.486513 270.165151,106.189846 C265.317769,117.584718 261.636038,126.92506 259.138954,134.200513 C257.448328,139.122752 255.918303,144.174479 254.555786,149.338427 C253.201903,154.493744 252.146773,158.937744 251.411118,162.660068 C251.086462,164.452171 250.412975,165.826462 249.402744,166.755316 C248.392513,167.699709 246.030126,168.169316 242.315584,168.169316 C238.526786,168.169316 234.857143,168.039829 231.289387,167.777402 L231.00963,165.633094 C235.055735,165.002923 238.055345,163.697692 239.999824,161.707043 C242.351849,159.181179 245.992134,152.437487 250.9155,141.481145 L251.357584,140.427983 L250.592571,140.215624 C243.862878,123.444444 237.777315,108.713983 232.334155,95.9948889 C231.857534,94.8882051 231.00963,94.1371795 229.79908,93.7366325 L224.939609,92.2432137 L224.835996,89.9815043" id="Fill-29" fill="#9B5C1F"></path>
                <path d="M311.527639,94.2856581 C309.394929,93.6951966 307.079168,93.3999658 304.57863,93.3999658 C301.121395,93.3999658 298.341101,94.0698462 296.223933,95.4147863 C294.110218,96.7597265 293.053361,98.582906 293.053361,100.903316 C293.053361,103.144308 293.740664,104.912239 295.12045,106.189846 C296.498508,107.477812 299.061214,108.753692 302.812021,110.001949 L307.338202,111.547162 C312.41008,113.265026 316.133256,115.23841 318.499097,117.467316 C320.871845,119.692769 322.058218,122.605368 322.058218,126.212017 C322.058218,131.313812 320.074021,135.331368 316.105626,138.256051 C312.135504,141.179009 307.113706,142.64135 301.052319,142.64135 C295.460647,142.64135 289.746366,141.50359 283.892206,139.221162 C285.147655,134.442222 286.157887,129.768598 286.92808,125.217556 L289.084966,124.884342 L293.053361,136.736735 C295.151534,137.548188 297.814399,137.948735 301.052319,137.948735 C304.469836,137.948735 307.198324,137.254684 309.239508,135.854496 C311.278966,134.456034 312.301286,132.491282 312.301286,129.95506 C312.301286,127.60012 311.612256,125.751043 310.230744,124.388838 C308.856139,123.026632 306.657807,121.849162 303.637475,120.854701 L297.907651,118.931385 C292.944567,117.275675 289.514962,115.27812 287.620563,112.943897 C285.727891,110.614855 284.779828,107.714342 284.779828,104.269983 C284.779828,99.4513333 286.610332,95.6530427 290.264433,92.8768376 C293.923714,90.1040855 298.752101,88.7194359 304.744412,88.7194359 C310.330903,88.7194359 315.406235,89.5257094 319.9635,91.1417094 C318.932546,95.333641 318.000025,99.7621026 317.148668,104.425368 L315.05395,104.815556 L311.527639,94.2856581" id="Fill-30" fill="#9B5C1F"></path>
                <path d="M345.718349,95.9948889 C345.499034,108.418752 345.385059,118.428974 345.385059,126.041094 C345.385059,129.870462 345.958387,132.501641 347.098134,133.957077 C348.236155,135.400427 350.406857,136.135915 353.605059,136.135915 C356.140134,136.135915 359.450584,135.799248 363.526046,135.141453 L363.861063,137.62588 C357.502651,140.819897 351.819454,142.418632 346.816651,142.418632 C342.753277,142.418632 339.71395,141.344752 337.721118,139.184906 C335.73692,137.037145 334.742231,133.798239 334.742231,129.459556 C334.742231,122.330855 334.873475,111.06547 335.127328,95.6599487 L327.523828,93.7901538 L327.185357,91.523265 L335.68684,90.8067692 L339.579252,77.4713162 C341.684332,76.9153846 343.604634,76.3836239 345.331525,75.8708547 L345.882403,76.2558632 C345.773609,80.6998632 345.718349,84.857265 345.718349,88.7194359 L345.718349,90.7532479 L362.31895,90.7532479 L362.31895,95.9948889 L345.718349,95.9948889" id="Fill-31" fill="#9B5C1F"></path>
                <polyline id="Fill-32" fill="#939D23" points="347.674916 15.2017949 347.507408 38.6389744 376.365479 65.1527692 376.627966 26.6829915 347.674916 15.2017949"></polyline>
                <polyline id="Fill-33" fill="#9B5C1F" points="379.109508 0.562837607 409.898244 11.7470769 410.696067 97.8612308 379.228664 68.0135726 379.109508 0.562837607"></polyline>
            </g>
        </g>
    </g>
</svg>