<?xml version="1.0" standalone="no"?>
<!DOCTYPE svg PUBLIC "-//W3C//DTD SVG 1.1//EN" "http://www.w3.org/Graphics/SVG/1.1/DTD/svg11.dtd" >
<svg xmlns="http://www.w3.org/2000/svg" xmlns:xlink="http://www.w3.org/1999/xlink" version="1.1">
<metadata></metadata>
<defs>
<font id="asapitalic" horiz-adv-x="655" >
<font-face units-per-em="2048" ascent="1638" descent="-410" />
<missing-glyph horiz-adv-x="491" />
<glyph unicode="&#xfb01;" horiz-adv-x="1153" d="M119 979q0 92 51 92h82l20 207q27 270 293 270q146 0 146 -63q0 -20 -18.5 -59.5t-35.5 -39.5q-4 0 -25.5 7.5t-66.5 7.5q-53 0 -83.5 -29t-39.5 -115l-18 -186h178q18 0 25.5 -8t7.5 -31q0 -10 -8.5 -36.5t-28.5 -49t-55 -22.5h-135l-93 -883q-6 -45 -86 -45h-8 q-43 0 -60.5 11t-17.5 34l93 883h-82q-20 0 -27.5 14t-7.5 41zM739 182q0 57 40 452.5t44 395.5q2 25 23.5 35t62.5 10h9q43 0 60 -11t17 -34q-12 -119 -47 -445.5t-35 -365.5q0 -55 18.5 -69.5t53.5 -14.5q14 0 30.5 5t24.5 5q12 0 13 -14q0 -31 -9 -76q-6 -35 -46 -51 t-76 -16q-182 0 -183 194zM852 1374l12 121q2 25 23.5 35t62.5 10h25q43 0 60.5 -10t17.5 -35l-13 -121q0 -45 -77 -45h-25q-43 0 -64.5 9.5t-21.5 35.5z" />
<glyph unicode="&#xfb02;" horiz-adv-x="1210" d="M119 979q0 92 51 92h82l20 207q27 270 293 270q146 0 146 -63q0 -20 -18.5 -59.5t-35.5 -39.5q-4 0 -25.5 7.5t-66.5 7.5q-53 0 -83.5 -29t-39.5 -115l-18 -186h178q18 0 25.5 -8t7.5 -31q0 -10 -8.5 -36.5t-28.5 -49t-55 -22.5h-135l-93 -883q-6 -45 -86 -45h-8 q-43 0 -60.5 11t-17.5 34l93 883h-82q-20 0 -27.5 14t-7.5 41zM776 188q0 82 119 1172l14 135q2 25 23.5 35t62.5 10h9q43 0 60 -11t17 -34q-20 -190 -75.5 -713.5t-55.5 -562.5q0 -55 19.5 -69.5t54.5 -14.5q14 0 30.5 5t24.5 5q12 0 13 -14q0 -31 -9 -76q-6 -35 -46 -51 t-76 -16q-184 0 -185 200z" />
<glyph horiz-adv-x="0" />
<glyph unicode="&#xd;" horiz-adv-x="491" />
<glyph horiz-adv-x="0" />
<glyph horiz-adv-x="0" />
<glyph unicode=" "  horiz-adv-x="491" />
<glyph unicode="&#x09;" horiz-adv-x="491" />
<glyph unicode="&#xa0;" horiz-adv-x="491" />
<glyph unicode="!" horiz-adv-x="602" d="M133 41l14 135q4 45 86 45h35q43 0 60.5 -11t17.5 -34l-14 -135q-6 -45 -86 -45h-35q-43 0 -60.5 11t-17.5 34zM201 459l98 934q6 45 86 45h41q43 0 59.5 -11.5t16.5 -33.5q0 -18 -90 -559q-35 -188 -64 -375q-6 -45 -67 -45h-23q-33 0 -45 11t-12 34z" />
<glyph unicode="&#x22;" horiz-adv-x="653" d="M123 991v402q0 45 86 45h20q33 0 54.5 -8.5t21.5 -36.5q0 -6 -43 -199l-45 -203q-6 -25 -49 -24h-2q-43 0 -43 24zM385 991v402q0 45 86 45h21q32 0 53.5 -8.5t21.5 -36.5q0 -6 -43 -199l-45 -203q-6 -25 -49 -24h-2q-43 0 -43 24z" />
<glyph unicode="#" horiz-adv-x="1093" d="M0 463q0 53 13.5 74.5t37.5 21.5h187l86 301h-168q-23 0 -29 13.5t-6 48.5q0 53 13 74.5t38 21.5h195l98 342q6 25 24.5 35t71.5 10h8q53 0 54 -31q-4 -25 -27 -94l-78 -262h244l96 342q6 25 24.5 35t71.5 10h11q53 0 53 -31q0 -14 -29 -108l-71 -248h141q23 0 29 -14.5 t6 -47.5q0 -96 -52 -96h-172l-84 -301h156q23 0 29 -14.5t6 -46.5q0 -96 -51 -97h-189l-100 -360q-8 -25 -26.5 -35t-67.5 -10h-8q-29 0 -41.5 8t-12.5 27q0 8 19 69q57 195 86 301h-242l-102 -360q-6 -25 -25.5 -35t-69.5 -10h-8q-29 0 -41 8t-12 27q0 8 18 69 q57 195 86 301h-155q-23 0 -29 13.5t-6 48.5zM391 559h242l86 301h-242z" />
<glyph unicode="$" horiz-adv-x="1015" d="M70 115q0 133 32 133q4 0 48.5 -27.5t112 -51.5t153.5 -26l55 521q-113 45 -178.5 81.5t-112.5 103t-47 171.5q0 174 114.5 287.5t305.5 134.5l8 63q4 23 13.5 32t31.5 9h4q33 0 33 -41l-6 -59q100 -2 204.5 -38t104.5 -85q0 -20 -31.5 -65.5t-46.5 -45.5q-8 0 -20 6.5 t-21 10.5q-45 27 -92 43t-114 18l-52 -465q109 -41 179.5 -82t120 -113.5t49.5 -183.5q0 -195 -120 -316.5t-317 -137.5l-8 -90q-2 -41 -45 -41h-2q-20 0 -27.5 9t-7.5 32l8 86q-115 4 -222 34.5t-107 92.5zM317 1040q0 -66 44.5 -106.5t130.5 -77.5l45 428 q-99 -18 -159.5 -79.5t-60.5 -164.5zM498 150q102 18 167.5 90.5t65.5 177.5q0 76 -47 124t-135 89z" />
<glyph unicode="%" horiz-adv-x="1566" d="M160 1044q0 223 95 312.5t224 89.5q107 0 178.5 -60.5t71.5 -209.5q0 -170 -79 -283t-240 -113q-106 0 -178 58.5t-72 205.5zM260 12q0 12 8 23l899 1364q27 39 64 39h51q27 -1 27 -19q0 -10 -9 -20l-899 -1364q-27 -39 -63 -39h-51q-27 0 -27 16zM295 1042 q0 -68 27.5 -108.5t97.5 -40.5q96 0 137 85t41 200q0 158 -131 157q-172 0 -172 -293zM836 252q0 223 95 312t224 89q107 0 178.5 -60.5t71.5 -209.5q0 -170 -79 -282.5t-241 -112.5q-106 0 -177.5 58t-71.5 206zM971 250q0 -68 27.5 -109t97.5 -41q96 0 137 85t41 200 q0 158 -131 158q-172 0 -172 -293z" />
<glyph unicode="&#x26;" horiz-adv-x="1277" d="M66 358q0 117 45 209t114.5 149.5t141.5 76.5l2 8q-82 33 -132.5 101.5t-50.5 162.5q0 123 60.5 209t164 129t228.5 43q162 0 162 -55q0 -25 -19.5 -65t-36.5 -40q-10 0 -39.5 6t-78.5 6q-154 0 -212.5 -77.5t-58.5 -159.5q0 -88 62.5 -156.5t189.5 -68.5h240l24 215 q2 25 22.5 35t61.5 10h9q43 0 60 -11.5t17 -33.5l-22 -215h174q18 0 25.5 -8.5t7.5 -30.5q0 -10 -8.5 -37t-29 -49.5t-54.5 -22.5h-131q-6 -61 -24.5 -235t-18.5 -201q0 -66 26.5 -91.5t71.5 -25.5q43 0 63.5 7.5t28.5 7.5q14 0 14 -19q0 -55 -6 -74q-10 -31 -47 -50 t-96 -19q-141 0 -197 86q-150 -86 -338 -86q-104 0 -198.5 37.5t-155.5 120.5t-61 212zM246 377q0 -129 81 -185.5t187 -56.5q70 0 143.5 21.5t128.5 54.5q0 39 18.5 225.5t26.5 251.5h-247q-156 0 -247 -70.5t-91 -240.5z" />
<glyph unicode="'" horiz-adv-x="374" d="M123 991v402q0 45 86 45h20q33 0 54.5 -8.5t21.5 -36.5q0 -6 -43 -199l-45 -203q-6 -25 -49 -24h-2q-43 0 -43 24z" />
<glyph unicode="(" horiz-adv-x="616" d="M102 401q0 242 62.5 468.5t174.5 409.5t255 304q20 20 45 21q18 0 36.5 -14.5t18.5 -33.5q0 -23 -22 -49q-184 -193 -294 -489.5t-110 -624.5q0 -217 54.5 -405.5t152.5 -323.5q14 -16 14 -35q0 -16 -19 -39.5t-44 -23.5q-20 0 -43 22q-133 135 -207 347t-74 466z" />
<glyph unicode=")" horiz-adv-x="616" d="M-82 -381q0 14 19 33q199 207 304 514t105 610q0 217 -54 405.5t-153 325.5q-14 16 -14 35q0 16 19.5 40t43.5 24q20 0 43 -23q133 -135 207 -347t74 -466q0 -242 -62.5 -468t-174 -409.5t-255.5 -304.5q-20 -20 -43 -20q-20 0 -39.5 16.5t-19.5 34.5z" />
<glyph unicode="*" horiz-adv-x="763" d="M78 1210q0 23 13 38.5t28 15.5q12 0 18 -2l197 -66l22 215q2 41 45 41q21 0 29 -9t8 -32l-22 -215l209 66q6 2 18 2t22.5 -11.5t10.5 -31.5q0 -29 -33 -37l-209 -66l125 -203q8 -16 8 -22q0 -14 -17.5 -29.5t-31.5 -15.5q-18 0 -29 18l-127 207l-172 -207 q-18 -18 -32 -18q-12 0 -26.5 12t-14.5 25q0 16 12 30l168 203l-195 66q-25 10 -24 26z" />
<glyph unicode="+" horiz-adv-x="1146" d="M96 465q0 76 49 76h367l39 366q2 23 16.5 32t48.5 9h15q31 0 44 -9t13 -32l-39 -366h365q23 0 29 -14.5t6 -47.5q0 -76 -50 -76h-364l-39 -366q-6 -41 -66 -41h-14q-33 0 -45 9t-12 32l39 366h-367q-23 0 -29 14.5t-6 47.5z" />
<glyph unicode="," horiz-adv-x="405" d="M2 -209q0 10 7 22.5t9 14.5q51 78 76 151.5t35 176.5q4 31 25.5 48t62.5 17h19q75 0 75 -57q-12 -115 -57 -206t-101.5 -143.5t-93.5 -52.5q-23 0 -40 7.5t-17 21.5z" />
<glyph unicode="-" d="M82 524q0 92 51 92h397q21 0 28 -14t7 -41q0 -92 -51 -92h-397q-20 0 -27.5 14.5t-7.5 40.5z" />
<glyph unicode="." horiz-adv-x="405" d="M96 41l15 135q4 45 86 45h34q43 0 60.5 -11t17.5 -34l-14 -135q-6 -45 -86 -45h-35q-43 0 -60.5 11t-17.5 34z" />
<glyph unicode="/" horiz-adv-x="757" d="M-113 -141q0 8 7 20l808 1518q12 20 25.5 30.5t34.5 10.5h49q29 -1 29 -21q0 -8 -6 -20l-811 -1518q-23 -41 -60 -41h-47q-29 0 -29 21z" />
<glyph unicode="0" horiz-adv-x="1095" d="M70 551q0 297 79.5 498.5t205.5 299t266 97.5q112 0 203 -61.5t144.5 -190.5t53.5 -320q0 -295 -81 -494.5t-208 -295.5t-266 -96q-113 0 -203 61.5t-142 187t-52 314.5zM244 553q0 -215 67.5 -316.5t171.5 -101.5q84 0 168 75t140.5 240.5t56.5 419.5q0 219 -69.5 323.5 t-174.5 104.5q-86 0 -168 -75.5t-137 -243.5t-55 -426z" />
<glyph unicode="1" horiz-adv-x="1095" d="M16 55q0 92 52 92h356l117 1104l-369 -61q-16 0 -24.5 24.5t-8.5 57.5q0 31 8.5 43t34.5 18l486 105q24 0 41.5 -12.5t17.5 -30.5l-131 -1248h305q20 0 27.5 -14t7.5 -41q0 -92 -51 -92h-834q-20 0 -27.5 14.5t-7.5 40.5z" />
<glyph unicode="2" horiz-adv-x="1095" d="M45 106q0 14 4 19l633 700q137 152 137 287q0 86 -62.5 136t-172.5 50q-86 0 -147.5 -23.5t-121.5 -57.5q-41 -23 -49 -23q-14 0 -34.5 37t-20.5 61q0 41 66.5 77t158.5 56.5t160 20.5q186 0 293.5 -84t107.5 -223q0 -109 -37.5 -195t-128.5 -186l-552 -611h589 q20 0 27.5 -14t7.5 -41q0 -92 -51 -92h-766q-14 0 -27.5 38t-13.5 68z" />
<glyph unicode="3" horiz-adv-x="1095" d="M82 90q0 74 8 97.5t23 23.5q8 -2 87 -39t226 -37q125 0 225.5 77t100.5 255q0 121 -73 171t-208 50h-70q-20 0 -27 14.5t-7 40.5q0 90 51 91h59q104 0 172 49t98.5 116.5t30.5 122.5q0 72 -50 124t-173 52q-86 0 -144.5 -15t-111.5 -38q-37 -14 -45 -14q-16 0 -36.5 39 t-20.5 65q0 29 65.5 54.5t156.5 41t156 15.5q175 0 276 -79t101 -232q0 -123 -67.5 -209t-173.5 -125l-2 -8q92 -25 156.5 -111t64.5 -215q0 -166 -79 -273.5t-194.5 -156.5t-230.5 -49q-96 0 -220 22.5t-124 79.5z" />
<glyph unicode="4" horiz-adv-x="1095" d="M8 434q0 29 6 35l772 940q25 29 72 29h33q33 0 45 -11.5t12 -33.5l-94 -904h139q20 0 27.5 -14t7.5 -41q0 -92 -51 -92h-139l-31 -301q-2 -20 -19.5 -32.5t-46.5 -12.5h-47q-33 0 -45 10t-12 35l31 301h-623q-14 0 -25.5 30.5t-11.5 61.5zM215 489h469l68 652l-9 4z" />
<glyph unicode="5" horiz-adv-x="1095" d="M86 90q0 74 8 97.5t23 23.5q8 -2 86 -39t213 -37q86 0 167 38t132 115t51 187q0 119 -87 180.5t-253 61.5h-174q-29 0 -41 11t-12 34l98 610q8 61 74 62h547q20 0 27 -14.5t7 -41.5q0 -92 -51 -92h-446l-72 -422h106q184 0 318.5 -88t134.5 -282q0 -188 -82 -301 t-203.5 -159t-255.5 -46q-90 0 -202.5 22.5t-112.5 79.5z" />
<glyph unicode="6" horiz-adv-x="1095" d="M76 403q0 299 150.5 533.5t341 368t278.5 133.5q26 0 40.5 -36t14.5 -69q0 -18 -18 -26q-211 -84 -352.5 -224.5t-211.5 -320.5q123 68 283 67q154 0 252 -98t98 -262q0 -141 -66.5 -250.5t-178 -169t-244.5 -59.5q-193 0 -290 107.5t-97 305.5zM248 414 q0 -154 68.5 -215.5t172.5 -61.5q66 0 132.5 35t111.5 104.5t45 172.5q0 119 -68.5 176t-172.5 57q-134 0 -265 -70q-12 -59 -18 -102t-6 -96z" />
<glyph unicode="7" horiz-adv-x="1095" d="M127 27q0 12 10 30l721 1229h-647q-20 0 -27.5 14.5t-7.5 40.5q0 92 51 93h809q11 0 21 -31t10 -62q0 -18 -6 -34l-742 -1278q-20 -33 -83 -33h-25q-43 0 -63.5 6t-20.5 25z" />
<glyph unicode="8" horiz-adv-x="1095" d="M68 350q0 150 68.5 263.5t201.5 164.5q-63 41 -101 107.5t-38 158.5q0 127 58 218.5t155.5 137.5t214.5 46q157 0 257.5 -81t100.5 -228q0 -135 -65.5 -223.5t-167.5 -133.5q100 -47 154.5 -114.5t54.5 -192.5q0 -160 -68 -269.5t-179.5 -162.5t-244.5 -53 q-180 0 -290.5 92t-110.5 270zM246 371q0 -113 67.5 -174.5t171.5 -61.5q78 0 145.5 36t110.5 106.5t43 171.5q0 72 -33.5 116.5t-83 70.5t-135.5 56l-63 25q-111 -62 -167 -143.5t-56 -202.5zM371 1059q0 -66 30.5 -107t78.5 -65.5t128 -50.5q94 53 149.5 121.5t55.5 162.5 q0 90 -56.5 134t-146.5 44q-104 0 -171.5 -60t-67.5 -179z" />
<glyph unicode="9" horiz-adv-x="1095" d="M141 967q0 141 66.5 250.5t178.5 169t245 59.5q192 0 289.5 -107.5t97.5 -306.5q0 -299 -150.5 -533.5t-341 -367.5t-278.5 -133q-27 0 -41 36t-14 68q0 18 18 27q211 84 352.5 224.5t210.5 320.5q-123 -68 -282 -68q-154 0 -252.5 98.5t-98.5 262.5zM315 987 q0 -119 69 -176t173 -57q133 0 264 69q12 59 18.5 102.5t6.5 96.5q0 154 -68.5 215t-173.5 61q-65 0 -131.5 -34.5t-112 -104t-45.5 -172.5z" />
<glyph unicode=":" horiz-adv-x="405" d="M51 41l15 135q4 45 86 45h34q43 0 60.5 -11t17.5 -34l-14 -135q-6 -45 -86 -45h-35q-43 0 -60.5 11t-17.5 34zM141 895l15 135q4 45 86 45h34q43 0 60.5 -11t17.5 -34l-14 -135q-6 -45 -86 -45h-35q-43 0 -60.5 11t-17.5 34z" />
<glyph unicode=";" horiz-adv-x="405" d="M-31 -209q0 10 7.5 22.5t9.5 14.5q51 78 75.5 151.5t34.5 176.5q4 31 25.5 48t62.5 17h19q76 0 76 -57q-12 -115 -57.5 -206t-102 -143.5t-92.5 -52.5q-23 0 -40.5 7.5t-17.5 21.5zM154 895l14 135q4 45 86 45h35q43 0 60.5 -11t17.5 -34l-15 -135q-6 -45 -86 -45h-35 q-43 0 -60 11t-17 34z" />
<glyph unicode="&#x3c;" horiz-adv-x="1146" d="M82 440q0 53 16.5 78t44.5 37l879 356q18 6 33 7q37 -1 37 -54q0 -47 -15.5 -68.5t-44.5 -31.5l-760 -297l697 -299q41 -18 41 -72q0 -39 -14.5 -60.5t-37.5 -21.5q-16 0 -28 6l-805 357q-23 10 -33 25.5t-10 37.5z" />
<glyph unicode="=" horiz-adv-x="1146" d="M76 281q0 78 51 77h877q20 0 27 -11t7 -38q0 -88 -51 -88h-876q-35 0 -35 60zM111 614q0 78 51 78h876q21 0 28 -11t7 -38q0 -88 -51 -88h-877q-35 0 -34 59z" />
<glyph unicode="&#x3e;" horiz-adv-x="1146" d="M51 66q0 47 15.5 68.5t44.5 31.5l759 297l-696 299q-41 18 -41 72q0 39 14.5 60t36.5 21q17 0 29 -6l805 -356q23 -10 33 -25.5t10 -38.5q0 -53 -16.5 -77.5t-45.5 -36.5l-878 -357q-18 -6 -33 -6q-37 0 -37 54z" />
<glyph unicode="?" horiz-adv-x="911" d="M162 1325q0 51 118.5 86t245.5 35q183 0 284 -87t101 -220q0 -78 -34.5 -146.5t-84 -122t-133.5 -129.5q-96 -84 -150 -148.5t-73 -137.5q-4 -20 -20.5 -30.5t-50.5 -10.5h-31q-57 0 -58 43q0 66 58.5 155.5t152.5 173.5q84 76 128 121t72 96.5t28 108.5q0 182 -238 182 q-57 0 -107.5 -14t-103.5 -37q-41 -18 -51 -18q-14 0 -33.5 37.5t-19.5 62.5zM213 41l14 135q4 45 86 45h35q43 0 60.5 -11t17.5 -34l-14 -135q-6 -45 -88 -45h-35q-43 0 -59.5 11t-16.5 34z" />
<glyph unicode="@" horiz-adv-x="1994" d="M172 485q0 266 122 485.5t333 346.5t467 127q204 0 358 -83t239 -233.5t85 -349.5q0 -184 -55.5 -337.5t-153 -241.5t-221.5 -88q-92 0 -145.5 49t-57.5 121v14q-51 -94 -123 -139t-154 -45q-70 0 -136 33.5t-113.5 116.5t-47.5 222q0 160 53.5 285t151.5 195.5t227 70.5 q76 0 133.5 -29.5t94.5 -66.5q6 16 15 43t20.5 37t35.5 10h13q45 0 45 -43q-10 -98 -39 -373.5t-29 -306.5q0 -86 82 -86q74 0 142.5 78t109.5 207t41 274q0 172 -71.5 302t-200.5 202t-299 72q-223 0 -409.5 -116t-294 -314.5t-107.5 -438.5q0 -193 69.5 -341t196.5 -230 t291 -82q88 0 151.5 15.5t122.5 39.5q8 2 20.5 7.5t18.5 5.5q8 0 8 -13q0 -4 -1 -18t-5 -29q-12 -47 -106.5 -72.5t-208.5 -25.5q-197 0 -348.5 93t-235.5 262t-84 388zM719 494q0 -137 49 -197.5t131 -60.5q70 0 141.5 67.5t122.5 220.5q2 19 14.5 146t24.5 168 q-84 70 -188 69q-162 0 -228.5 -116.5t-66.5 -296.5z" />
<glyph unicode="A" horiz-adv-x="1255" d="M-47 29q0 10 10 30l625 1346q14 33 84 33h59q72 0 80 -33l344 -1348q2 -8 2 -20q0 -41 -90 -41h-16q-72 0 -80 33l-86 336h-602l-152 -336q-14 -33 -84 -33h-10q-84 0 -84 33zM356 520h490l-150 610q-12 47 -12 119h-4q-25 -76 -43 -119z" />
<glyph unicode="B" horiz-adv-x="1214" d="M104 49l138 1323q2 33 18 47.5t49 14.5h377q209 0 319.5 -86t110.5 -234q0 -76 -37 -150.5t-98 -130t-131 -73.5l-2 -8q0 1 2 1q8 0 70 -29q72 -34 130 -101.5t58 -173.5q0 -225 -157.5 -337t-428.5 -112h-362q-29 0 -42.5 11.5t-13.5 37.5zM295 156h309 q143 0 230.5 79.5t87.5 215.5q0 100 -77 154t-222 54h-275zM365 815h247q90 0 162 37t113 100.5t41 137.5q0 96 -67.5 142t-209.5 46h-239z" />
<glyph unicode="C" horiz-adv-x="1267" d="M78 561q0 391 176 638t580 247q94 0 181 -19.5t140 -49t53 -56.5q0 -25 -31.5 -73t-50.5 -48q-6 0 -53 25.5t-115.5 45t-154.5 19.5q-281 0 -411 -191.5t-130 -512.5q0 -227 103.5 -335t318.5 -108q113 0 196 26t131 49.5t52 23.5q14 0 14 -23q0 -16 -4 -52t-10 -61 q-12 -55 -134 -86.5t-261 -31.5q-301 0 -445.5 140t-144.5 433z" />
<glyph unicode="D" horiz-adv-x="1423" d="M102 49q0 4 68 660l70 663q2 33 18 47.5t49 14.5h441q260 0 414.5 -140.5t154.5 -443.5q0 -301 -99.5 -491.5t-261 -274.5t-358.5 -84h-440q-29 0 -42.5 11.5t-13.5 37.5zM293 156h307q141 0 262 67.5t194.5 217t73.5 380.5q0 242 -111.5 349.5t-301.5 107.5h-307z" />
<glyph unicode="E" horiz-adv-x="1118" d="M92 49l137 1323q2 33 18.5 47.5t49.5 14.5h723q35 0 35 -45q0 -51 -9.5 -81t-41.5 -30h-605l-49 -467h541q35 0 35 -45q0 -51 -9.5 -81t-42.5 -30h-540l-51 -499h606q35 0 35 -45q0 -51 -9.5 -81t-42.5 -30h-725q-29 0 -42 11.5t-13 37.5z" />
<glyph unicode="F" horiz-adv-x="1030" d="M100 41l140 1331q2 33 18 47.5t49 14.5h649q35 0 35 -45q0 -51 -9 -81t-42 -30h-530l-50 -467h514q35 0 35 -45q0 -51 -9 -81t-42 -30h-514l-63 -614q-4 -23 -26 -34t-60 -11h-17q-43 0 -60.5 11t-17.5 34z" />
<glyph unicode="G" horiz-adv-x="1376" d="M106 563q0 442 199 662.5t551 220.5q94 0 182 -19.5t141.5 -49t53.5 -56.5q0 -25 -32 -73t-50 -48q-6 0 -50 24.5t-112.5 45t-161.5 20.5q-264 0 -398 -183t-134 -517q0 -446 405 -447q76 0 150 7.5t117 19.5l45 414h-242q-35 0 -35 45q0 51 9.5 80.5t41.5 29.5h361 q55 0 55 -49q0 -6 -28 -289l-29 -266q-8 -80 -140.5 -113.5t-332.5 -33.5q-565 0 -566 575z" />
<glyph unicode="H" horiz-adv-x="1501" d="M127 41l141 1352q4 45 86 45h17q43 0 60.5 -11.5t17.5 -33.5l-62 -580h741l62 580q4 45 86 45h16q43 0 60.5 -11.5t17.5 -33.5l-141 -1352q-6 -45 -86 -45h-17q-43 0 -60 11t-17 34l63 616h-741l-64 -616q-6 -45 -86 -45h-16q-43 0 -60.5 11t-17.5 34z" />
<glyph unicode="I" horiz-adv-x="577" d="M127 41l141 1352q4 45 86 45h17q43 0 60.5 -11.5t17.5 -33.5l-142 -1352q-6 -45 -86 -45h-16q-43 0 -60.5 11t-17.5 34z" />
<glyph unicode="J" horiz-adv-x="823" d="M-23 53q0 121 31 121q10 0 45 -9t90 -9q141 0 212 61.5t85 194.5l105 981q4 45 86 45h16q43 0 60.5 -11.5t17.5 -33.5l-102 -973q-20 -203 -134 -317.5t-331 -114.5q-78 0 -129.5 15t-51.5 50z" />
<glyph unicode="K" horiz-adv-x="1179" d="M90 41l141 1352q4 45 86 45h17q43 0 60.5 -11.5t17.5 -33.5l-66 -627h8l568 643q27 29 112 29h21q32 0 50.5 -7.5t18.5 -17.5q0 -18 -24 -43l-570 -633l535 -680q14 -18 14 -32q-2 -16 -22.5 -22.5t-69.5 -6.5h-14q-47 0 -73 5t-38 22l-516 659h-8l-68 -641 q-4 -23 -25.5 -34t-60.5 -11h-16q-43 0 -60.5 11t-17.5 34z" />
<glyph unicode="L" horiz-adv-x="991" d="M102 61l140 1332q4 45 86 45h16q43 0 60.5 -11.5t17.5 -33.5l-129 -1237h596q35 0 35 -45q0 -51 -9.5 -81t-42.5 -30h-714q-33 0 -44.5 14.5t-11.5 46.5z" />
<glyph unicode="M" horiz-adv-x="1726" d="M111 41l141 1352q4 45 86 45h74q68 0 84 -37l315 -672l41 -129l66 117l458 684q23 37 88 37h68q43 0 60.5 -11.5t17.5 -33.5l-142 -1352q-6 -45 -86 -45h-14q-43 0 -60.5 11t-17.5 34l115 1102l-6 -8l-479 -709q-18 -27 -50 -27h-82q-29 0 -40 27l-336 717l-6 12 l-117 -1114q-6 -45 -86 -45h-15q-43 0 -60 11t-17 34z" />
<glyph unicode="N" horiz-adv-x="1472" d="M106 41l142 1352q4 45 86 45h43q33 0 51 -8.5t31 -30.5l563 -987l49 -115l115 1096q4 45 86 45h14q43 0 60.5 -11.5t17.5 -33.5l-141 -1352q-6 -45 -86 -45h-41q-53 0 -70 29l-582 1019l-43 105l-116 -1108q-6 -45 -86 -45h-15q-43 0 -60.5 11t-17.5 34z" />
<glyph unicode="O" horiz-adv-x="1497" d="M109 578q0 233 69.5 428.5t229 317.5t415.5 122q277 0 421.5 -148.5t144.5 -437.5q0 -281 -88.5 -476.5t-249 -295.5t-381.5 -100q-274 0 -417.5 149.5t-143.5 440.5zM295 596q0 -223 99.5 -338t291.5 -115q156 0 271.5 81t179 237.5t63.5 378.5q0 223 -100.5 336.5 t-292.5 113.5q-238 0 -375 -178t-137 -516z" />
<glyph unicode="P" horiz-adv-x="1167" d="M102 41l140 1331q2 33 18 47.5t49 14.5h416q166 0 293 -74t127 -268q0 -195 -90 -302.5t-201 -143.5t-195 -36h-317l-59 -569q-6 -45 -86 -45h-17q-43 0 -60.5 11t-17.5 34zM358 766h320q53 0 116.5 25.5t112.5 92t49 183.5t-74.5 164t-179.5 47h-290z" />
<glyph unicode="Q" horiz-adv-x="1497" d="M210 1047.5q87 197.5 247.5 298t382.5 100.5q276 0 419.5 -150.5t143.5 -441.5q0 -346 -132 -565t-362 -279v-8l398 -129q14 -6 19 -14.5t5 -26.5q0 -90 -11 -122t-32 -32q-27 0 -702 277l-142 57q-321 125 -321 554q0 284 87 481.5zM311 594q0 -221 101.5 -339 t289.5 -118q154 0 269.5 81t179 235.5t63.5 373.5q0 225 -100 344t-291 119q-151 0 -267 -81t-180.5 -238.5t-64.5 -376.5z" />
<glyph unicode="R" horiz-adv-x="1249" d="M102 41l140 1331q2 33 18 47.5t49 14.5h344q228 0 343.5 -75t115.5 -237q0 -147 -73.5 -247.5t-200.5 -149.5v-8q53 -20 86.5 -81t68.5 -175l119 -404q4 -16 4 -22q0 -39 -90 -39h-20q-72 0 -80 33l-113 401q-33 117 -96.5 159t-188.5 42h-184l-61 -590q-4 -23 -25.5 -34 t-60.5 -11h-17q-43 0 -60.5 11t-17.5 34zM360 786h271q80 0 146.5 40t105.5 106.5t39 142.5q0 102 -68 152.5t-186 50.5h-256z" />
<glyph unicode="S" horiz-adv-x="1024" d="M74 152q0 31 9 63.5t30 32.5q10 0 28.5 -11.5t24.5 -15.5q57 -35 126.5 -56.5t145.5 -21.5q133 0 215 66.5t82 171.5q0 68 -35.5 116t-85 75.5t-131.5 64.5q-102 45 -172.5 89t-122 121t-51.5 189q0 123 63.5 216.5t172 143.5t241.5 50q80 0 158 -17.5t128 -45t50 -58.5 q0 -27 -28.5 -70t-51.5 -43q-8 0 -34 15q-47 27 -98.5 45t-123.5 18q-125 0 -208.5 -62.5t-83.5 -176.5q0 -70 31.5 -117t78.5 -78t125 -65q123 -55 192.5 -97.5t121 -115t51.5 -181.5q0 -113 -56.5 -205t-173.5 -148t-289 -56q-135 0 -232 37.5t-97 126.5z" />
<glyph unicode="T" horiz-adv-x="1124" d="M98 1323q0 51 9.5 81t42.5 30h966q35 0 35 -45q0 -51 -9 -81t-42 -30h-389l-129 -1237q-4 -23 -25.5 -34t-60.5 -11h-17q-43 0 -60.5 11t-17.5 34l129 1237h-397q-35 0 -35 45z" />
<glyph unicode="U" horiz-adv-x="1458" d="M131 395q0 20 102 998q4 45 89 45h16q43 0 59.5 -11.5t16.5 -33.5q-100 -950 -101 -971q0 -127 90.5 -203t258.5 -76q109 0 199.5 40t147 111t64.5 159l98 940q4 45 89 45h16q43 0 59.5 -11.5t16.5 -33.5l-99 -934q-23 -223 -181.5 -347t-426.5 -124q-250 0 -382 106.5 t-132 300.5z" />
<glyph unicode="V" horiz-adv-x="1263" d="M113 1395q0 43 92 43h18q72 0 80 -33l264 -1094l11 -106h6l32 108l494 1092q14 33 84 33h12q86 0 86 -33q0 -10 -10 -31l-610 -1345q-14 -33 -84 -33h-64q-72 0 -80 33l-200 825z" />
<glyph unicode="W" horiz-adv-x="1806" d="M100 1397q0 25 25 33t68 8h18q74 0 80 -33l155 -1008q6 -35 10.5 -100.5t6.5 -89.5l72 201l352 995q6 20 24.5 27.5t57.5 7.5h32q72 0 78 -35l148 -1008q6 -45 10 -107.5t4 -80.5l72 205l352 993q10 33 84 33h12q86 0 86 -33q0 -8 -506 -1376q-10 -33 -84 -33h-83 q-74 0 -80 33l-136 833l-14 266l-72 -266l-309 -833q-14 -33 -84 -33h-84q-74 0 -80 33z" />
<glyph unicode="X" horiz-adv-x="1251" d="M-35 29q0 14 21 39l528 680l-344 618q-12 18 -12 33q0 20 21.5 29.5t74.5 9.5h29q35 0 55 -6.5t31 -24.5l276 -494l389 496q20 29 90 29h13q49 0 70.5 -8.5t21.5 -24.5q0 -10 -21 -39l-473 -608l387 -690q12 -25 13 -33q0 -20 -21.5 -29.5t-75.5 -9.5h-32q-35 0 -55.5 6 t-30.5 25l-318 563l-440 -565q-20 -29 -90 -29h-17q-90 0 -90 33z" />
<glyph unicode="Y" horiz-adv-x="1144" d="M109 1399q0 20 21.5 29.5t74.5 9.5h22q35 0 55.5 -6.5t30.5 -24.5l283 -504l397 506q20 29 94 29h19q74 -2 74 -33q0 -10 -21 -39l-497 -637l-72 -688q-6 -45 -86 -45h-17q-43 0 -60 11t-17 34l71 694l-360 631q-12 18 -12 33z" />
<glyph unicode="Z" horiz-adv-x="1261" d="M12 98q0 25 11 35l958 1145h-739q-35 0 -35 45q0 51 9 81t42 30h940q10 0 22.5 -34t12.5 -65q0 -25 -10 -35l-959 -1144h803q35 0 35 -45q0 -51 -9.5 -81t-41.5 -30h-1000q-14 0 -26.5 34t-12.5 64z" />
<glyph unicode="[" horiz-adv-x="595" d="M92 -221q0 27 127 1212l55 520q2 33 18.5 47.5t49.5 14.5h248q37 0 37 -41q0 -86 -49 -86h-160l-168 -1602h158q37 0 36 -41q0 -86 -49 -86h-248q-33 0 -44 14.5t-11 47.5z" />
<glyph unicode="\" horiz-adv-x="739" d="M72 1413q0 12 8 19.5t24 7.5h52q41 0 53 -43l457 -1399q2 -6 2 -16q0 -27 -31 -27h-51q-41 0 -54 43l-456 1399z" />
<glyph unicode="]" horiz-adv-x="595" d="M-35 -242q0 86 49 86h160l168 1602h-158q-37 0 -37 41q0 86 50 86h247q33 0 44.5 -14.5t11.5 -47.5q0 -18 -172 -1638l-11 -94q-2 -33 -18 -47.5t-49 -14.5h-248q-37 0 -37 41z" />
<glyph unicode="^" horiz-adv-x="921" d="M74 690q0 18 8 37l324 633q12 23 28.5 32t44.5 9h41q27 0 42.5 -8.5t23.5 -32.5l188 -633q4 -10 4 -29q-4 -20 -19.5 -31.5t-41.5 -11.5h-8q-27 0 -42.5 11.5t-23.5 35.5l-162 535l-274 -535q-27 -47 -76 -47h-8q-49 0 -49 35z" />
<glyph unicode="_" horiz-adv-x="1093" d="M-43 -242q0 33 12.5 45.5t34.5 12.5h1096q20 0 28.5 -9.5t8.5 -31.5q0 -33 -12.5 -45.5t-34.5 -12.5h-1096q-20 0 -28.5 9.5t-8.5 31.5z" />
<glyph unicode="`" d="M143 1475q2 14 26 19t73 5t79.5 -12t47.5 -41q72 -125 95 -170t23 -59q0 -18 -47 -19q-33 0 -61.5 9.5t-42.5 27.5l-72 80q-84 96 -102.5 120.5t-18.5 39.5z" />
<glyph unicode="a" horiz-adv-x="1116" d="M82 430q0 190 62.5 339t176 231.5t263.5 82.5q143 0 260 -110q18 55 35.5 78.5t56.5 23.5h12q29 0 40 -10t12 -33q-12 -119 -47 -448.5t-35 -364.5q0 -55 19 -69.5t54 -14.5q14 0 30.5 5t25.5 5q12 0 12 -14q0 -31 -8 -76q-6 -35 -46 -51t-77 -16q-184 0 -185 200v21 q-59 -115 -142 -168t-177 -53q-78 0 -156 40t-132 138t-54 264zM260 442q0 -164 55.5 -234.5t147.5 -70.5q82 0 166 81t141 265q8 98 16.5 172t10.5 97q4 36 16 102q-100 80 -213 80q-186 0 -263 -138.5t-77 -353.5z" />
<glyph unicode="b" horiz-adv-x="1165" d="M78 41l153 1454q2 25 23.5 35t62.5 10h9q43 0 60 -11t17 -34l-65 -625q61 109 145 161t181 52q88 0 175 -37.5t147.5 -135t60.5 -263.5q0 -190 -68 -339.5t-190.5 -234.5t-284.5 -85q-88 0 -158 33.5t-115 76.5q-29 -102 -86 -102h-16q-29 0 -40 11t-11 34zM264 217 q94 -80 223 -80q209 0 295 140.5t86 357.5q0 164 -65.5 231.5t-177.5 67.5q-84 0 -170 -79t-146 -261l-28 -275q-4 -45 -17 -102z" />
<glyph unicode="c" horiz-adv-x="993" d="M96 418q0 291 132 478t409 187q88 0 152.5 -17t99.5 -42t35 -47q0 -23 -28 -63t-52 -40q-4 0 -19.5 9.5t-25.5 15.5q-74 37 -183 37q-156 0 -249 -122t-93 -384q0 -154 67 -224.5t212 -70.5q115 0 225 45q45 18 49 19q6 0 9.5 -4.5t3.5 -20.5q0 -41 -11 -92 q-10 -53 -107 -73.5t-183 -20.5q-221 0 -332 102.5t-111 327.5z" />
<glyph unicode="d" horiz-adv-x="1157" d="M84 430q0 188 63.5 338t180 232.5t270.5 82.5q168 0 279 -92l55 504q2 25 23.5 35t62.5 10h8q43 0 60.5 -11t17.5 -34q-20 -190 -75.5 -713.5t-55.5 -562.5q0 -55 19.5 -69.5t54.5 -14.5q14 0 30.5 5t24.5 5q12 0 12 -14q0 -31 -8 -76q-6 -35 -46 -51t-77 -16 q-184 0 -184 200v21q-61 -115 -146.5 -168t-183.5 -53q-88 0 -175 40t-148.5 138t-61.5 264zM264 442q0 -168 61.5 -236.5t182.5 -68.5q84 0 170 80t145 262l39 377q-98 78 -239 78q-195 0 -277 -139.5t-82 -352.5z" />
<glyph unicode="e" horiz-adv-x="1103" d="M94 412q0 297 139.5 484t423.5 187q121 0 198 -44t111.5 -106.5t34.5 -121.5q0 -197 -157.5 -286t-394.5 -89q-101 1 -177 15v-21q0 -162 77 -228.5t222 -66.5q86 0 149.5 22.5t125.5 57.5q35 20 43 21q8 0 11 -4.5t3 -20.5q0 -39 -10 -92q-8 -45 -69.5 -74t-137.5 -43 t-129 -14q-463 0 -463 424zM283 584h145q129 0 262 39t133 172q0 59 -50 100t-134 41q-307 0 -356 -352z" />
<glyph unicode="f" horiz-adv-x="665" d="M123 979q0 92 51 92h82l20 207q27 270 293 270q146 0 146 -63q0 -20 -18.5 -59.5t-34.5 -39.5q-4 0 -26 7.5t-67 7.5q-53 0 -83.5 -29t-39.5 -115l-18 -186h178q18 0 25.5 -8t7.5 -31q0 -10 -8 -36.5t-28.5 -49t-55.5 -22.5h-135l-93 -883q-6 -45 -86 -45h-8 q-43 0 -60.5 11t-17.5 34l93 883h-82q-20 0 -27.5 14t-7.5 41z" />
<glyph unicode="g" horiz-adv-x="1118" d="M84 -289q0 113 29 113q6 0 50 -31t111.5 -55.5t161.5 -24.5q152 0 232 119t100 389q-61 -115 -146 -168t-184 -53q-80 0 -160.5 39t-136 135t-55.5 256q0 190 63.5 339t179 231.5t269.5 82.5q150 0 270 -110q18 55 36 78.5t57 23.5h12q28 0 39.5 -10t11.5 -33l-88 -829 q-25 -242 -86.5 -381t-161.5 -197.5t-252 -58.5q-98 0 -179 22.5t-127 57.5t-46 65zM264 442q0 -156 58.5 -224t154.5 -68q84 0 171 81.5t147 268.5l26 252q5 36 17 102q-106 80 -224 80q-193 0 -271.5 -138.5t-78.5 -353.5z" />
<glyph unicode="h" horiz-adv-x="1157" d="M111 39l153 1456q2 25 23.5 35t62.5 10h8q43 0 60.5 -11t17.5 -34l-65 -610q146 198 356 198h2q141 0 205.5 -71.5t64.5 -194.5q-2 -33 -10 -107.5t-16 -166.5q-33 -291 -33 -324q0 -55 19.5 -69.5t54.5 -14.5q14 0 30.5 5t24.5 5q12 0 12 -14q0 -31 -8 -76 q-6 -35 -46 -51t-77 -16q-184 0 -184 200q0 45 35 359q22 198 22 227q0 160 -155 160q-84 0 -174.5 -75t-151.5 -251l-59 -567q-2 -20 -26 -32.5t-60 -12.5h-9q-78 0 -77 43z" />
<glyph unicode="i" horiz-adv-x="542" d="M129 182q0 57 40 452.5t44 395.5q2 25 23.5 35t62.5 10h8q43 0 60.5 -11t17.5 -34q-12 -119 -47 -445.5t-35 -365.5q0 -55 18.5 -69.5t53.5 -14.5q14 0 30.5 5t24.5 5q12 0 12 -14q0 -31 -8 -76q-6 -35 -46 -51t-77 -16q-182 0 -182 194zM242 1374l12 121q2 25 23.5 35 t62.5 10h25q43 0 60 -10t17 -35l-12 -121q0 -45 -78 -45h-24q-43 0 -64.5 9.5t-21.5 35.5z" />
<glyph unicode="j" horiz-adv-x="565" d="M-137 -350q0 98 22 98q6 0 36 -17.5t79 -17.5q53 0 84 33t39 119l123 1165q6 45 86 45h8q43 0 60.5 -11t17.5 -34l-125 -1182q-16 -160 -93 -221t-177 -61q-70 0 -115 23.5t-45 60.5zM274 1374l13 121q2 25 23.5 35t62.5 10h24q43 0 60.5 -10t17.5 -35l-12 -121 q0 -45 -78 -45h-25q-43 0 -64.5 9.5t-21.5 35.5z" />
<glyph unicode="k" horiz-adv-x="1067" d="M111 41l153 1454q4 45 86 45h8q43 0 60.5 -11t17.5 -34l-96 -915h8l459 467q26 28 105 28h6h8q33 0 51 -7t18 -17q0 -18 -24 -43l-447 -451l412 -500q14 -20 14 -28q0 -18 -19.5 -25.5t-72.5 -7.5h-8q-43 0 -69.5 5t-39.5 22l-401 485h-8l-49 -467q-6 -45 -86 -45h-9 q-43 0 -60 11t-17 34z" />
<glyph unicode="l" horiz-adv-x="608" d="M156 188q0 82 118 1172l15 135q2 25 23.5 35t62.5 10h8q43 0 60.5 -11t17.5 -34q-20 -190 -75.5 -713.5t-55.5 -562.5q0 -55 19.5 -69.5t53.5 -14.5q14 0 31 5t25 5q12 0 12 -14q0 -31 -8 -76q-6 -35 -46 -51t-77 -16q-184 0 -184 200z" />
<glyph unicode="m" horiz-adv-x="1736" d="M76 39q14 127 52 482.5t38 414.5q0 37 -1 50t-1 20q0 29 41 38t74 9q29 0 41 -42t12 -96v-38q66 104 154.5 155t187.5 51q127 0 191.5 -59t76.5 -162q66 111 158 166t192 55q141 0 206 -71.5t65 -194.5q-2 -33 -10.5 -107.5t-16.5 -166.5q-33 -291 -33 -324 q0 -55 19.5 -69.5t54.5 -14.5q14 0 30.5 5t24.5 5q13 0 13 -14q0 -31 -9 -76q-6 -35 -46 -51t-77 -16q-184 0 -184 200q0 45 35 359q22 198 22 227q0 160 -155 160q-78 0 -161 -71.5t-144 -237.5l-62 -584q-2 -23 -24.5 -34t-61.5 -11h-8q-78 0 -78 43q12 111 44 414t32 323 q0 158 -156 158q-78 0 -159.5 -69.5t-143.5 -235.5l-61 -588q-6 -45 -86 -45h-8q-78 0 -78 43z" />
<glyph unicode="n" horiz-adv-x="1140" d="M76 39q14 127 52 482.5t38 414.5q0 37 -1 50t-1 20q0 29 41 38t74 9q53 0 53 -138v-38q151 206 360 206h2q141 0 206 -71.5t65 -194.5q-2 -33 -10.5 -107.5t-16.5 -166.5q-33 -291 -33 -324q0 -55 19.5 -69.5t54.5 -14.5q14 0 30.5 5t24.5 5q13 0 13 -14q0 -31 -9 -76 q-6 -35 -46 -51t-77 -16q-184 0 -184 200q0 45 35 359q22 198 22 227q0 160 -155 160q-84 0 -175 -76t-151 -254q-20 -199 -36.5 -355.5t-22.5 -207.5q-6 -45 -86 -45h-8q-78 0 -78 43z" />
<glyph unicode="o" horiz-adv-x="1165" d="M92 428q0 178 57.5 326.5t178.5 238.5t305 90q201 0 306 -113.5t105 -330.5q0 -313 -140 -482t-388 -169q-209 0 -316.5 112.5t-107.5 327.5zM268 434q0 -152 63.5 -225.5t194.5 -73.5q164 0 252 128t88 372q0 154 -62.5 227.5t-193.5 73.5q-166 0 -254 -133t-88 -369z " />
<glyph unicode="p" horiz-adv-x="1173" d="M45 -383l121 1167q12 117 12 152q0 37 -1 50t-1 20q0 29 41 38t74 9q53 0 53 -154v-25q61 109 146 159t184 50q88 0 175 -38.5t147.5 -135t60.5 -258.5q0 -193 -63.5 -343t-180.5 -235t-270 -85q-90 0 -160 32.5t-117 75.5l-49 -477q-4 -23 -25.5 -34t-60.5 -11h-8 q-78 0 -78 43zM281 227q39 -35 99 -63.5t138 -28.5q199 0 280 142.5t81 361.5q0 295 -244 295q-84 0 -171 -80t-147 -260q-14 -123 -36 -367z" />
<glyph unicode="q" horiz-adv-x="1159" d="M92 430q0 190 67.5 339t190.5 231.5t285 82.5q88 0 157.5 -33.5t114.5 -76.5q29 102 86 102h17q28 0 39.5 -11t11.5 -34l-148 -1411q-2 -25 -23.5 -35t-62.5 -10h-8q-43 0 -60.5 11.5t-17.5 33.5l60 582q-61 -109 -145.5 -161t-180.5 -52q-88 0 -175 40t-147.5 138 t-60.5 264zM270 442q0 -305 244 -305q84 0 170 79t145 261l29 275q6 47 16 102q-94 80 -223 80q-209 0 -295 -138.5t-86 -353.5z" />
<glyph unicode="r" horiz-adv-x="749" d="M127 39l78 725q12 98 12 172q0 27 -1 43t-1 27q0 29 41 38t74 9q55 0 55 -103q0 -25 -4 -73q47 96 119.5 151t152.5 55q39 0 71 -17t32 -60q0 -37 -20.5 -76t-39.5 -39q-6 0 -25.5 11t-54.5 11q-80 0 -149.5 -86t-110.5 -237l-57 -549q-6 -45 -86 -45h-8q-78 0 -78 43z " />
<glyph unicode="s" horiz-adv-x="845" d="M35 109q0 27 20.5 66.5t32.5 39.5q6 0 31 -14q104 -66 211 -66q100 0 161.5 48t61.5 118q0 61 -44 100t-99.5 69t-73.5 40q-121 68 -174 131.5t-53 149.5t49 152.5t134 103t185 36.5q90 0 174 -24.5t84 -69.5q0 -27 -26.5 -64.5t-42.5 -37.5q-12 0 -29 10 q-35 18 -71 28.5t-87 10.5q-88 0 -139 -37t-51 -100q0 -57 41 -92t145 -93q137 -74 195.5 -144.5t58.5 -162.5q0 -88 -47 -160.5t-139 -115.5t-221 -43q-90 0 -156 20.5t-98.5 48t-32.5 52.5z" />
<glyph unicode="t" horiz-adv-x="700" d="M109 979q0 92 51 92h102l25 215q2 25 22.5 35t61.5 10h8q43 0 60.5 -11t17.5 -34l-23 -215h174q18 0 25.5 -8t7.5 -31q0 -10 -8 -36.5t-28.5 -49t-55.5 -22.5h-131q-10 -98 -40 -371.5t-30 -300.5q0 -66 26.5 -91.5t71.5 -25.5q43 0 63.5 7.5t29.5 7.5q14 0 14 -19 q0 -33 -10 -76q-8 -35 -48 -51t-92 -16q-92 0 -160.5 47t-68.5 178q0 39 29.5 323.5t42.5 387.5h-103q-20 0 -27 14t-7 41z" />
<glyph unicode="u" horiz-adv-x="1140" d="M117 254q0 16 32.5 337.5t45.5 438.5q2 25 23.5 35t62.5 10h8q43 0 60.5 -11t17.5 -34q-12 -111 -43 -414t-31 -321q0 -158 156 -158q86 0 177 80t150 268l58 545q2 25 23.5 35t62.5 10h8q43 0 60.5 -11t17.5 -34q-12 -119 -46 -445.5t-34 -365.5q0 -55 19.5 -69.5 t53.5 -14.5q14 0 31 5t25 5q12 0 12 -14q0 -31 -8 -76q-6 -35 -46 -51t-77 -16q-184 0 -184 200v21q-78 -115 -171.5 -168t-193.5 -53q-141 0 -205.5 71.5t-64.5 194.5z" />
<glyph unicode="v" horiz-adv-x="993" d="M82 1040q4 35 92 35h16q72 0 80 -33l121 -540l66 -289h10l33 82q45 119 84 207l235 540q6 16 32 24.5t52 8.5h2q84 0 84 -31q0 -14 -8 -32l-434 -983q-14 -33 -84 -33h-72q-72 0 -80 33l-225 989z" />
<glyph unicode="w" horiz-adv-x="1529" d="M104 1040q4 35 93 35h18q74 0 80 -33l129 -817l297 815q14 35 84 35h22q70 0 76 -35l131 -815l299 817q10 33 88 33q86 0 86 -31q0 -14 -8 -32l-379 -983q-14 -33 -84 -33h-67q-72 0 -78 33l-109 745l-272 -745q-10 -33 -84 -33h-68q-74 0 -79 33q-174 1004 -175 1011z " />
<glyph unicode="x" horiz-adv-x="993" d="M-14 27q0 14 18 41l383 481l-258 455q-14 20 -14 36q4 18 25.5 26.5t72.5 8.5h23q35 0 55 -6t31 -25l196 -339l273 342q19 28 85 28h5h8q90 0 90 -31q0 -16 -18 -40l-359 -451l281 -485q14 -20 14 -37q-4 -18 -25.5 -26.5t-72.5 -8.5h-23q-35 0 -55.5 6t-30.5 25 l-215 374l-301 -376q-23 -29 -90 -29h-8q-47 0 -68.5 7t-21.5 24z" />
<glyph unicode="y" horiz-adv-x="985" d="M84 1040q0 16 23.5 25.5t68.5 9.5h17q70 0 77 -33l158 -577l43 -162h4q31 76 72 162l274 577q16 33 88 33h6q78 0 78 -33q0 -12 -8 -30l-674 -1395q-20 -43 -100 -43h-31q-63 0 -63 31q0 10 14 37l215 415q-152 557 -207 765t-55 218z" />
<glyph unicode="z" horiz-adv-x="1001" d="M29 94q0 23 10 33l682 797h-524q-20 0 -27.5 14t-7.5 41q0 92 51 92h719q12 0 21.5 -32.5t9.5 -65.5q0 -20 -9 -29l-680 -797h564q20 0 27 -14t7 -41q0 -92 -51 -92h-758q-10 0 -22 31.5t-12 62.5z" />
<glyph unicode="{" horiz-adv-x="561" d="M39 621q0 53 10 72.5t51 35.5q66 27 92.5 88.5t38.5 175.5l37 342q14 131 67.5 184.5t117.5 53.5h102q37 0 37 -41q0 -86 -49 -86h-45q-41 0 -59.5 -31t-24.5 -94l-37 -360q-20 -201 -195 -318q39 -20 84 -85.5t45 -176.5q0 -37 -20 -209q-2 -29 -12.5 -117t-10.5 -133 q0 -39 13.5 -58.5t46.5 -19.5h45q37 0 37 -41q0 -86 -50 -86h-102q-51 0 -94 43t-43 146q0 45 26 284q18 162 19 201q0 66 -18.5 108t-65.5 62q-43 18 -43 60z" />
<glyph unicode="|" horiz-adv-x="512" d="M197 -242v1774q0 45 49 45h20q49 0 49 -45v-1774q0 -45 -49 -45h-20q-49 0 -49 45z" />
<glyph unicode="}" horiz-adv-x="561" d="M-35 -242q0 86 49 86h45q41 0 59.5 31t24.5 94l37 361q20 201 195 317q-39 20 -84 86t-45 176q0 37 20 209q2 29 12.5 117t10.5 133q0 39 -13.5 58.5t-46.5 19.5h-45q-37 0 -37 41q0 86 50 86h102q51 0 94 -43t43 -146q0 -45 -26 -284q-18 -162 -19 -201 q0 -66 18.5 -107.5t65.5 -62.5q43 -18 43 -59q0 -51 -11 -73t-50 -36q-68 -25 -93.5 -86t-37.5 -178l-37 -342q-14 -131 -67.5 -184.5t-117.5 -53.5h-102q-37 0 -37 41z" />
<glyph unicode="~" horiz-adv-x="1120" d="M242 498q0 10 10 26q39 76 93 109t130 33q49 0 101.5 -12.5t130.5 -35.5q74 -23 113.5 -31.5t76.5 -8.5q31 0 56.5 13t50.5 46q23 29 45 29q16 0 26 -4l19 -7q29 -10 28 -24q0 -8 -10 -29q-39 -74 -92 -106.5t-129 -32.5q-53 0 -110.5 13t-131.5 36q-129 39 -186 39 q-31 0 -53.5 -13.5t-49.5 -48.5q-12 -16 -21 -22t-22 -6q-16 0 -26 4l-23 8q-27 8 -26 25z" />
<glyph unicode="&#xa1;" horiz-adv-x="602" d="M96 -322q0 27 90 564q35 193 64 370q6 45 67 45h23q57 0 57 -45l-98 -934q-6 -45 -86 -45h-41q-43 0 -59.5 11.5t-16.5 33.5zM252 895l14 135q4 45 86 45h35q43 0 60.5 -11t17.5 -34l-14 -135q-6 -45 -86 -45h-35q-43 0 -60.5 11t-17.5 34z" />
<glyph unicode="&#xa2;" horiz-adv-x="995" d="M104 418q0 281 124 466t382 197l6 62q2 41 41 41h5q20 0 28 -9.5t8 -31.5l-6 -62q74 -4 128 -21.5t83 -40t29 -42.5q0 -23 -27.5 -63t-52.5 -40q-4 0 -45 25t-131 33l-86 -797q70 2 119 17.5t84.5 31t42.5 15.5q6 0 9 -4.5t3 -20.5q0 -41 -10 -92q-10 -49 -89 -69.5 t-174 -24.5l-10 -92q-6 -41 -41 -41h-4q-23 0 -30 9t-7 32l11 94q-195 10 -292.5 113.5t-97.5 314.5zM283 430q0 -139 54 -211t171 -82l86 797q-141 -12 -226 -134t-85 -370z" />
<glyph unicode="&#xa3;" horiz-adv-x="1005" d="M-4 37q0 16 4 57q2 25 20.5 40.5t53.5 31.5q53 27 87 59.5t40 100.5l39 368h-115q-20 0 -27.5 14.5t-7.5 41.5q0 92 51 92h115l18 178q43 426 465 426q80 0 139.5 -14.5t59.5 -51.5q0 -14 -17.5 -57t-37.5 -43q-10 0 -47 9t-80 9q-145 0 -220 -64.5t-90 -203.5l-18 -188 h299q18 0 25.5 -8.5t7.5 -30.5q0 -10 -8.5 -37t-29 -49.5t-54.5 -22.5h-256l-19 -184q-18 -184 -60 -257t-95 -106h573q23 0 29 -14t6 -47l-2 -39q-2 -18 -16.5 -32.5t-32.5 -14.5h-766q-33 0 -33 37z" />
<glyph unicode="&#xa4;" horiz-adv-x="1093" d="M141 348q0 20 27 47l53 49q-47 76 -47 170q0 152 94 260l-45 48q-18 23 -18 41q0 20 18 38l4 5q16 16 39 16q27 0 43 -21l45 -49q104 72 221 72t207 -70l54 50q25 20 43 20q8 0 18 -4t16 -10l7 -6q14 -14 14 -33q0 -25 -27 -49l-55 -50q53 -84 53 -178q0 -70 -26.5 -134 t-71.5 -116l45 -49q18 -20 18 -43q0 -16 -16 -33l-8 -8q-18 -18 -41 -18q-18 0 -41 22l-45 50q-102 -68 -219 -68q-121 0 -207 68l-55 -52q-23 -20 -45 -20q-12 0 -33 20l-6 6q-12 12 -13 29zM299 633q0 -90 60.5 -150.5t152.5 -60.5q68 0 129 36t99 95t38 129 q0 92 -61.5 154.5t-153.5 62.5q-69 0 -129.5 -37t-97.5 -98.5t-37 -130.5z" />
<glyph unicode="&#xa5;" horiz-adv-x="1144" d="M68 444q0 86 47 86h346l20 197h-346q-18 0 -25.5 13.5t-7.5 37.5q0 86 48 86h258l-287 502q-12 18 -12 33q0 20 21.5 29.5t74.5 9.5h22q35 0 55.5 -6.5t30.5 -24.5l283 -504l397 506q20 29 94 29h19q74 -2 74 -33q-1 -10 -21 -39l-391 -502h258q18 0 25.5 -13t7.5 -38 q0 -86 -47 -86h-350l-21 -197h350q18 0 25.5 -13t7.5 -38q0 -86 -47 -86h-350l-37 -352q-6 -45 -86 -45h-17q-43 0 -60 11t-17 34l36 352h-346q-18 0 -25 13.5t-7 37.5z" />
<glyph unicode="&#xa6;" horiz-adv-x="512" d="M102 -242q0 20 35 338q37 348 35 322q4 45 53 45h21q24 0 34.5 -11.5t10.5 -33.5q0 4 -33 -324q6 47 -37 -336q-6 -45 -53 -45h-21q-27 0 -36 11.5t-9 33.5zM219 870q4 43 13.5 133.5t19.5 190.5q14 117 22.5 202t14.5 136q4 45 53 45h20q25 0 35.5 -11.5t10.5 -33.5 q0 -10 -31 -305l-39 -357q-6 -45 -53 -45h-21q-27 0 -36 11.5t-9 33.5z" />
<glyph unicode="&#xa7;" horiz-adv-x="878" d="M100 692q0 88 37 159t101 120q-61 57 -62 153q0 109 53.5 181.5t136.5 106.5t171 34t169.5 -24.5t81.5 -73.5q0 -20 -25.5 -59.5t-47.5 -39.5q-8 2 -55.5 25.5t-122.5 23.5q-88 0 -134.5 -37.5t-46.5 -97.5q0 -53 39 -78.5t125 -54.5q80 -27 131 -53.5t88 -81.5t37 -145 q0 -180 -139 -285q63 -59 63 -150q0 -113 -53 -186.5t-135 -107t-170 -33.5q-86 0 -163 24.5t-77 71.5q0 49 9.5 80t23.5 31q6 0 41 -17.5t76 -30t88 -12.5q86 0 134 38t48 95q0 55 -39 81t-125 57q-82 29 -133 55t-88 82.5t-37 148.5zM274 715q0 -74 48.5 -108t146.5 -62 q55 12 93 56t38 122q0 70 -48 104.5t-144 63.5q-54 -14 -94 -57t-40 -119z" />
<glyph unicode="&#xa8;" d="M90 1288l10 105q6 45 95 45q43 0 60 -11.5t17 -33.5l-10 -105q-6 -45 -94 -45q-43 0 -60.5 11.5t-17.5 33.5zM385 1288l10 105q4 45 94 45q43 0 60.5 -11.5t17.5 -33.5l-10 -105q-6 -45 -94 -45q-43 0 -60.5 11.5t-17.5 33.5z" />
<glyph unicode="&#xa9;" horiz-adv-x="1513" d="M20 721q0 201 98.5 367.5t267.5 264t370 97.5q200 0 369 -97.5t268.5 -264t99.5 -367.5t-99.5 -370t-268.5 -267t-369 -98q-201 0 -370 98t-267.5 267t-98.5 370zM119 721q0 -172 86 -318.5t232.5 -232.5t318.5 -86q174 0 320.5 86t232.5 232.5t86 318.5t-86 317.5 t-232.5 229.5t-320.5 84q-172 0 -318.5 -84t-232.5 -229.5t-86 -317.5zM395 711q0 436 398 436q88 0 160.5 -24.5t72.5 -51.5q0 -16 -15.5 -44t-27.5 -28q-2 0 -51 28t-137 28q-147 0 -218 -83t-71 -261q0 -176 69.5 -259t212.5 -83q61 0 104.5 14t73 30.5t33.5 16.5 q12 0 27.5 -26.5t15.5 -38.5q0 -16 -34.5 -38t-93 -36.5t-126.5 -14.5q-201 0 -297 106.5t-96 328.5z" />
<glyph unicode="&#xaa;" horiz-adv-x="653" d="M78 1124q0 141 68.5 231.5t183.5 90.5q76 0 135 -55q6 27 15 39t30 12h8q23 0 23 -21q-6 -59 -23.5 -222t-17.5 -179q0 -27 9 -34t28 -7q10 0 16 2t10 2q6 0 6 -6q0 -16 -4 -39q-2 -16 -21.5 -24.5t-37.5 -8.5q-92 0 -92 99v10q-29 -55 -72 -82t-90 -27q-66 0 -120 50.5 t-54 168.5zM166 1130q0 -152 104 -151q41 0 85 40t71 130q17 159 23 184q-55 39 -111 39q-94 0 -133 -67.5t-39 -174.5z" />
<glyph unicode="&#xab;" horiz-adv-x="964" d="M90 522q0 31 31 64l301 319q25 25 47 25q18 0 42 -19.5t24 -42.5q0 -12 -21 -45l-258 -295l195 -297q12 -18 12 -32q0 -18 -25.5 -46t-52.5 -28q-23 0 -43 27l-231 319q-20 29 -21 51zM442 522q0 31 31 64l301 319q25 25 47 25q19 0 42.5 -19.5t23.5 -42.5q0 -12 -21 -45 l-258 -295l195 -297q12 -18 12 -32q0 -18 -25.5 -46t-52.5 -28q-23 0 -43 27l-231 319q-20 29 -21 51z" />
<glyph unicode="&#xac;" horiz-adv-x="1146" d="M94 584q0 51 9.5 79.5t41.5 28.5h889q33 0 44.5 -14t11.5 -47l-46 -428q-6 -45 -65 -45h-27q-33 0 -45 11t-12 34l37 340h-801q-37 0 -37 41z" />
<glyph unicode="&#xad;" d="M82 524q0 92 51 92h397q21 0 28 -14t7 -41q0 -92 -51 -92h-397q-20 0 -27.5 14.5t-7.5 40.5z" />
<glyph unicode="&#xae;" horiz-adv-x="1513" d="M20 723q0 201 98.5 367.5t267.5 264t370 97.5q200 0 369 -97.5t268.5 -264t99.5 -367.5t-99.5 -370t-268.5 -267t-369 -98q-201 0 -370 98t-267.5 267t-98.5 370zM119 723q0 -172 86 -318.5t232.5 -232.5t318.5 -86q174 0 320.5 86t232.5 232.5t86 318.5t-86 317.5 t-232.5 229.5t-320.5 84q-172 0 -318.5 -84t-232.5 -229.5t-86 -317.5zM510 322v784q0 20 8 28.5t29 8.5h203q145 0 217.5 -51.5t72.5 -161.5q0 -76 -36.5 -126t-102.5 -77v-8q35 -12 57.5 -46t51.5 -104l94 -237l4 -19q0 -18 -51 -18h-13q-18 0 -30.5 5t-16.5 13l-92 238 q-27 70 -66.5 94.5t-113.5 24.5h-109v-348q0 -27 -49 -27h-8q-49 0 -49 27zM616 762h160q63 0 108.5 44t45.5 103q0 72 -43 107t-119 35h-152v-289z" />
<glyph unicode="&#xaf;" d="M47 1309q0 90 51 90h463q21 0 28 -13.5t7 -39.5q0 -92 -51 -93h-463q-20 0 -27.5 14.5t-7.5 41.5z" />
<glyph unicode="&#xb0;" horiz-adv-x="706" d="M74 1147q0 84 39 151.5t107.5 107.5t154.5 40q104 0 175 -70.5t71 -173.5q0 -84 -40 -152.5t-110 -107.5t-152 -39q-109 0 -177 69.5t-68 174.5zM174 1153q0 -66 44 -112t110 -46q78 0 134 56.5t56 140.5q0 68 -43 115t-108 47q-80 0 -136.5 -60.5t-56.5 -140.5z" />
<glyph unicode="&#xb1;" horiz-adv-x="1146" d="M18 53q0 35 20.5 66t51.5 31h868q31 0 43.5 -13.5t12.5 -40.5q0 -37 -20.5 -66.5t-51.5 -29.5h-868q-31 0 -43.5 13.5t-12.5 39.5zM111 723q0 31 19.5 57.5t49.5 26.5h346l37 346q6 61 68 61h14q31 0 43 -14t12 -47l-36 -346h344q31 0 43 -13.5t12 -39.5 q0 -31 -19.5 -57.5t-50.5 -26.5h-344l-37 -344q-6 -61 -67 -62h-15q-31 0 -43 15.5t-12 46.5l37 344h-346q-55 0 -55 53z" />
<glyph unicode="&#xb2;" d="M39 674q0 8 2 10l365 403q80 88 79 166q0 49 -35.5 78t-99.5 29q-49 0 -85 -13.5t-64.5 -30t-34.5 -16.5q-8 0 -19.5 21.5t-11.5 36.5q0 35 78 61.5t143 26.5q107 0 169.5 -48t62.5 -128q0 -63 -21.5 -113.5t-74.5 -107.5l-318 -351h340q20 0 21 -32q0 -18 -6.5 -36 t-24.5 -18h-441q-8 0 -16 22.5t-8 39.5z" />
<glyph unicode="&#xb3;" d="M84 666q0 70 18 69q4 -2 49.5 -23.5t131.5 -21.5q72 0 130 45t58 148q0 70 -42 98.5t-120 28.5h-41q-20 0 -20 30q0 53 31 54h32q59 0 99.5 28.5t57.5 67.5t17 70q0 41 -28.5 71.5t-100.5 30.5q-74 0 -121 -19.5t-53 -19.5q-8 0 -20 22.5t-12 36.5q0 25 77.5 44.5 t141.5 19.5q100 0 158.5 -46t58.5 -132q0 -72 -39 -122t-101 -71l-2 -6q53 -14 91 -62.5t38 -123.5q0 -96 -45 -157.5t-112.5 -90.5t-132.5 -29q-57 0 -128 12.5t-71 47.5z" />
<glyph unicode="&#xb4;" d="M137 1217q0 14 28 59t114 170q20 29 51.5 41t81.5 12q96 1 96 -24q0 -12 -20.5 -36t-112.5 -120l-84 -84q-18 -18 -47 -27.5t-62 -9.5q-45 0 -45 19z" />
<glyph unicode="&#xb5;" horiz-adv-x="1159" d="M100 0zM100 -383l146 1413q2 25 23.5 35t62.5 10h8q43 0 60.5 -11t17.5 -34q-12 -111 -43 -414t-31 -321q0 -158 156 -158q86 0 177 80t150 268l58 545q2 25 23.5 35t62.5 10h8q43 0 60.5 -11t17.5 -34q-12 -119 -46 -445.5t-34 -365.5q0 -55 19.5 -69.5t54.5 -14.5 q14 0 30.5 5t24.5 5q12 0 12 -14q0 -31 -8 -76q-6 -35 -46 -51t-77 -16q-184 0 -184 200v21q-78 -115 -171 -168t-194 -53q-61 0 -125 18l-41 -387q-2 -20 -25.5 -32.5t-60.5 -12.5h-8q-78 0 -78 43z" />
<glyph unicode="&#xb6;" horiz-adv-x="1054" d="M125 922q0 158 70.5 273.5t189.5 177t256 61.5h436q23 0 30 -9.5t7 -31.5l-4 -45q-2 -41 -45 -41h-74l-170 -1616q-6 -45 -45 -45h-45q-23 0 -30 11t-7 34l170 1616h-159l-170 -1616q-6 -45 -46 -45h-45q-23 0 -29.5 11t-6.5 34l86 815q-106 12 -190.5 69.5t-131.5 147.5 t-47 199z" />
<glyph unicode="&#xb7;" horiz-adv-x="546" d="M182 725q0 51 33 85t84 34q41 0 67.5 -26.5t26.5 -67.5q0 -53 -33.5 -85t-83.5 -32q-41 0 -67.5 25.5t-26.5 66.5z" />
<glyph unicode="&#xb8;" d="M104 -346q0 45 7.5 56t17.5 11q4 -2 45 -26.5t115 -24.5q123 0 123 82q0 29 -18.5 42t-53.5 24q-27 10 -39 18t-12 23q2 8 15 41.5t40 99.5h88l-41 -100h8q56 0 108 -27t52 -100q0 -119 -76.5 -161t-179.5 -42q-66 0 -132.5 18.5t-66.5 65.5z" />
<glyph unicode="&#xb9;" horiz-adv-x="444" d="M111 1343q0 18 5 25.5t19 9.5l223 60q15 0 25 -7.5t10 -17.5l-82 -780q-2 -25 -47 -25h-8q-43 0 -43 25l74 698l-158 -35q-18 0 -18 47z" />
<glyph unicode="&#xba;" horiz-adv-x="690" d="M109 1120q0 184 79.5 255t186.5 71q203 0 203 -217q0 -186 -76 -256t-183 -70q-211 0 -210 217zM197 1124q0 -80 30.5 -113.5t94.5 -33.5q168 0 167 248q0 78 -31.5 112.5t-92.5 34.5q-76 0 -122 -58.5t-46 -189.5z" />
<glyph unicode="&#xbb;" horiz-adv-x="964" d="M74 190q0 12 20 41l260 297l-196 295q-12 18 -13 35q0 27 28 49.5t50 22.5q25 0 43 -25l232 -319q23 -31 22 -58q-2 -25 -33 -57l-301 -319q-27 -27 -47 -27q-23 0 -44 22.5t-21 42.5zM426 190q0 12 20 41l261 297l-197 295q-12 18 -12 35q0 27 27.5 49.5t49.5 22.5 q25 0 43 -25l232 -319q23 -31 22 -58q-2 -25 -32 -57l-301 -319q-27 -27 -47 -27q-23 0 -44.5 22.5t-21.5 42.5z" />
<glyph unicode="&#xbc;" horiz-adv-x="1374" d="M109 8q0 10 10 21l977 1378q23 33 65 33h27q26 -1 26 -13q0 -6 -10 -20l-977 -1378q-23 -33 -65 -33h-27q-27 0 -26 12zM147 1343q0 18 5.5 25.5t19.5 9.5l223 60q15 0 25 -7.5t10 -17.5l-82 -780q-2 -25 -47 -25h-8q-43 0 -43 25l74 698l-158 -35q-18 0 -19 47zM647 229 q0 12 4 21l449 561q12 16 41 16h18q19 0 26 -6t7 -20l-57 -539h79q20 0 21 -33q0 -51 -31 -51h-78l-16 -155q-2 -12 -11 -19.5t-26 -7.5h-26q-20 0 -27.5 6t-7.5 21l16 155h-358q-8 0 -15.5 16.5t-7.5 34.5zM766 262h270l35 326l8 67l-6 2z" />
<glyph unicode="&#xbd;" horiz-adv-x="1527" d="M109 8q0 10 10 21l977 1378q23 33 65 33h27q26 -1 26 -13q0 -6 -10 -20l-977 -1378q-23 -33 -65 -33h-27q-27 0 -26 12zM147 1343q0 18 5.5 25.5t19.5 9.5l223 60q15 0 25 -7.5t10 -17.5l-82 -780q-2 -25 -47 -25h-8q-43 0 -43 25l74 698l-158 -35q-18 0 -19 47zM846 61 q0 8 2 11l364 403q80 88 80 166q0 49 -35.5 78t-99.5 29q-49 0 -85 -13.5t-64.5 -30t-34.5 -16.5q-8 0 -19.5 21.5t-11.5 35.5q0 35 78 62t143 27q107 0 169.5 -48.5t62.5 -128.5q0 -63 -21.5 -113t-75.5 -108l-317 -350h340q20 0 20 -33q0 -18 -6 -35.5t-24 -17.5h-441 q-8 0 -16 22.5t-8 38.5z" />
<glyph unicode="&#xbe;" horiz-adv-x="1511" d="M109 666q0 70 18 69q4 -2 49 -23.5t131 -21.5q72 0 130.5 45t58.5 148q0 70 -42 98.5t-120 28.5h-41q-20 0 -21 30q0 53 31 54h33q59 0 99 28.5t57.5 67.5t17.5 70q0 41 -28.5 71.5t-100.5 30.5q-74 0 -121 -19.5t-53 -19.5q-8 0 -20.5 22.5t-12.5 36.5q0 25 78 44.5 t141 19.5q101 0 159 -46t58 -132q0 -72 -39 -122t-100 -71l-2 -6q53 -14 91 -62.5t38 -123.5q0 -96 -45 -157.5t-112.5 -90.5t-133.5 -29q-57 0 -127.5 12.5t-70.5 47.5zM244 8q0 10 10 21l977 1378q23 33 65 33h27q27 -1 27 -13q0 -6 -11 -20l-977 -1378q-23 -33 -65 -33 h-27q-27 0 -26 12zM786 229q0 12 5 21l448 561q12 16 41 16h18q19 0 26 -6t7 -20l-57 -539h80q20 0 20 -33q0 -51 -31 -51h-77l-17 -155q-2 -12 -11 -19.5t-26 -7.5h-26q-20 0 -27.5 6t-7.5 21l16 155h-358q-8 0 -15.5 16.5t-7.5 34.5zM905 262h271l34 318l9 75l-7 2z" />
<glyph unicode="&#xbf;" horiz-adv-x="870" d="M66 -68q0 78 33.5 145.5t82.5 121t133 129.5q98 88 151.5 151.5t72.5 136.5q4 20 20 30.5t51 10.5h31q57 0 57 -43q0 -66 -58 -155.5t-153 -173.5q-84 -76 -128 -122t-71.5 -97.5t-27.5 -108.5q0 -180 238 -180q106 0 178 34.5t76 34.5q10 0 12 -4t2 -20q0 -45 -10 -101 q-10 -53 -112.5 -74.5t-194.5 -21.5q-182 0 -282.5 87t-100.5 220zM559 895l14 135q4 45 89 45h34q43 0 59.5 -11t16.5 -34l-14 -135q-4 -45 -86 -45h-35q-43 0 -60.5 11t-17.5 34z" />
<glyph unicode="&#xc0;" horiz-adv-x="1255" d="M-47 29q0 10 10 30l625 1346q14 33 84 33h59q72 0 80 -33l344 -1348q2 -8 2 -20q0 -41 -90 -41h-16q-72 0 -80 33l-86 336h-602l-152 -336q-14 -33 -84 -33h-10q-84 0 -84 33zM0 0zM356 520h490l-150 610q-12 47 -12 119h-4q-25 -76 -43 -119zM456 1837q2 14 26 19t73 5 t79.5 -12t47.5 -41q72 -125 95 -170t23 -59q0 -18 -47 -19q-33 0 -61.5 9.5t-42.5 27.5l-72 80q-84 96 -102.5 120.5t-18.5 39.5z" />
<glyph unicode="&#xc1;" horiz-adv-x="1255" d="M-47 29q0 10 10 30l625 1346q14 33 84 33h59q72 0 80 -33l344 -1348q2 -8 2 -20q0 -41 -90 -41h-16q-72 0 -80 33l-86 336h-602l-152 -336q-14 -33 -84 -33h-10q-84 0 -84 33zM0 0zM356 520h490l-150 610q-12 47 -12 119h-4q-25 -76 -43 -119zM622 1579q0 14 28 59 t114 170q20 29 51.5 41t81.5 12q96 1 96 -24q0 -12 -20.5 -36t-112.5 -120l-84 -84q-18 -18 -47 -27.5t-62 -9.5q-45 0 -45 19z" />
<glyph unicode="&#xc2;" horiz-adv-x="1255" d="M-47 29q0 10 10 30l625 1346q14 33 84 33h59q72 0 80 -33l344 -1348q2 -8 2 -20q0 -41 -90 -41h-16q-72 0 -80 33l-86 336h-602l-152 -336q-14 -33 -84 -33h-10q-84 0 -84 33zM0 0zM356 520h490l-150 610q-12 47 -12 119h-4q-25 -76 -43 -119zM452 1566q0 18 15 41 l135 180q33 45 98 45h51q66 0 91 -45l96 -180q10 -14 10 -35q-4 -31 -53 -30h-4q-39 0 -66 26l-112 152l-142 -152q-33 -27 -71 -26h-5q-43 0 -43 24z" />
<glyph unicode="&#xc3;" horiz-adv-x="1255" d="M-47 29q0 10 10 30l625 1346q14 33 84 33h59q72 0 80 -33l344 -1348q2 -8 2 -20q0 -41 -90 -41h-16q-72 0 -80 33l-86 336h-602l-152 -336q-14 -33 -84 -33h-10q-84 0 -84 33zM0 0zM354 1607q0 12 6 27q33 76 79 108.5t110 32.5q43 0 86 -11t112 -36q59 -20 93 -30.5 t65 -10.5q29 0 49.5 13.5t40.5 45.5q20 29 41 29q12 0 20 -4l17 -6q23 -8 22 -25q0 -12 -8 -28q-33 -74 -78 -107t-108 -33q-74 0 -205 50q-57 20 -92 29t-66 9q-27 0 -45 -13t-41 -48q-12 -16 -19 -22.5t-18 -6.5q-12 0 -20 4l-21 9q-20 8 -20 24zM356 520h490l-150 610 q-12 47 -12 119h-4q-25 -76 -43 -119z" />
<glyph unicode="&#xc4;" horiz-adv-x="1255" d="M-47 29q0 10 10 30l625 1346q14 33 84 33h59q72 0 80 -33l344 -1348q2 -8 2 -20q0 -41 -90 -41h-16q-72 0 -80 33l-86 336h-602l-152 -336q-14 -33 -84 -33h-10q-84 0 -84 33zM0 0zM356 520h490l-150 610q-12 47 -12 119h-4q-25 -76 -43 -119zM483 1650l10 105 q6 45 95 45q43 0 60 -11.5t17 -33.5l-10 -105q-6 -45 -94 -45q-43 0 -60.5 11.5t-17.5 33.5zM778 1650l10 105q4 45 94 45q43 0 60.5 -11.5t17.5 -33.5l-10 -105q-6 -45 -94 -45q-43 0 -60.5 11.5t-17.5 33.5z" />
<glyph unicode="&#xc5;" horiz-adv-x="1255" d="M-47 29q0 10 10 30l625 1346q14 33 84 33h59q72 0 80 -33l344 -1348q2 -8 2 -20q0 -41 -90 -41h-16q-72 0 -80 33l-86 336h-602l-152 -336q-14 -33 -84 -33h-10q-84 0 -84 33zM0 0zM356 520h490l-150 610q-12 47 -12 119h-4q-25 -76 -43 -119zM527 1673q0 78 57 134 t133 56q68 0 112 -45t44 -110q0 -78 -56.5 -134.5t-134.5 -56.5q-68 0 -111.5 44t-43.5 112zM598 1681q0 -41 24.5 -66.5t65.5 -25.5q47 0 80 32.5t33 79.5q0 39 -25.5 65t-64.5 26q-45 0 -79 -33t-34 -78z" />
<glyph unicode="&#xc6;" horiz-adv-x="1873" d="M-96 27q0 16 12 36l795 1315q16 29 37.5 42.5t54.5 13.5h921q35 0 35 -45q0 -51 -9 -81t-42 -30h-750l54 -467h583q35 0 35 -45q0 -51 -9 -81t-42 -30h-551l57 -499h508q35 0 35 -45q0 -51 -9 -81t-42 -30h-598q-33 0 -48.5 14.5t-19.5 44.5l-32 306h-605l-198 -336 q-20 -33 -84 -33h-10q-43 0 -60.5 7t-17.5 24zM369 518h489l-61 612v119h-4l-56 -119z" />
<glyph unicode="&#xc7;" horiz-adv-x="1267" d="M78 561q0 391 176 638t580 247q94 0 181 -19.5t140 -49t53 -56.5q0 -25 -31.5 -73t-50.5 -48q-6 0 -53 25.5t-115.5 45t-154.5 19.5q-281 0 -411 -191.5t-130 -512.5q0 -227 103.5 -335t318.5 -108q113 0 196 26t131 49.5t52 23.5q14 0 14 -23q0 -16 -4 -52t-10 -61 q-12 -53 -131 -84.5t-256 -33.5l-37 -88h8q55 0 107.5 -27t52.5 -100q0 -119 -77 -161t-179 -42q-66 0 -132.5 18.5t-66.5 65.5q0 45 7.5 56t17.5 11q4 -2 45 -26.5t115 -24.5q123 0 122 82q0 29 -18 42t-53 24q-27 10 -39 18t-12 23q2 6 14 37.5t37 93.5 q-258 18 -384 158.5t-126 412.5z" />
<glyph unicode="&#xc8;" horiz-adv-x="1118" d="M92 0zM92 49l137 1323q2 33 18.5 47.5t49.5 14.5h723q35 0 35 -45q0 -51 -9.5 -81t-41.5 -30h-605l-49 -467h541q35 0 35 -45q0 -51 -9.5 -81t-42.5 -30h-540l-51 -499h606q35 0 35 -45q0 -51 -9.5 -81t-42.5 -30h-725q-29 0 -42 11.5t-13 37.5zM417 1837q2 14 26 19 t73 5t79.5 -12t47.5 -41q72 -125 95 -170t23 -59q0 -18 -47 -19q-33 0 -61.5 9.5t-42.5 27.5l-72 80q-84 96 -102.5 120.5t-18.5 39.5z" />
<glyph unicode="&#xc9;" horiz-adv-x="1118" d="M92 0zM92 49l137 1323q2 33 18.5 47.5t49.5 14.5h723q35 0 35 -45q0 -51 -9.5 -81t-41.5 -30h-605l-49 -467h541q35 0 35 -45q0 -51 -9.5 -81t-42.5 -30h-540l-51 -499h606q35 0 35 -45q0 -51 -9.5 -81t-42.5 -30h-725q-29 0 -42 11.5t-13 37.5zM583 1579q0 14 28 59 t114 170q20 29 51.5 41t81.5 12q96 1 96 -24q0 -12 -20.5 -36t-112.5 -120l-84 -84q-18 -18 -47 -27.5t-62 -9.5q-45 0 -45 19z" />
<glyph unicode="&#xca;" horiz-adv-x="1118" d="M92 0zM92 49l137 1323q2 33 18.5 47.5t49.5 14.5h723q35 0 35 -45q0 -51 -9.5 -81t-41.5 -30h-605l-49 -467h541q35 0 35 -45q0 -51 -9.5 -81t-42.5 -30h-540l-51 -499h606q35 0 35 -45q0 -51 -9.5 -81t-42.5 -30h-725q-29 0 -42 11.5t-13 37.5zM413 1566q0 18 15 41 l135 180q33 45 98 45h51q66 0 91 -45l96 -180q10 -14 10 -35q-4 -31 -53 -30h-4q-39 0 -66 26l-112 152l-142 -152q-33 -27 -71 -26h-5q-43 0 -43 24z" />
<glyph unicode="&#xcb;" horiz-adv-x="1118" d="M92 0zM92 49l137 1323q2 33 18.5 47.5t49.5 14.5h723q35 0 35 -45q0 -51 -9.5 -81t-41.5 -30h-605l-49 -467h541q35 0 35 -45q0 -51 -9.5 -81t-42.5 -30h-540l-51 -499h606q35 0 35 -45q0 -51 -9.5 -81t-42.5 -30h-725q-29 0 -42 11.5t-13 37.5zM444 1650l10 105 q6 45 95 45q43 0 60 -11.5t17 -33.5l-10 -105q-6 -45 -94 -45q-43 0 -60.5 11.5t-17.5 33.5zM739 1650l10 105q4 45 94 45q43 0 60.5 -11.5t17.5 -33.5l-10 -105q-6 -45 -94 -45q-43 0 -60.5 11.5t-17.5 33.5z" />
<glyph unicode="&#xcc;" horiz-adv-x="577" d="M125 0zM125 1837q2 14 26 19t73 5t79.5 -12t47.5 -41q72 -125 95 -170t23 -59q0 -18 -47 -19q-33 0 -61.5 9.5t-42.5 27.5l-72 80q-84 96 -102.5 120.5t-18.5 39.5zM127 41l141 1352q4 45 86 45h17q43 0 60.5 -11.5t17.5 -33.5l-142 -1352q-6 -45 -86 -45h-16 q-43 0 -60.5 11t-17.5 34z" />
<glyph unicode="&#xcd;" horiz-adv-x="577" d="M127 0zM127 41l141 1352q4 45 86 45h17q43 0 60.5 -11.5t17.5 -33.5l-142 -1352q-6 -45 -86 -45h-16q-43 0 -60.5 11t-17.5 34zM291 1579q0 14 28 59t114 170q20 29 51.5 41t81.5 12q96 1 96 -24q0 -12 -20.5 -36t-112.5 -120l-84 -84q-18 -18 -47 -27.5t-62 -9.5 q-45 0 -45 19z" />
<glyph unicode="&#xce;" horiz-adv-x="577" d="M120 1566q0 18 15 41l135 180q33 45 98 45h51q66 0 91 -45l96 -180q10 -14 10 -35q-4 -31 -53 -30h-4q-39 0 -66 26l-112 152l-142 -152q-33 -27 -71 -26h-5q-43 0 -43 24zM121 0zM127 41l141 1352q4 45 86 45h17q43 0 60.5 -11.5t17.5 -33.5l-142 -1352q-6 -45 -86 -45 h-16q-43 0 -60.5 11t-17.5 34z" />
<glyph unicode="&#xcf;" horiz-adv-x="577" d="M127 0zM127 41l141 1352q4 45 86 45h17q43 0 60.5 -11.5t17.5 -33.5l-142 -1352q-6 -45 -86 -45h-16q-43 0 -60.5 11t-17.5 34zM151 1650l10 105q6 45 95 45q43 0 60 -11.5t17 -33.5l-10 -105q-6 -45 -94 -45q-43 0 -60.5 11.5t-17.5 33.5zM446 1650l10 105q4 45 94 45 q43 0 60.5 -11.5t17.5 -33.5l-10 -105q-6 -45 -94 -45q-43 0 -60.5 11.5t-17.5 33.5z" />
<glyph unicode="&#xd0;" horiz-adv-x="1425" d="M-2 700q0 51 9 81t42 30h131l41 383l19 178q2 33 18 47.5t49 14.5h441q260 0 414.5 -140.5t154.5 -443.5q0 -301 -99.5 -491.5t-261 -274.5t-358.5 -84h-440q-29 0 -42.5 11.5t-13.5 37.5q0 14 62 606h-131q-35 0 -35 45zM293 156h307q141 0 262 67.5t194.5 217 t73.5 380.5q0 242 -111.5 349.5t-301.5 107.5h-307l-50 -467h230q35 0 35 -45q0 -51 -9.5 -81t-42.5 -30h-229z" />
<glyph unicode="&#xd1;" horiz-adv-x="1472" d="M106 0zM106 41l142 1352q4 45 86 45h43q33 0 51 -8.5t31 -30.5l563 -987l49 -115l115 1096q4 45 86 45h14q43 0 60.5 -11.5t17.5 -33.5l-141 -1352q-6 -45 -86 -45h-41q-53 0 -70 29l-582 1019l-43 105l-116 -1108q-6 -45 -86 -45h-15q-43 0 -60.5 11t-17.5 34zM455 1607 q0 12 6 27q33 76 79 108.5t110 32.5q43 0 86 -11t112 -36q59 -20 93 -30.5t65 -10.5q29 0 49.5 13.5t40.5 45.5q20 29 41 29q12 0 20 -4l17 -6q23 -8 22 -25q0 -12 -8 -28q-33 -74 -78 -107t-108 -33q-74 0 -205 50q-57 20 -92 29t-66 9q-27 0 -45 -13t-41 -48 q-12 -16 -19 -22.5t-18 -6.5q-12 0 -20 4l-21 9q-20 8 -20 24z" />
<glyph unicode="&#xd2;" horiz-adv-x="1497" d="M109 0zM109 578q0 233 69.5 428.5t229 317.5t415.5 122q277 0 421.5 -148.5t144.5 -437.5q0 -281 -88.5 -476.5t-249 -295.5t-381.5 -100q-274 0 -417.5 149.5t-143.5 440.5zM295 596q0 -223 99.5 -338t291.5 -115q156 0 271.5 81t179 237.5t63.5 378.5 q0 223 -100.5 336.5t-292.5 113.5q-238 0 -375 -178t-137 -516zM579 1837q2 14 26 19t73 5t79.5 -12t47.5 -41q72 -125 95 -170t23 -59q0 -18 -47 -19q-33 0 -61.5 9.5t-42.5 27.5l-72 80q-84 96 -102.5 120.5t-18.5 39.5z" />
<glyph unicode="&#xd3;" horiz-adv-x="1497" d="M109 0zM109 578q0 233 69.5 428.5t229 317.5t415.5 122q277 0 421.5 -148.5t144.5 -437.5q0 -281 -88.5 -476.5t-249 -295.5t-381.5 -100q-274 0 -417.5 149.5t-143.5 440.5zM295 596q0 -223 99.5 -338t291.5 -115q156 0 271.5 81t179 237.5t63.5 378.5 q0 223 -100.5 336.5t-292.5 113.5q-238 0 -375 -178t-137 -516zM745 1579q0 14 28 59t114 170q20 29 51.5 41t81.5 12q96 1 96 -24q0 -12 -20.5 -36t-112.5 -120l-84 -84q-18 -18 -47 -27.5t-62 -9.5q-45 0 -45 19z" />
<glyph unicode="&#xd4;" horiz-adv-x="1497" d="M109 0zM109 578q0 233 69.5 428.5t229 317.5t415.5 122q277 0 421.5 -148.5t144.5 -437.5q0 -281 -88.5 -476.5t-249 -295.5t-381.5 -100q-274 0 -417.5 149.5t-143.5 440.5zM295 596q0 -223 99.5 -338t291.5 -115q156 0 271.5 81t179 237.5t63.5 378.5 q0 223 -100.5 336.5t-292.5 113.5q-238 0 -375 -178t-137 -516zM575 1566q0 18 15 41l135 180q33 45 98 45h51q66 0 91 -45l96 -180q10 -14 10 -35q-4 -31 -53 -30h-4q-39 0 -66 26l-112 152l-142 -152q-33 -27 -71 -26h-5q-43 0 -43 24z" />
<glyph unicode="&#xd5;" horiz-adv-x="1497" d="M109 0zM109 578q0 233 69.5 428.5t229 317.5t415.5 122q277 0 421.5 -148.5t144.5 -437.5q0 -281 -88.5 -476.5t-249 -295.5t-381.5 -100q-274 0 -417.5 149.5t-143.5 440.5zM295 596q0 -223 99.5 -338t291.5 -115q156 0 271.5 81t179 237.5t63.5 378.5 q0 223 -100.5 336.5t-292.5 113.5q-238 0 -375 -178t-137 -516zM477 1607q0 12 6 27q33 76 79 108.5t110 32.5q43 0 86 -11t112 -36q59 -20 93 -30.5t65 -10.5q29 0 49.5 13.5t40.5 45.5q20 29 41 29q12 0 20 -4l17 -6q23 -8 22 -25q0 -12 -8 -28q-33 -74 -78 -107t-108 -33 q-74 0 -205 50q-57 20 -92 29t-66 9q-27 0 -45 -13t-41 -48q-12 -16 -19 -22.5t-18 -6.5q-12 0 -20 4l-21 9q-20 8 -20 24z" />
<glyph unicode="&#xd6;" horiz-adv-x="1497" d="M109 0zM109 578q0 233 69.5 428.5t229 317.5t415.5 122q277 0 421.5 -148.5t144.5 -437.5q0 -281 -88.5 -476.5t-249 -295.5t-381.5 -100q-274 0 -417.5 149.5t-143.5 440.5zM295 596q0 -223 99.5 -338t291.5 -115q156 0 271.5 81t179 237.5t63.5 378.5 q0 223 -100.5 336.5t-292.5 113.5q-238 0 -375 -178t-137 -516zM606 1650l10 105q6 45 95 45q43 0 60 -11.5t17 -33.5l-10 -105q-6 -45 -94 -45q-43 0 -60.5 11.5t-17.5 33.5zM901 1650l10 105q4 45 94 45q43 0 60.5 -11.5t17.5 -33.5l-10 -105q-6 -45 -94 -45 q-43 0 -60.5 11.5t-17.5 33.5z" />
<glyph unicode="&#xd7;" horiz-adv-x="1146" d="M70 86q0 12 20 29l387 352l-313 350q-14 14 -14 29q0 12 20 28l43 41q14 14 29 15q14 0 28 -15l314 -352l387 352q14 14 28 15q15 -1 29 -15l35 -41q10 -12 10 -28q0 -12 -16 -29l-387 -350l313 -352q10 -12 10 -29q0 -12 -16 -29l-45 -41q-16 -16 -29 -16q-12 0 -29 16 l-311 355l-389 -355q-16 -16 -29 -16q-12 0 -28 16l-33 41q-14 14 -14 29z" />
<glyph unicode="&#xd8;" horiz-adv-x="1497" d="M-2 43q0 12 16 29l166 166q-72 137 -71 340q0 233 69.5 428.5t229 317.5t415.5 122q279 -1 420 -148l127 125q14 14 29 15q14 0 26 -13l5 -4q10 -10 10 -22q0 -14 -15 -29l-133 -133q96 -143 97 -377q0 -281 -88.5 -476.5t-249 -295.5t-381.5 -100q-307 0 -449 184 l-153 -154q-16 -16 -29 -16q-12 0 -25 12l-4 4q-12 12 -12 25zM295 596q0 -125 31 -213l784 780q-102 127 -303 127q-238 0 -375 -178t-137 -516zM358 307q96 -164 328 -164q156 0 271.5 81t179 237.5t63.5 378.5q0 158 -49 258z" />
<glyph unicode="&#xd9;" horiz-adv-x="1458" d="M131 0zM131 395q0 20 102 998q4 45 89 45h16q43 0 59.5 -11.5t16.5 -33.5q-100 -950 -101 -971q0 -127 90.5 -203t258.5 -76q109 0 199.5 40t147 111t64.5 159l98 940q4 45 89 45h16q43 0 59.5 -11.5t16.5 -33.5l-99 -934q-23 -223 -181.5 -347t-426.5 -124 q-250 0 -382 106.5t-132 300.5zM546 1837q2 14 26 19t73 5t79.5 -12t47.5 -41q72 -125 95 -170t23 -59q0 -18 -47 -19q-33 0 -61.5 9.5t-42.5 27.5l-72 80q-84 96 -102.5 120.5t-18.5 39.5z" />
<glyph unicode="&#xda;" horiz-adv-x="1458" d="M131 0zM131 395q0 20 102 998q4 45 89 45h16q43 0 59.5 -11.5t16.5 -33.5q-100 -950 -101 -971q0 -127 90.5 -203t258.5 -76q109 0 199.5 40t147 111t64.5 159l98 940q4 45 89 45h16q43 0 59.5 -11.5t16.5 -33.5l-99 -934q-23 -223 -181.5 -347t-426.5 -124 q-250 0 -382 106.5t-132 300.5zM712 1579q0 14 28 59t114 170q20 29 51.5 41t81.5 12q96 1 96 -24q0 -12 -20.5 -36t-112.5 -120l-84 -84q-18 -18 -47 -27.5t-62 -9.5q-45 0 -45 19z" />
<glyph unicode="&#xdb;" horiz-adv-x="1458" d="M131 0zM131 395q0 20 102 998q4 45 89 45h16q43 0 59.5 -11.5t16.5 -33.5q-100 -950 -101 -971q0 -127 90.5 -203t258.5 -76q109 0 199.5 40t147 111t64.5 159l98 940q4 45 89 45h16q43 0 59.5 -11.5t16.5 -33.5l-99 -934q-23 -223 -181.5 -347t-426.5 -124 q-250 0 -382 106.5t-132 300.5zM542 1566q0 18 15 41l135 180q33 45 98 45h51q66 0 91 -45l96 -180q10 -14 10 -35q-4 -31 -53 -30h-4q-39 0 -66 26l-112 152l-142 -152q-33 -27 -71 -26h-5q-43 0 -43 24z" />
<glyph unicode="&#xdc;" horiz-adv-x="1458" d="M131 0zM131 395q0 20 102 998q4 45 89 45h16q43 0 59.5 -11.5t16.5 -33.5q-100 -950 -101 -971q0 -127 90.5 -203t258.5 -76q109 0 199.5 40t147 111t64.5 159l98 940q4 45 89 45h16q43 0 59.5 -11.5t16.5 -33.5l-99 -934q-23 -223 -181.5 -347t-426.5 -124 q-250 0 -382 106.5t-132 300.5zM573 1650l10 105q6 45 95 45q43 0 60 -11.5t17 -33.5l-10 -105q-6 -45 -94 -45q-43 0 -60.5 11.5t-17.5 33.5zM868 1650l10 105q4 45 94 45q43 0 60.5 -11.5t17.5 -33.5l-10 -105q-6 -45 -94 -45q-43 0 -60.5 11.5t-17.5 33.5z" />
<glyph unicode="&#xdd;" horiz-adv-x="1144" d="M109 0zM109 1399q0 20 21.5 29.5t74.5 9.5h22q35 0 55.5 -6.5t30.5 -24.5l283 -504l397 506q20 29 94 29h19q74 -2 74 -33q0 -10 -21 -39l-497 -637l-72 -688q-6 -45 -86 -45h-17q-43 0 -60 11t-17 34l71 694l-360 631q-12 18 -12 33zM577 1579q0 14 28 59t114 170 q20 29 51.5 41t81.5 12q96 1 96 -24q0 -12 -20.5 -36t-112.5 -120l-84 -84q-18 -18 -47 -27.5t-62 -9.5q-45 0 -45 19z" />
<glyph unicode="&#xde;" horiz-adv-x="1161" d="M102 41l142 1352q6 45 86 45h16q43 0 60.5 -11.5t17.5 -33.5l-23 -209h297q166 0 293 -74t127 -268q0 -197 -85 -303.5t-193.5 -142.5t-206.5 -36h-318l-32 -319q-6 -45 -86 -45h-17q-43 0 -60.5 11t-17.5 34zM332 516h319q53 0 116.5 25.5t113 92t49.5 183.5t-75 164 t-179 47h-291z" />
<glyph unicode="&#xdf;" horiz-adv-x="1134" d="M111 41l108 1026q10 111 70.5 197t157 134t217.5 48q167 0 268.5 -70.5t101.5 -226.5q0 -106 -65.5 -208.5t-177.5 -147.5v-7q113 -27 172 -111.5t59 -203.5q0 -147 -67.5 -253.5t-179 -162t-240.5 -55.5h-70q-20 0 -27.5 14.5t-7.5 40.5q0 92 51 92h72q78 0 143.5 38 t105.5 109t40 167q0 109 -65.5 172t-166.5 63h-71q-20 0 -27.5 14.5t-7.5 41.5q0 92 51 92h25q70 0 132 37t100 99t38 136q0 100 -58.5 141t-148.5 41q-104 0 -173 -62t-79 -169l-108 -1026q-6 -45 -86 -45h-9q-43 0 -60 11t-17 34z" />
<glyph unicode="&#xe0;" horiz-adv-x="1116" d="M82 0zM82 430q0 190 62.5 339t176 231.5t263.5 82.5q143 0 260 -110q18 55 35.5 78.5t56.5 23.5h12q29 0 40 -10t11 -33q-12 -119 -46.5 -448.5t-34.5 -364.5q0 -55 19 -69.5t54 -14.5q14 0 30.5 5t25.5 5q12 0 12 -14q0 -31 -8 -76q-6 -35 -46 -51t-77 -16 q-184 0 -185 200v21q-59 -115 -142 -168t-177 -53q-78 0 -156 40t-132 138t-54 264zM260 442q0 -164 55.5 -234.5t147.5 -70.5q82 0 166 81t141 265q8 98 16.5 172t10.5 97q4 36 16 102q-100 80 -213 80q-186 0 -263 -138.5t-77 -353.5zM336 1475q2 14 26 19t73 5t79.5 -12 t47.5 -41q72 -125 95 -170t23 -59q0 -18 -47 -19q-33 0 -61.5 9.5t-42.5 27.5l-72 80q-84 96 -102.5 120.5t-18.5 39.5z" />
<glyph unicode="&#xe1;" horiz-adv-x="1116" d="M82 0zM82 430q0 190 62.5 339t176 231.5t263.5 82.5q143 0 260 -110q18 55 35.5 78.5t56.5 23.5h12q29 0 40 -10t11 -33q-12 -119 -46.5 -448.5t-34.5 -364.5q0 -55 19 -69.5t54 -14.5q14 0 30.5 5t25.5 5q12 0 12 -14q0 -31 -8 -76q-6 -35 -46 -51t-77 -16 q-184 0 -185 200v21q-59 -115 -142 -168t-177 -53q-78 0 -156 40t-132 138t-54 264zM260 442q0 -164 55.5 -234.5t147.5 -70.5q82 0 166 81t141 265q8 98 16.5 172t10.5 97q4 36 16 102q-100 80 -213 80q-186 0 -263 -138.5t-77 -353.5zM502 1217q0 14 28 59t114 170 q20 29 51.5 41t81.5 12q96 1 96 -24q0 -12 -20.5 -36t-112.5 -120l-84 -84q-18 -18 -47 -27.5t-62 -9.5q-45 0 -45 19z" />
<glyph unicode="&#xe2;" horiz-adv-x="1116" d="M82 0zM82 430q0 190 62.5 339t176 231.5t263.5 82.5q143 0 260 -110q18 55 35.5 78.5t56.5 23.5h12q29 0 40 -10t11 -33q-12 -119 -46.5 -448.5t-34.5 -364.5q0 -55 19 -69.5t54 -14.5q14 0 30.5 5t25.5 5q12 0 12 -14q0 -31 -8 -76q-6 -35 -46 -51t-77 -16 q-184 0 -185 200v21q-59 -115 -142 -168t-177 -53q-78 0 -156 40t-132 138t-54 264zM260 442q0 -164 55.5 -234.5t147.5 -70.5q82 0 166 81t141 265q8 98 16.5 172t10.5 97q4 36 16 102q-100 80 -213 80q-186 0 -263 -138.5t-77 -353.5zM331 1204q0 18 15 41l135 180 q33 45 98 45h51q66 0 91 -45l96 -180q10 -14 10 -35q-4 -31 -53 -30h-4q-39 0 -66 26l-112 152l-142 -152q-33 -27 -71 -26h-5q-43 0 -43 24z" />
<glyph unicode="&#xe3;" horiz-adv-x="1116" d="M82 0zM82 430q0 190 62.5 339t176 231.5t263.5 82.5q143 0 260 -110q18 55 35.5 78.5t56.5 23.5h12q29 0 40 -10t11 -33q-12 -119 -46.5 -448.5t-34.5 -364.5q0 -55 19 -69.5t54 -14.5q14 0 30.5 5t25.5 5q12 0 12 -14q0 -31 -8 -76q-6 -35 -46 -51t-77 -16 q-184 0 -185 200v21q-59 -115 -142 -168t-177 -53q-78 0 -156 40t-132 138t-54 264zM234 1245q0 12 6 27q33 76 79 108.5t110 32.5q43 0 86 -11t112 -36q59 -20 93 -30.5t65 -10.5q29 0 49.5 13.5t40.5 45.5q20 29 41 29q12 0 20 -4l17 -6q23 -8 22 -25q0 -12 -8 -28 q-33 -74 -78 -107t-108 -33q-74 0 -205 50q-57 20 -92 29t-66 9q-27 0 -45 -13t-41 -48q-12 -16 -19 -22.5t-18 -6.5q-12 0 -20 4l-21 9q-20 8 -20 24zM260 442q0 -164 55.5 -234.5t147.5 -70.5q82 0 166 81t141 265q8 98 16.5 172t10.5 97q4 36 16 102q-100 80 -213 80 q-186 0 -263 -138.5t-77 -353.5z" />
<glyph unicode="&#xe4;" horiz-adv-x="1116" d="M82 0zM82 430q0 190 62.5 339t176 231.5t263.5 82.5q143 0 260 -110q18 55 35.5 78.5t56.5 23.5h12q29 0 40 -10t11 -33q-12 -119 -46.5 -448.5t-34.5 -364.5q0 -55 19 -69.5t54 -14.5q14 0 30.5 5t25.5 5q12 0 12 -14q0 -31 -8 -76q-6 -35 -46 -51t-77 -16 q-184 0 -185 200v21q-59 -115 -142 -168t-177 -53q-78 0 -156 40t-132 138t-54 264zM260 442q0 -164 55.5 -234.5t147.5 -70.5q82 0 166 81t141 265q8 98 16.5 172t10.5 97q4 36 16 102q-100 80 -213 80q-186 0 -263 -138.5t-77 -353.5zM362 1288l10 105q6 45 95 45 q43 0 60 -11.5t17 -33.5l-10 -105q-6 -45 -94 -45q-43 0 -60.5 11.5t-17.5 33.5zM657 1288l10 105q4 45 94 45q43 0 60.5 -11.5t17.5 -33.5l-10 -105q-6 -45 -94 -45q-43 0 -60.5 11.5t-17.5 33.5z" />
<glyph unicode="&#xe5;" horiz-adv-x="1116" d="M82 0zM82 430q0 190 62.5 339t176 231.5t263.5 82.5q143 0 260 -110q18 55 35.5 78.5t56.5 23.5h12q29 0 40 -10t11 -33q-12 -119 -46.5 -448.5t-34.5 -364.5q0 -55 19 -69.5t54 -14.5q14 0 30.5 5t25.5 5q12 0 12 -14q0 -31 -8 -76q-6 -35 -46 -51t-77 -16 q-184 0 -185 200v21q-59 -115 -142 -168t-177 -53q-78 0 -156 40t-132 138t-54 264zM260 442q0 -164 55.5 -234.5t147.5 -70.5q82 0 166 81t141 265q8 98 16.5 172t10.5 97q4 36 16 102q-100 80 -213 80q-186 0 -263 -138.5t-77 -353.5zM406 1311q0 78 57 134t133 56 q68 0 112 -45t44 -110q0 -78 -56.5 -134.5t-134.5 -56.5q-68 0 -111.5 44t-43.5 112zM477 1319q0 -41 24.5 -66.5t65.5 -25.5q47 0 80 32.5t33 79.5q0 39 -25.5 65t-64.5 26q-45 0 -79 -33t-34 -78z" />
<glyph unicode="&#xe6;" horiz-adv-x="1697" d="M59 252q0 203 174.5 274.5t460.5 79.5q25 135 90 242q-43 88 -200 88q-90 0 -160 -21.5t-117 -43t-51 -21.5q-20 0 -40.5 39t-20.5 61q0 27 57 58.5t150.5 53t191.5 21.5q104 0 182 -26.5t125 -77.5q137 104 340 104q121 0 198 -42t111.5 -104.5t34.5 -125.5 q0 -186 -156.5 -267t-396.5 -81h-176v-33q0 -162 77 -228.5t222 -66.5q86 0 149.5 22.5t125.5 57.5q35 20 43 21q8 0 11 -4.5t3 -20.5q0 -39 -10 -92q-8 -45 -69.5 -74t-137.5 -43t-129 -14q-258 0 -373 131q-72 -57 -179.5 -94t-209.5 -37q-145 0 -232.5 66.5t-87.5 197.5z M246 270q0 -133 157 -133q149 1 299 103q-25 74 -24 172v51q-432 0 -432 -193zM870 610h142q121 0 258 36t137 149q0 66 -49 103.5t-135 37.5q-294 0 -353 -326z" />
<glyph unicode="&#xe7;" horiz-adv-x="993" d="M96 418q0 291 132 478t409 187q88 0 152.5 -17t99.5 -42t35 -47q0 -23 -28 -63t-52 -40q-4 0 -19.5 9.5t-25.5 15.5q-74 37 -183 37q-156 0 -249 -122t-93 -384q0 -154 67 -224.5t212 -70.5q115 0 225 45q45 18 49 19q6 0 9.5 -4.5t3.5 -20.5q0 -41 -11 -92 q-10 -47 -84.5 -67.5t-164.5 -24.5l-37 -90h8q55 0 107.5 -27t52.5 -100q0 -119 -77 -161t-179 -42q-66 0 -132.5 18.5t-66.5 65.5q0 45 7 56t18 11q4 -2 45 -26.5t114 -24.5q123 0 123 82q0 29 -18.5 42t-52.5 24q-27 10 -39.5 18t-12.5 23q2 6 14.5 37.5t37.5 93.5 q-197 10 -296.5 112.5t-99.5 315.5z" />
<glyph unicode="&#xe8;" horiz-adv-x="1103" d="M94 0zM94 412q0 297 139.5 484t423.5 187q121 0 198 -44t111.5 -106.5t34.5 -121.5q0 -197 -157.5 -286t-394.5 -89q-101 1 -177 15v-21q0 -162 77 -228.5t222 -66.5q86 0 149.5 22.5t125.5 57.5q35 20 43 21q8 0 11 -4.5t3 -20.5q0 -39 -10 -92q-8 -45 -69.5 -74 t-137.5 -43t-129 -14q-463 0 -463 424zM283 584h145q129 0 262 39t133 172q0 59 -50 100t-134 41q-307 0 -356 -352zM391 1475q2 14 26 19t73 5t79.5 -12t47.5 -41q72 -125 95 -170t23 -59q0 -18 -47 -19q-33 0 -61.5 9.5t-42.5 27.5l-72 80q-84 96 -102.5 120.5t-18.5 39.5 z" />
<glyph unicode="&#xe9;" horiz-adv-x="1103" d="M94 0zM94 412q0 297 139.5 484t423.5 187q121 0 198 -44t111.5 -106.5t34.5 -121.5q0 -197 -157.5 -286t-394.5 -89q-101 1 -177 15v-21q0 -162 77 -228.5t222 -66.5q86 0 149.5 22.5t125.5 57.5q35 20 43 21q8 0 11 -4.5t3 -20.5q0 -39 -10 -92q-8 -45 -69.5 -74 t-137.5 -43t-129 -14q-463 0 -463 424zM283 584h145q129 0 262 39t133 172q0 59 -50 100t-134 41q-307 0 -356 -352zM557 1217q0 14 28 59t114 170q20 29 51.5 41t81.5 12q96 1 96 -24q0 -12 -20.5 -36t-112.5 -120l-84 -84q-18 -18 -47 -27.5t-62 -9.5q-45 0 -45 19z" />
<glyph unicode="&#xea;" horiz-adv-x="1103" d="M94 0zM94 412q0 297 139.5 484t423.5 187q121 0 198 -44t111.5 -106.5t34.5 -121.5q0 -197 -157.5 -286t-394.5 -89q-101 1 -177 15v-21q0 -162 77 -228.5t222 -66.5q86 0 149.5 22.5t125.5 57.5q35 20 43 21q8 0 11 -4.5t3 -20.5q0 -39 -10 -92q-8 -45 -69.5 -74 t-137.5 -43t-129 -14q-463 0 -463 424zM283 584h145q129 0 262 39t133 172q0 59 -50 100t-134 41q-307 0 -356 -352zM387 1204q0 18 15 41l135 180q33 45 98 45h51q66 0 91 -45l96 -180q10 -14 10 -35q-4 -31 -53 -30h-4q-39 0 -66 26l-112 152l-142 -152q-33 -27 -71 -26 h-5q-43 0 -43 24z" />
<glyph unicode="&#xeb;" horiz-adv-x="1103" d="M94 0zM94 412q0 297 139.5 484t423.5 187q121 0 198 -44t111.5 -106.5t34.5 -121.5q0 -197 -157.5 -286t-394.5 -89q-101 1 -177 15v-21q0 -162 77 -228.5t222 -66.5q86 0 149.5 22.5t125.5 57.5q35 20 43 21q8 0 11 -4.5t3 -20.5q0 -39 -10 -92q-8 -45 -69.5 -74 t-137.5 -43t-129 -14q-463 0 -463 424zM283 584h145q129 0 262 39t133 172q0 59 -50 100t-134 41q-307 0 -356 -352zM418 1288l10 105q6 45 95 45q43 0 60 -11.5t17 -33.5l-10 -105q-6 -45 -94 -45q-43 0 -60.5 11.5t-17.5 33.5zM713 1288l10 105q4 45 94 45 q43 0 60.5 -11.5t17.5 -33.5l-10 -105q-6 -45 -94 -45q-43 0 -60.5 11.5t-17.5 33.5z" />
<glyph unicode="&#xec;" horiz-adv-x="542" d="M55 0zM55 1475q2 14 26 19t73 5t79.5 -12t47.5 -41q72 -125 95 -170t23 -59q0 -18 -47 -19q-33 0 -61.5 9.5t-42.5 27.5l-72 80q-84 96 -102.5 120.5t-18.5 39.5zM129 182q0 57 40 452.5t44 395.5q2 25 23.5 35t62.5 10h8q43 0 60.5 -11t17.5 -34q-12 -119 -47 -445.5 t-35 -365.5q0 -55 18.5 -69.5t53.5 -14.5q14 0 30.5 5t24.5 5q12 0 12 -14q0 -31 -8 -76q-6 -35 -46 -51t-77 -16q-182 0 -182 194z" />
<glyph unicode="&#xed;" horiz-adv-x="542" d="M129 0zM129 182q0 57 40 452.5t44 395.5q2 25 23.5 35t62.5 10h8q43 0 60.5 -11t17.5 -34q-12 -119 -47 -445.5t-35 -365.5q0 -55 18.5 -69.5t53.5 -14.5q14 0 30.5 5t24.5 5q12 0 12 -14q0 -31 -8 -76q-6 -35 -46 -51t-77 -16q-182 0 -182 194zM221 1217q0 14 28 59 t114 170q20 29 51.5 41t81.5 12q96 1 96 -24q0 -12 -20.5 -36t-112.5 -120l-84 -84q-18 -18 -47 -27.5t-62 -9.5q-45 0 -45 19z" />
<glyph unicode="&#xee;" horiz-adv-x="542" d="M51 0zM51 1204q0 18 15 41l135 180q33 45 98 45h51q66 0 91 -45l96 -180q10 -14 10 -35q-4 -31 -53 -30h-4q-39 0 -66 26l-112 152l-142 -152q-33 -27 -71 -26h-5q-43 0 -43 24zM129 182q0 57 40 452.5t44 395.5q2 25 23.5 35t62.5 10h8q43 0 60.5 -11t17.5 -34 q-12 -119 -47 -445.5t-35 -365.5q0 -55 18.5 -69.5t53.5 -14.5q14 0 30.5 5t24.5 5q12 0 12 -14q0 -31 -8 -76q-6 -35 -46 -51t-77 -16q-182 0 -182 194z" />
<glyph unicode="&#xef;" horiz-adv-x="542" d="M82 0zM82 1288l10 105q6 45 95 45q43 0 60 -11.5t17 -33.5l-10 -105q-6 -45 -94 -45q-43 0 -60.5 11.5t-17.5 33.5zM129 182q0 57 40 452.5t44 395.5q2 25 23.5 35t62.5 10h8q43 0 60.5 -11t17.5 -34q-12 -119 -47 -445.5t-35 -365.5q0 -55 18.5 -69.5t53.5 -14.5 q14 0 30.5 5t24.5 5q12 0 12 -14q0 -31 -8 -76q-6 -35 -46 -51t-77 -16q-182 0 -182 194zM377 1288l10 105q4 45 94 45q43 0 60.5 -11.5t17.5 -33.5l-10 -105q-6 -45 -94 -45q-43 0 -60.5 11.5t-17.5 33.5z" />
<glyph unicode="&#xf0;" horiz-adv-x="1165" d="M86 424q0 207 65.5 355.5t187.5 226t286 77.5q88 0 161 -24q-35 94 -75 184l-179 -24q-18 0 -32.5 19t-14.5 42q0 25 35 31l150 20q-20 37 -47 80q-8 10 -9 21q0 18 25 20q49 8 76 8q34 1 59 -30l53 -78l162 22q23 0 33 -21.5t10 -39.5q0 -29 -33 -31l-125 -16 q164 -307 164 -621q0 -317 -139 -487t-389 -170q-207 0 -315.5 111.5t-108.5 324.5zM262 432q0 -152 62.5 -224.5t193.5 -72.5q166 0 254 124t88 376q0 152 -63.5 226.5t-194.5 74.5q-164 0 -252 -126t-88 -378z" />
<glyph unicode="&#xf1;" horiz-adv-x="1140" d="M76 0zM76 39q14 127 52 482.5t38 414.5q0 37 -1 50t-1 20q0 29 41 38t74 9q53 0 53 -138v-38q152 207 362 206q141 0 206 -71.5t65 -194.5q-2 -33 -10.5 -107.5t-16.5 -166.5q-33 -291 -33 -324q0 -55 19.5 -69.5t54.5 -14.5q14 0 30.5 5t24.5 5q13 0 13 -14 q0 -31 -9 -76q-6 -35 -46 -51t-77 -16q-184 0 -184 200q0 45 35 359q23 207 22 229q0 158 -155 158q-84 0 -175 -76t-151 -254q-20 -199 -36.5 -355.5t-22.5 -207.5q-6 -45 -86 -45h-8q-78 0 -78 43zM246 1245q0 12 6 27q33 76 79 108.5t110 32.5q43 0 86 -11t112 -36 q59 -20 93 -30.5t65 -10.5q29 0 49.5 13.5t40.5 45.5q20 29 41 29q12 0 20 -4l17 -6q23 -8 22 -25q0 -12 -8 -28q-33 -74 -78 -107t-108 -33q-74 0 -205 50q-57 20 -92 29t-66 9q-27 0 -45 -13t-41 -48q-12 -16 -19 -22.5t-18 -6.5q-12 0 -20 4l-21 9q-20 8 -20 24z" />
<glyph unicode="&#xf2;" horiz-adv-x="1165" d="M92 0zM92 428q0 178 57.5 326.5t178.5 238.5t305 90q201 0 306 -113.5t105 -330.5q0 -313 -140 -482t-388 -169q-209 0 -316.5 112.5t-107.5 327.5zM268 434q0 -152 63.5 -225.5t194.5 -73.5q164 0 252 128t88 372q0 154 -62.5 227.5t-193.5 73.5q-166 0 -254 -133 t-88 -369zM381 1475q2 14 26 19t73 5t79.5 -12t47.5 -41q72 -125 95 -170t23 -59q0 -18 -47 -19q-33 0 -61.5 9.5t-42.5 27.5l-72 80q-84 96 -102.5 120.5t-18.5 39.5z" />
<glyph unicode="&#xf3;" horiz-adv-x="1165" d="M92 0zM92 428q0 178 57.5 326.5t178.5 238.5t305 90q201 0 306 -113.5t105 -330.5q0 -313 -140 -482t-388 -169q-209 0 -316.5 112.5t-107.5 327.5zM268 434q0 -152 63.5 -225.5t194.5 -73.5q164 0 252 128t88 372q0 154 -62.5 227.5t-193.5 73.5q-166 0 -254 -133 t-88 -369zM547 1217q0 14 28 59t114 170q20 29 51.5 41t81.5 12q96 1 96 -24q0 -12 -20.5 -36t-112.5 -120l-84 -84q-18 -18 -47 -27.5t-62 -9.5q-45 0 -45 19z" />
<glyph unicode="&#xf4;" horiz-adv-x="1165" d="M92 0zM92 428q0 178 57.5 326.5t178.5 238.5t305 90q201 0 306 -113.5t105 -330.5q0 -313 -140 -482t-388 -169q-209 0 -316.5 112.5t-107.5 327.5zM268 434q0 -152 63.5 -225.5t194.5 -73.5q164 0 252 128t88 372q0 154 -62.5 227.5t-193.5 73.5q-166 0 -254 -133 t-88 -369zM376 1204q0 18 15 41l135 180q33 45 98 45h51q66 0 91 -45l96 -180q10 -14 10 -35q-4 -31 -53 -30h-4q-39 0 -66 26l-112 152l-142 -152q-33 -27 -71 -26h-5q-43 0 -43 24z" />
<glyph unicode="&#xf5;" horiz-adv-x="1165" d="M92 0zM92 428q0 178 57.5 326.5t178.5 238.5t305 90q201 0 306 -113.5t105 -330.5q0 -313 -140 -482t-388 -169q-209 0 -316.5 112.5t-107.5 327.5zM268 434q0 -152 63.5 -225.5t194.5 -73.5q164 0 252 128t88 372q0 154 -62.5 227.5t-193.5 73.5q-166 0 -254 -133 t-88 -369zM279 1245q0 12 6 27q33 76 79 108.5t110 32.5q43 0 86 -11t112 -36q59 -20 93 -30.5t65 -10.5q29 0 49.5 13.5t40.5 45.5q20 29 41 29q12 0 20 -4l17 -6q23 -8 22 -25q0 -12 -8 -28q-33 -74 -78 -107t-108 -33q-74 0 -205 50q-57 20 -92 29t-66 9q-27 0 -45 -13 t-41 -48q-12 -16 -19 -22.5t-18 -6.5q-12 0 -20 4l-21 9q-20 8 -20 24z" />
<glyph unicode="&#xf6;" horiz-adv-x="1165" d="M92 0zM92 428q0 178 57.5 326.5t178.5 238.5t305 90q201 0 306 -113.5t105 -330.5q0 -313 -140 -482t-388 -169q-209 0 -316.5 112.5t-107.5 327.5zM268 434q0 -152 63.5 -225.5t194.5 -73.5q164 0 252 128t88 372q0 154 -62.5 227.5t-193.5 73.5q-166 0 -254 -133 t-88 -369zM407 1288l10 105q6 45 95 45q43 0 60 -11.5t17 -33.5l-10 -105q-6 -45 -94 -45q-43 0 -60.5 11.5t-17.5 33.5zM702 1288l10 105q4 45 94 45q43 0 60.5 -11.5t17.5 -33.5l-10 -105q-6 -45 -94 -45q-43 0 -60.5 11.5t-17.5 33.5z" />
<glyph unicode="&#xf7;" horiz-adv-x="1146" d="M96 465q0 76 70 76h827q31 0 43.5 -14.5t12.5 -47.5q0 -39 -18.5 -57.5t-51.5 -18.5h-827q-31 0 -43.5 15.5t-12.5 46.5zM440 41l13 104q4 45 86 45h8q43 0 60.5 -11t17.5 -34l-13 -104q-6 -45 -86 -45h-8q-43 0 -60.5 11t-17.5 34zM520 799l12 104q4 45 86 45h9 q43 0 60.5 -11t17.5 -34l-13 -104q-6 -45 -86 -45h-8q-43 0 -60.5 11t-17.5 34z" />
<glyph unicode="&#xf8;" horiz-adv-x="1165" d="M76 45q0 12 10 23l84 86q-66 100 -66 274q0 178 57.5 326.5t178.5 238.5t305 90q203 0 309 -116l90 92q10 12 21 12q10 0 22 -12l11 -10q12 -12 12 -23q0 -8 -10 -22l-101 -103q57 -102 58 -262q0 -313 -140.5 -482t-388.5 -169q-203 0 -309 104l-78 -80q-12 -12 -20 -12 q-10 0 -23 12l-10 11q-12 12 -12 22zM281 434q0 -88 18 -145l532 551q-61 96 -208 96q-166 0 -254 -133t-88 -369zM338 215q66 -80 201 -80q163 0 251.5 128t88.5 372q0 76 -15 125z" />
<glyph unicode="&#xf9;" horiz-adv-x="1140" d="M117 0zM117 254q0 16 32.5 337.5t45.5 438.5q2 25 23.5 35t62.5 10h8q43 0 60.5 -11t17.5 -34q-12 -111 -43 -414t-31 -321q0 -158 156 -158q86 0 177 80t150 268l58 545q2 25 23.5 35t62.5 10h8q43 0 60.5 -11t17.5 -34q-12 -119 -46 -445.5t-34 -365.5 q0 -55 19.5 -69.5t53.5 -14.5q14 0 31 5t25 5q12 0 12 -14q0 -31 -8 -76q-6 -35 -46 -51t-77 -16q-184 0 -184 200v21q-78 -115 -171.5 -168t-193.5 -53q-141 0 -205.5 71.5t-64.5 194.5zM368 1475q2 14 26 19t73 5t79.5 -12t47.5 -41q72 -125 95 -170t23 -59q0 -18 -47 -19 q-33 0 -61.5 9.5t-42.5 27.5l-72 80q-84 96 -102.5 120.5t-18.5 39.5z" />
<glyph unicode="&#xfa;" horiz-adv-x="1140" d="M117 0zM117 254q0 16 32.5 337.5t45.5 438.5q2 25 23.5 35t62.5 10h8q43 0 60.5 -11t17.5 -34q-12 -111 -43 -414t-31 -321q0 -158 156 -158q86 0 177 80t150 268l58 545q2 25 23.5 35t62.5 10h8q43 0 60.5 -11t17.5 -34q-12 -119 -46 -445.5t-34 -365.5 q0 -55 19.5 -69.5t53.5 -14.5q14 0 31 5t25 5q12 0 12 -14q0 -31 -8 -76q-6 -35 -46 -51t-77 -16q-184 0 -184 200v21q-78 -115 -171.5 -168t-193.5 -53q-141 0 -205.5 71.5t-64.5 194.5zM534 1217q0 14 28 59t114 170q20 29 51.5 41t81.5 12q96 1 96 -24q0 -12 -20.5 -36 t-112.5 -120l-84 -84q-18 -18 -47 -27.5t-62 -9.5q-45 0 -45 19z" />
<glyph unicode="&#xfb;" horiz-adv-x="1140" d="M117 0zM117 254q0 16 32.5 337.5t45.5 438.5q2 25 23.5 35t62.5 10h8q43 0 60.5 -11t17.5 -34q-12 -111 -43 -414t-31 -321q0 -158 156 -158q86 0 177 80t150 268l58 545q2 25 23.5 35t62.5 10h8q43 0 60.5 -11t17.5 -34q-12 -119 -46 -445.5t-34 -365.5 q0 -55 19.5 -69.5t53.5 -14.5q14 0 31 5t25 5q12 0 12 -14q0 -31 -8 -76q-6 -35 -46 -51t-77 -16q-184 0 -184 200v21q-78 -115 -171.5 -168t-193.5 -53q-141 0 -205.5 71.5t-64.5 194.5zM364 1204q0 18 15 41l135 180q33 45 98 45h51q66 0 91 -45l96 -180q10 -14 10 -35 q-4 -31 -53 -30h-4q-39 0 -66 26l-112 152l-142 -152q-33 -27 -71 -26h-5q-43 0 -43 24z" />
<glyph unicode="&#xfc;" horiz-adv-x="1140" d="M117 0zM117 254q0 16 32.5 337.5t45.5 438.5q2 25 23.5 35t62.5 10h8q43 0 60.5 -11t17.5 -34q-12 -111 -43 -414t-31 -321q0 -158 156 -158q86 0 177 80t150 268l58 545q2 25 23.5 35t62.5 10h8q43 0 60.5 -11t17.5 -34q-12 -119 -46 -445.5t-34 -365.5 q0 -55 19.5 -69.5t53.5 -14.5q14 0 31 5t25 5q12 0 12 -14q0 -31 -8 -76q-6 -35 -46 -51t-77 -16q-184 0 -184 200v21q-78 -115 -171.5 -168t-193.5 -53q-141 0 -205.5 71.5t-64.5 194.5zM395 1288l10 105q6 45 95 45q43 0 60 -11.5t17 -33.5l-10 -105q-6 -45 -94 -45 q-43 0 -60.5 11.5t-17.5 33.5zM690 1288l10 105q4 45 94 45q43 0 60.5 -11.5t17.5 -33.5l-10 -105q-6 -45 -94 -45q-43 0 -60.5 11.5t-17.5 33.5z" />
<glyph unicode="&#xfd;" horiz-adv-x="985" d="M84 0zM84 1040q0 16 23.5 25.5t68.5 9.5h17q70 0 77 -33l158 -577l43 -162h4q31 76 72 162l274 577q16 33 88 33h6q78 0 78 -33q0 -12 -8 -30l-674 -1395q-20 -43 -100 -43h-31q-63 0 -63 31q0 10 14 37l215 415q-152 557 -207 765t-55 218zM477 1217q0 14 28 59t114 170 q20 29 51.5 41t81.5 12q96 1 96 -24q0 -12 -20.5 -36t-112.5 -120l-84 -84q-18 -18 -47 -27.5t-62 -9.5q-45 0 -45 19z" />
<glyph unicode="&#xfe;" horiz-adv-x="1167" d="M74 -383l198 1878q2 20 24.5 32.5t61.5 12.5h9q77 0 77 -43l-63 -604q61 98 142 144t175 46q82 0 162 -39.5t135.5 -138t55.5 -264.5q0 -190 -59.5 -338.5t-169 -231.5t-255.5 -83q-88 0 -156.5 31.5t-115.5 72.5l-49 -473q-2 -20 -25.5 -32.5t-60.5 -12.5h-8 q-78 0 -78 43zM309 225q102 -90 234 -90q182 0 255.5 139.5t73.5 354.5q0 305 -213 305q-79 0 -163 -71.5t-144 -237.5z" />
<glyph unicode="&#xff;" horiz-adv-x="985" d="M84 0zM84 1040q0 16 23.5 25.5t68.5 9.5h17q70 0 77 -33l158 -577l43 -162h4q31 76 72 162l274 577q16 33 88 33h6q78 0 78 -33q0 -12 -8 -30l-674 -1395q-20 -43 -100 -43h-31q-63 0 -63 31q0 10 14 37l215 415q-152 557 -207 765t-55 218zM338 1288l10 105q6 45 95 45 q43 0 60 -11.5t17 -33.5l-10 -105q-6 -45 -94 -45q-43 0 -60.5 11.5t-17.5 33.5zM633 1288l10 105q4 45 94 45q43 0 60.5 -11.5t17.5 -33.5l-10 -105q-6 -45 -94 -45q-43 0 -60.5 11.5t-17.5 33.5z" />
<glyph unicode="&#x152;" horiz-adv-x="2091" d="M109 578q0 424 189 646t525 222q139 0 249 -41t183 -117l11 84q2 33 18 47.5t49 14.5h723q35 0 35 -45q0 -51 -9 -81t-42 -30h-604l-50 -467h541q35 0 35 -45q0 -51 -9 -81t-42 -30h-541l-51 -499h606q35 0 35 -45q0 -51 -9 -81t-42 -30h-725q-29 0 -42.5 11.5 t-13.5 37.5q0 12 11 101q-88 -78 -208 -120t-261 -42q-274 0 -417.5 149.5t-143.5 440.5zM295 596q0 -223 99.5 -338t291.5 -115q156 0 271.5 81t179 237.5t63.5 378.5q0 223 -100.5 336.5t-292.5 113.5q-238 0 -375 -178t-137 -516z" />
<glyph unicode="&#x153;" horiz-adv-x="1783" d="M104 428q0 178 57.5 326.5t178.5 238.5t305 90q199 0 318 -125q141 125 364 125q121 0 198 -44t111.5 -106.5t34.5 -121.5q0 -197 -157.5 -286t-395.5 -89q-100 1 -176 15v-21q0 -162 77 -228.5t222 -66.5q86 0 149.5 22.5t125.5 57.5q35 20 43 21q8 0 11 -4.5t3 -20.5 q0 -39 -10 -92q-8 -45 -69.5 -74t-137.5 -43t-129 -14q-244 0 -359 114q-127 -115 -340 -114q-209 0 -316.5 112.5t-107.5 327.5zM281 434q0 -152 63.5 -225.5t194.5 -73.5q157 0 245 119q-20 76 -20 158q0 236 84 397q-55 127 -225 127q-166 0 -254 -133t-88 -369zM952 584 h146q129 0 262 39t133 172q0 59 -50 100t-134 41q-308 0 -357 -352z" />
<glyph unicode="&#x178;" horiz-adv-x="1144" d="M109 0zM109 1399q0 20 21.5 29.5t74.5 9.5h22q35 0 55.5 -6.5t30.5 -24.5l283 -504l397 506q20 29 94 29h19q74 -2 74 -33q0 -10 -21 -39l-497 -637l-72 -688q-6 -45 -86 -45h-17q-43 0 -60 11t-17 34l71 694l-360 631q-12 18 -12 33zM438 1650l10 105q6 45 95 45 q43 0 60 -11.5t17 -33.5l-10 -105q-6 -45 -94 -45q-43 0 -60.5 11.5t-17.5 33.5zM733 1650l10 105q4 45 94 45q43 0 60.5 -11.5t17.5 -33.5l-10 -105q-6 -45 -94 -45q-43 0 -60.5 11.5t-17.5 33.5z" />
<glyph unicode="&#x2c6;" d="M61 1204q0 18 15 41l135 180q33 45 98 45h51q66 0 91 -45l96 -180q10 -14 10 -35q-4 -31 -53 -30h-4q-39 0 -66 26l-112 152l-142 -152q-33 -27 -71 -26h-5q-43 0 -43 24z" />
<glyph unicode="&#x2dc;" horiz-adv-x="747" d="M84 1245q0 12 6 27q33 76 79 108.5t110 32.5q43 0 86 -11t112 -36q59 -20 93 -30.5t65 -10.5q29 0 49.5 13.5t40.5 45.5q20 29 41 29q12 0 20 -4l17 -6q23 -8 22 -25q0 -12 -8 -28q-33 -74 -78 -107t-108 -33q-74 0 -205 50q-57 20 -92 29t-66 9q-27 0 -45 -13t-41 -48 q-12 -16 -19 -22.5t-18 -6.5q-12 0 -20 4l-21 9q-20 8 -20 24z" />
<glyph unicode="&#x2000;" horiz-adv-x="931" />
<glyph unicode="&#x2001;" horiz-adv-x="1863" />
<glyph unicode="&#x2002;" horiz-adv-x="931" />
<glyph unicode="&#x2003;" horiz-adv-x="1863" />
<glyph unicode="&#x2004;" horiz-adv-x="621" />
<glyph unicode="&#x2005;" horiz-adv-x="465" />
<glyph unicode="&#x2006;" horiz-adv-x="310" />
<glyph unicode="&#x2007;" horiz-adv-x="310" />
<glyph unicode="&#x2008;" horiz-adv-x="232" />
<glyph unicode="&#x2009;" horiz-adv-x="372" />
<glyph unicode="&#x200a;" horiz-adv-x="103" />
<glyph unicode="&#x2010;" d="M82 524q0 92 51 92h397q21 0 28 -14t7 -41q0 -92 -51 -92h-397q-20 0 -27.5 14.5t-7.5 40.5z" />
<glyph unicode="&#x2011;" d="M82 524q0 92 51 92h397q21 0 28 -14t7 -41q0 -92 -51 -92h-397q-20 0 -27.5 14.5t-7.5 40.5z" />
<glyph unicode="&#x2012;" d="M82 524q0 92 51 92h397q21 0 28 -14t7 -41q0 -92 -51 -92h-397q-20 0 -27.5 14.5t-7.5 40.5z" />
<glyph unicode="&#x2013;" horiz-adv-x="1024" d="M-2 526q0 92 51 92h942q21 0 28 -14t7 -41q0 -92 -51 -92h-942q-20 0 -27.5 14.5t-7.5 40.5z" />
<glyph unicode="&#x2014;" horiz-adv-x="2048" d="M-2 526q0 92 51 92h1962q21 0 28 -14t7 -41q0 -92 -51 -92h-1962q-20 0 -27.5 14.5t-7.5 40.5z" />
<glyph unicode="&#x2018;" horiz-adv-x="434" d="M100 1145q12 115 57.5 206t101.5 143t93 52q23 0 40.5 -7t17.5 -21q0 -10 -7.5 -22.5t-9.5 -14.5q-51 -78 -75.5 -152t-34.5 -176q-4 -31 -25.5 -48.5t-62.5 -17.5h-19q-76 0 -76 58z" />
<glyph unicode="&#x2019;" horiz-adv-x="434" d="M41 1114q0 10 7 22.5t9 14.5q51 78 76 151.5t35 176.5q4 31 25.5 48t62.5 17h18q76 0 76 -57q-12 -115 -57 -206t-101.5 -143.5t-93.5 -52.5q-23 0 -40 7.5t-17 21.5z" />
<glyph unicode="&#x201a;" horiz-adv-x="405" d="M2 0zM2 -209q0 10 7 22.5t9 14.5q51 78 76 151.5t35 176.5q4 31 25.5 48t62.5 17h19q75 0 75 -57q-12 -115 -57 -206t-101.5 -143.5t-93.5 -52.5q-23 0 -40 7.5t-17 21.5z" />
<glyph unicode="&#x201c;" horiz-adv-x="716" d="M65 1145q12 115 57.5 206t101.5 143t93 52q23 0 40.5 -7t17.5 -21q0 -10 -7.5 -22.5t-9.5 -14.5q-51 -78 -75.5 -152t-34.5 -176q-4 -31 -25.5 -48.5t-62.5 -17.5h-19q-76 0 -76 58zM66 1087zM352 1145q12 115 57.5 206t101.5 143t93 52q23 0 40.5 -7t17.5 -21 q0 -10 -7.5 -22.5t-9.5 -14.5q-51 -78 -75.5 -152t-34.5 -176q-4 -31 -25.5 -48.5t-62.5 -17.5h-19q-76 0 -76 58z" />
<glyph unicode="&#x201d;" horiz-adv-x="716" d="M45 1085zM45 1114q0 10 7 22.5t9 14.5q51 78 76 151.5t35 176.5q4 31 25.5 48t62.5 17h18q76 0 76 -57q-12 -115 -57 -206t-101.5 -143.5t-93.5 -52.5q-23 0 -40 7.5t-17 21.5zM332 1114q0 10 7 22.5t9 14.5q51 78 76 151.5t35 176.5q4 31 25.5 48t62.5 17h18 q76 0 76 -57q-12 -115 -57 -206t-101.5 -143.5t-93.5 -52.5q-23 0 -40 7.5t-17 21.5z" />
<glyph unicode="&#x201e;" horiz-adv-x="688" d="M2 0zM2 -209q0 10 7 22.5t9 14.5q51 78 76 151.5t35 176.5q4 31 25.5 48t62.5 17h19q75 0 75 -57q-12 -115 -57 -206t-101.5 -143.5t-93.5 -52.5q-23 0 -40 7.5t-17 21.5zM287 -209q0 10 7 22.5t9 14.5q51 78 76 151.5t35 176.5q4 31 25.5 48t62.5 17h19q75 0 75 -57 q-12 -115 -57 -206t-101.5 -143.5t-93.5 -52.5q-23 0 -40 7.5t-17 21.5z" />
<glyph unicode="&#x2022;" horiz-adv-x="688" d="M82 641q0 72 37 137.5t102.5 106.5t147.5 41q100 0 165.5 -65.5t65.5 -164.5q0 -78 -38 -142.5t-103.5 -103t-145.5 -38.5q-100 0 -165.5 65.5t-65.5 163.5z" />
<glyph unicode="&#x2026;" horiz-adv-x="1263" d="M96 41l15 135q4 45 86 45h34q43 0 60.5 -11t17.5 -34l-14 -135q-6 -45 -86 -45h-35q-43 0 -60.5 11t-17.5 34zM524 41l15 135q4 45 86 45h34q43 0 60.5 -11t17.5 -34l-14 -135q-6 -45 -86 -45h-35q-43 0 -60.5 11t-17.5 34zM950 41l15 135q4 45 86 45h34q43 0 60.5 -11 t17.5 -34l-14 -135q-6 -45 -86 -45h-35q-43 0 -60.5 11t-17.5 34z" />
<glyph unicode="&#x202f;" horiz-adv-x="372" />
<glyph unicode="&#x2039;" horiz-adv-x="614" d="M90 522q0 31 31 64l301 319q25 25 47 25q18 0 42 -19.5t24 -42.5q0 -12 -21 -45l-258 -295l195 -297q12 -18 12 -32q0 -18 -25.5 -46t-52.5 -28q-23 0 -43 27l-231 319q-20 29 -21 51z" />
<glyph unicode="&#x203a;" horiz-adv-x="614" d="M74 190q0 12 20 41l260 297l-196 295q-12 18 -13 35q0 27 28 49.5t50 22.5q25 0 43 -25l232 -319q23 -31 22 -58q-2 -25 -33 -57l-301 -319q-27 -27 -47 -27q-23 0 -44 22.5t-21 42.5z" />
<glyph unicode="&#x205f;" horiz-adv-x="465" />
<glyph unicode="&#x20ac;" horiz-adv-x="1228" d="M-18 524q0 96 49 97h100q2 18 6 72.5t13 117.5h-101q-35 0 -35 41q0 96 49 96h117q68 246 236 372t407 126q86 0 164 -19.5t125 -49t47 -56.5q0 -25 -29.5 -69t-50.5 -44q-4 0 -43 24.5t-97 45t-136 20.5q-168 0 -277.5 -82.5t-163.5 -267.5h570q18 0 25.5 -8t7.5 -29 q0 -8 -8.5 -32.5t-29 -46t-55.5 -21.5h-540q-18 -133 -19 -190h584q18 0 25.5 -8.5t7.5 -28.5q0 -8 -8.5 -33t-29 -46.5t-54.5 -21.5h-523q14 -178 108.5 -263t242.5 -85q100 0 172.5 27.5t115.5 53.5t47 26q12 0 13 -23q0 -16 -4 -48t-9 -65q-12 -53 -117.5 -85.5 t-217.5 -32.5q-516 0 -537 495h-113q-35 0 -34 41z" />
<glyph unicode="&#x2122;" horiz-adv-x="1581" d="M61 1380v19q0 35 23 35h541q22 0 22 -35v-19q0 -35 -22 -34h-217v-697q0 -25 -48 -24h-8q-47 0 -47 24v697h-221q-23 0 -23 34zM721 649v762q0 25 45 25h43q37 0 47 -21l219 -379l29 -71l31 65l217 385q14 20 49 21h39q45 0 45 -25v-762q0 -25 -45 -24h-8q-47 0 -48 24 v621h-4l-227 -404q-8 -14 -25 -14h-47q-16 0 -24 14l-232 410h-4v-627q0 -25 -47 -24h-8q-45 0 -45 24z" />
<glyph unicode="&#x25fc;" horiz-adv-x="1075" d="M0 0v1075h1075v-1075h-1075z" />
</font>
</defs>
</svg>
