<?xml version="1.0" standalone="no"?>
<!DOCTYPE svg PUBLIC "-//W3C//DTD SVG 1.1//EN" "http://www.w3.org/Graphics/SVG/1.1/DTD/svg11.dtd" >
<svg xmlns="http://www.w3.org/2000/svg" xmlns:xlink="http://www.w3.org/1999/xlink" version="1.1">
<metadata></metadata>
<defs>
<font id="muliextrabold_italic" horiz-adv-x="1228" >
<font-face units-per-em="2048" ascent="1638" descent="-410" />
<missing-glyph horiz-adv-x="575" />
<glyph unicode="&#xfb01;" horiz-adv-x="1347" d="M33 807l18 231h197l6 72q16 197 124.5 305.5t299.5 108.5q104 0 174 -27l-18 -242q-57 14 -101 15q-70 0 -116 -41t-54 -127l-6 -64h707l-82 -1038h-310l66 807h-399l-66 -807h-309l65 807h-196zM956 1239l23 297h336l-21 -297h-338z" />
<glyph unicode="&#xfb02;" horiz-adv-x="1349" d="M33 807l18 231h197l6 72q16 197 124.5 305.5t299.5 108.5q104 0 174 -27l-18 -242q-57 14 -101 15q-69 0 -115.5 -41t-54.5 -127l-6 -64h264l-18 -231h-264l-66 -807h-309l65 807h-196zM872 0l121 1507h309l-121 -1507h-309z" />
<glyph horiz-adv-x="0" />
<glyph unicode="&#xd;" horiz-adv-x="575" />
<glyph horiz-adv-x="0" />
<glyph horiz-adv-x="0" />
<glyph unicode=" "  horiz-adv-x="575" />
<glyph unicode="&#x09;" horiz-adv-x="575" />
<glyph unicode="&#xa0;" horiz-adv-x="575" />
<glyph unicode="!" horiz-adv-x="536" d="M61 0l27 330h334l-27 -330h-334zM154 1460l381 -2l-175 -989h-188z" />
<glyph unicode="&#x22;" horiz-adv-x="968" d="M160 1458h356l-121 -616h-207zM602 1458h356l-121 -616h-207z" />
<glyph unicode="#" horiz-adv-x="1241" d="M88 342l16 193h162l113 407h-197l15 191h235l90 325h207l-90 -325h223l90 325h207l-90 -325h121l-14 -191h-160l-113 -407h193l-15 -193h-231l-94 -342h-207l94 342h-223l-94 -342h-207l94 342h-125zM473 535h223l113 407h-223z" />
<glyph unicode="$" d="M29 145l123 230q156 -121 356 -139l31 374q-127 41 -214 85t-146.5 124t-59.5 203q0 119 59.5 216t166 158.5t243.5 76.5l18 223h248l-18 -230q252 -37 378 -153l-122 -230q-137 106 -295 134l-31 -386q125 -38 211 -81t143.5 -120t57.5 -196q0 -180 -124 -301t-335 -145 l-21 -226h-247l18 226q-141 12 -248.5 51t-191.5 106zM438 1051q0 -95 125 -148l25 314q-70 -14 -110 -58.5t-40 -107.5zM721 246q135 35 135 162q0 43 -28.5 73.5t-84.5 57.5z" />
<glyph unicode="%" horiz-adv-x="1974" d="M119 995q0 227 102.5 357.5t282.5 130.5q178 0 274 -105.5t96 -300.5q0 -231 -101 -358t-286 -127q-178 0 -273 104.5t-95 298.5zM371 969q0 -94 27.5 -138.5t86.5 -44.5q138 1 138 320q0 94 -28 138t-89 44q-135 0 -135 -319zM391 0l961 1458h266l-961 -1458h-266z M1133 391q0 225 103 355.5t284 130.5q178 0 274 -105.5t96 -300.5q0 -231 -101 -358t-286 -127q-178 0 -274 105.5t-96 299.5zM1386 362q0 -94 28 -138t87 -44q70 0 103.5 83t33.5 237q0 94 -27.5 138t-88.5 44q-135 0 -136 -320z" />
<glyph unicode="&#x26;" horiz-adv-x="1429" d="M57 387q0 147 83 251.5t237 182.5q-121 145 -121 289q0 106 53 188t147.5 127t215.5 45q178 0 283.5 -87t105.5 -232q0 -121 -68.5 -215t-216.5 -170l240 -252q90 166 112 377h256q-35 -326 -192 -557q104 -96 272 -141l-166 -213q-178 55 -288 155q-197 -152 -435 -151 q-154 0 -271.5 51t-182 143t-64.5 209zM358 408q0 -86 62.5 -137.5t169.5 -51.5q137 0 256 90l-318 346q-170 -94 -170 -247zM532 1112q0 -39 20.5 -81t72.5 -101q104 49 146 96t42 111q0 59 -35 93t-96 34q-66 0 -108 -41t-42 -111z" />
<glyph unicode="'" horiz-adv-x="526" d="M160 1458h356l-121 -616h-207z" />
<glyph unicode="(" horiz-adv-x="774" d="M203 399q0 72 6 146q18 240 98 459t244 454h248q-137 -281 -195.5 -488.5t-75.5 -424.5q-8 -82 -8 -185q0 -160 30 -333.5t97 -399.5h-239q-109 213 -157 396.5t-48 375.5z" />
<glyph unicode=")" horiz-adv-x="776" d="M-18 -373q135 285 193 492t77 426q8 123 8 182q0 164 -29.5 337t-101.5 394h244q106 -203 155.5 -390t49.5 -382q0 -70 -7 -141q-18 -238 -97 -452t-245 -466h-247z" />
<glyph unicode="*" horiz-adv-x="940" d="M94 1106l84 203l256 -105l8 285h211l-41 -283l277 103l51 -203l-287 -72l166 -221l-180 -125l-135 240l-172 -240l-162 125l197 221z" />
<glyph unicode="+" d="M111 487l16 211h397l33 400h211l-33 -400h400l-19 -211h-397l-33 -399h-211l33 399h-397z" />
<glyph unicode="," horiz-adv-x="536" d="M61 0l27 330h334l-16 -205q-10 -123 -59.5 -222.5t-158.5 -197.5l-114 94q111 106 141 201h-154z" />
<glyph unicode="-" horiz-adv-x="909" d="M131 432l19 244h638l-20 -244h-637z" />
<glyph unicode="." horiz-adv-x="536" d="M61 0l27 330h334l-27 -330h-334z" />
<glyph unicode="/" horiz-adv-x="681" d="M-100 -125l663 1671h254l-663 -1671h-254z" />
<glyph unicode="0" d="M84 633q0 264 68.5 453.5t198.5 289t313 99.5q252 0 385 -167t133 -483q0 -264 -69 -453.5t-200 -288.5t-313 -99q-252 0 -384 165.5t-132 483.5zM397 590q0 -186 51.5 -273.5t159.5 -87.5q127 0 193.5 162t66.5 477q0 186 -51 273.5t-160 87.5q-127 0 -193.5 -164 t-66.5 -475z" />
<glyph unicode="1" d="M172 0l21 256h311l69 844l-307 -172l21 280l448 250h187l-97 -1202h318l-23 -256h-948z" />
<glyph unicode="2" d="M92 0l19 236l528 514q180 178 180 315q0 78 -50 119t-148 41q-188 0 -388 -142l-83 230q201 164 509 164q219 0 346.5 -110t127.5 -300q0 -119 -60.5 -225.5t-208.5 -249.5l-350 -336h600l-20 -256h-1002z" />
<glyph unicode="3" d="M37 147l121 230q190 -141 407 -141q121 0 184.5 51t63.5 145t-59.5 137t-184.5 43h-204l20 250h174q129 0 195.5 51.5t66.5 147.5q0 80 -52 122t-151 42q-197 0 -385 -142l-83 230q90 78 224 121t283 43q139 0 247 -46.5t168.5 -130t60.5 -194.5q0 -129 -68 -221 t-193 -140q113 -36 177.5 -116t64.5 -197q0 -131 -65.5 -232.5t-189.5 -158.5t-298 -57q-156 0 -291 43t-233 120z" />
<glyph unicode="4" d="M47 266l16 238l744 954h260l-74 -944h201l-20 -248h-199l-21 -266h-313l21 266h-615zM369 514h311l35 451z" />
<glyph unicode="5" d="M78 147l121 230q180 -141 397 -141q125 0 194.5 63t69.5 178q0 102 -63.5 160.5t-178.5 58.5q-78 0 -148.5 -25.5t-121.5 -74.5h-182l67 862h936l-20 -246h-623l-26 -317q98 49 219 49q131 0 232.5 -54t157.5 -152.5t56 -225.5q0 -164 -69.5 -282.5t-196.5 -182 t-299 -63.5q-154 0 -288 43t-234 120z" />
<glyph unicode="6" d="M84 629q0 258 79 449.5t225.5 295t342.5 103.5q135 0 265 -43t231 -121l-121 -230q-88 70 -181.5 106t-179.5 36q-143 0 -229 -112t-110 -333q51 76 137 120t184 44q125 0 223.5 -57.5t153.5 -158.5t55 -232q0 -147 -64.5 -264t-180 -183.5t-261.5 -66.5 q-272 0 -420.5 167.5t-148.5 479.5zM422 453q0 -98 61.5 -160t157.5 -62t155.5 68t59.5 180q0 100 -57.5 158.5t-153.5 58.5q-98 0 -160.5 -67.5t-62.5 -175.5z" />
<glyph unicode="7" d="M129 0l719 1202h-701l21 256h1044l-16 -237l-729 -1221h-338z" />
<glyph unicode="8" d="M43 383q0 135 89 233.5t243 135.5q-113 41 -176.5 127t-63.5 194q0 127 73 218t198.5 138.5t283.5 47.5q143 0 256 -44t176.5 -128t63.5 -195q0 -129 -79 -224t-212 -134q129 -39 200.5 -130.5t71.5 -213.5q0 -133 -74.5 -229.5t-205.5 -145.5t-295 -49 q-258 0 -403.5 104.5t-145.5 294.5zM346 416q0 -92 66.5 -139.5t187.5 -47.5t195.5 53.5t74.5 153.5q0 82 -65.5 133.5t-179.5 69.5q-279 -43 -279 -223zM434 1040q0 -84 56.5 -135t150.5 -69q240 45 240 227q0 82 -57.5 125t-157.5 43q-106 0 -169 -48t-63 -143z" />
<glyph unicode="9" d="M39 145l121 230q86 -70 179 -106t181 -36q143 0 230.5 113t107.5 334q-51 -76 -136 -121t-183 -45q-125 0 -223.5 57.5t-154 158.5t-55.5 233q0 147 65 263.5t179.5 183.5t259.5 67q275 0 423.5 -169t148.5 -479q0 -258 -79 -449.5t-225.5 -294.5t-342.5 -103 q-137 0 -267.5 43t-228.5 120zM408 979q0 -100 57 -158.5t153 -58.5q99 0 161.5 66.5t62.5 177.5q0 98 -57.5 159.5t-149.5 61.5q-102 0 -164.5 -67.5t-62.5 -180.5z" />
<glyph unicode=":" horiz-adv-x="538" d="M63 0l27 330h334l-27 -330h-334zM119 686l24 330h332l-24 -330h-332z" />
<glyph unicode=";" horiz-adv-x="536" d="M61 0l27 330h334l-16 -205q-10 -123 -59.5 -222.5t-158.5 -197.5l-114 94q111 106 141 201h-154zM119 686l24 330h332l-24 -330h-332z" />
<glyph unicode="&#x3c;" d="M109 477l18 234l1042 409l-18 -231l-762 -297l715 -297l-21 -232z" />
<glyph unicode="=" d="M92 281l19 211h1003l-14 -211h-1008zM125 694l16 211h1008l-16 -211h-1008z" />
<glyph unicode="&#x3e;" d="M74 63l20 232l762 297l-715 297l19 231l977 -409l-21 -234z" />
<glyph unicode="?" horiz-adv-x="968" d="M231 1137l21 264q72 35 158 55.5t170 20.5q123 0 218 -42t148 -117t53 -173q0 -82 -31.5 -146.5t-78.5 -112.5t-123 -112q-88 -76 -134 -128t-61 -118l-16 -67h-180l8 102q8 106 53 178t125 154q61 63 90 106t29 101q0 59 -41 91t-115 32q-143 0 -293 -88zM266 0l25 330 h334l-25 -330h-334z" />
<glyph unicode="@" horiz-adv-x="1941" d="M94 549q0 285 118 493.5t324.5 319.5t469.5 111q270 0 464.5 -100.5t296 -275.5t101.5 -395q0 -180 -55.5 -309t-151.5 -195.5t-221 -66.5q-109 0 -177.5 47t-84.5 127h-4q-55 -82 -126 -128t-176 -46q-154 0 -238.5 101.5t-84.5 271.5q0 147 55 268t154.5 191.5 t224.5 70.5q84 0 148.5 -34.5t91.5 -100.5h6l20 117h221l-86 -488q-10 -61 -10 -98q0 -61 24.5 -92t80.5 -31q41 0 82 40t69.5 129t28.5 226q0 174 -74 305.5t-221 204t-358 72.5q-199 0 -355.5 -87t-245 -253t-88.5 -395q0 -207 82 -362.5t237 -240.5t365 -85 q154 0 263.5 36.5t160.5 102.5h287q-80 -147 -265 -237.5t-446 -90.5q-276 0 -481 111t-315.5 309.5t-110.5 456.5zM774 504q0 -88 40 -142.5t108 -54.5q84 0 143 51.5t89 133t30 174.5q0 94 -43 142t-119 48q-78 0 -134.5 -52t-85 -133t-28.5 -167z" />
<glyph unicode="A" horiz-adv-x="1554" d="M-61 0l782 1458h260l555 -1458h-311l-115 324h-680l-164 -324h-327zM553 567h471l-193 549z" />
<glyph unicode="B" horiz-adv-x="1425" d="M109 0l112 1458h651q238 0 363 -100.5t125 -265.5q0 -244 -258 -340q115 -33 178 -123t63 -213q0 -199 -144 -307.5t-390 -108.5h-700zM440 246h344q136 0 197 44t61 146q0 92 -56 137t-177 45h-338zM489 864h306q133 0 194.5 43t61.5 140q0 82 -56.5 123.5t-175.5 41.5 h-301z" />
<glyph unicode="C" horiz-adv-x="1402" d="M121 680q0 240 94 420t265 278.5t401 98.5q150 0 279.5 -43t228.5 -125l-121 -230q-92 74 -181.5 108t-193.5 34q-213 0 -330 -144.5t-117 -398.5q0 -213 96.5 -326.5t278.5 -113.5q180 0 391 141l84 -229q-80 -78 -211 -123t-278 -45q-211 0 -365.5 85t-237.5 242.5 t-83 370.5z" />
<glyph unicode="D" horiz-adv-x="1576" d="M106 0l113 1458h563q219 0 379 -82t246 -235.5t86 -362.5q0 -246 -94 -420t-273.5 -266t-429.5 -92h-590zM446 258h224q254 0 379 129t125 393q0 205 -111 312.5t-322 107.5h-219z" />
<glyph unicode="E" horiz-adv-x="1226" d="M106 0l115 1458h1006l-21 -248h-690l-29 -344h652l-23 -250h-647l-31 -368h692l-20 -248h-1004z" />
<glyph unicode="F" horiz-adv-x="1183" d="M106 0l115 1458h983l-20 -252h-664l-26 -338h622l-20 -254h-625l-49 -614h-316z" />
<glyph unicode="G" horiz-adv-x="1525" d="M121 678q0 242 94 422t269 278.5t409 98.5q330 0 528 -168l-121 -230q-94 74 -184 109t-209 35q-221 0 -342 -144.5t-121 -400.5q0 -217 103.5 -333t314.5 -116q117 0 230 33l24 320h-287l19 223h573l-55 -711q-102 -53 -245.5 -82.5t-299.5 -29.5q-217 0 -374.5 84 t-241.5 241.5t-84 370.5z" />
<glyph unicode="H" horiz-adv-x="1595" d="M106 0l115 1458h316l-48 -590h674l47 590h314l-115 -1458h-315l49 612h-674l-49 -612h-314z" />
<glyph unicode="I" horiz-adv-x="612" d="M106 0l113 1458h322l-115 -1458h-320z" />
<glyph unicode="J" horiz-adv-x="780" d="M-68 -367l19 258q80 -12 137 -12q96 0 138 45t50 158l111 1376h320l-107 -1372q-20 -242 -130 -356.5t-337 -114.5q-90 0 -201 18z" />
<glyph unicode="K" horiz-adv-x="1402" d="M109 0l112 1458h322l-51 -643l651 643h391l-729 -710l643 -748h-375l-592 670l-53 -670h-319z" />
<glyph unicode="L" horiz-adv-x="1165" d="M106 0l115 1458h322l-97 -1198h652l-21 -260h-971z" />
<glyph unicode="M" horiz-adv-x="1742" d="M111 0l112 1458h254l385 -1081l553 1081h252l-113 -1458h-282l61 791l-397 -791h-207l-276 784l-62 -784h-280z" />
<glyph unicode="N" horiz-adv-x="1556" d="M106 0l115 1458h236l655 -921l72 921h299l-115 -1458h-240l-651 922l-71 -922h-300z" />
<glyph unicode="O" horiz-adv-x="1628" d="M121 680q0 240 89 421t252 279.5t380 98.5q213 0 371.5 -85t243.5 -243t85 -373q0 -240 -89 -421t-252 -279t-380 -98q-213 0 -371.5 85t-243.5 242.5t-85 372.5zM440 678q0 -215 98.5 -331t280.5 -116q187 0 295.5 145.5t108.5 401.5q0 215 -99.5 332t-277.5 117 q-190 0 -298 -145.5t-108 -403.5z" />
<glyph unicode="P" horiz-adv-x="1382" d="M106 0l115 1458h647q154 0 264.5 -51t168 -143.5t57.5 -210.5q0 -219 -138.5 -341t-394.5 -122h-352l-47 -590h-320zM492 834h303q129 0 195.5 52t66.5 148q0 178 -230 178h-305z" />
<glyph unicode="Q" horiz-adv-x="1628" d="M121 680q0 240 89 421t252 279.5t380 98.5q213 0 371.5 -85t243.5 -243t85 -373q0 -264 -107.5 -455.5t-299.5 -279.5q71 -127 235 -270l-227 -164q-100 74 -181 169t-135 202h-6q-213 0 -371.5 85t-243.5 242.5t-85 372.5zM440 678q0 -215 98.5 -331t280.5 -116 q187 0 295.5 145.5t108.5 401.5q0 215 -99.5 332t-277.5 117q-190 0 -298 -145.5t-108 -403.5z" />
<glyph unicode="R" horiz-adv-x="1449" d="M109 0l112 1458h678q225 0 352 -110.5t127 -296.5q0 -170 -84 -279.5t-254 -150.5q58 -19 96 -64t62 -125l139 -432h-336l-149 485q-18 57 -62.5 80t-115.5 23h-205l-45 -588h-315zM489 831h340q123 0 185.5 52.5t62.5 150.5q0 90 -54 134t-165 44h-340z" />
<glyph unicode="S" horiz-adv-x="1345" d="M55 150l121 229q111 -76 228.5 -112t250.5 -36q137 0 208 41t71 119q0 76 -74 117t-227 86q-154 45 -249 88t-164.5 126t-69.5 218t74.5 237.5t210.5 158t319 55.5q158 0 299 -45.5t229 -122.5l-119 -230q-92 72 -200.5 110t-217.5 38q-131 0 -204.5 -45t-73.5 -127 q0 -55 40 -93t101.5 -61.5t169.5 -56.5q150 -43 245 -85t162.5 -123t67.5 -210q0 -211 -160.5 -327.5t-449.5 -116.5q-170 0 -321.5 43t-266.5 125z" />
<glyph unicode="T" horiz-adv-x="1286" d="M78 1198l20 260h1237l-20 -260h-457l-92 -1198h-324l97 1198h-461z" />
<glyph unicode="U" horiz-adv-x="1527" d="M141 537q0 27 4 84l66 837h315l-67 -846q-2 -23 -2 -61q0 -162 76.5 -241t234.5 -79q139 0 218 79t93 261l72 887h313l-67 -864q-23 -305 -184.5 -458.5t-458.5 -153.5q-303 0 -458 140t-155 415z" />
<glyph unicode="V" horiz-adv-x="1505" d="M43 1458h332l373 -1059l538 1059h326l-770 -1458h-256z" />
<glyph unicode="W" horiz-adv-x="2306" d="M113 1458h321l256 -1007l432 1007h226l262 -1022l426 1022h305l-631 -1458h-256l-266 967l-416 -967h-258z" />
<glyph unicode="X" horiz-adv-x="1394" d="M-80 0l617 743l-488 715h367l315 -477l385 477h379l-602 -723l502 -735h-367l-330 498l-401 -498h-377z" />
<glyph unicode="Y" horiz-adv-x="1314" d="M-29 1458h357l350 -635l448 635h369l-672 -893l-45 -565h-319l45 571z" />
<glyph unicode="Z" horiz-adv-x="1259" d="M63 0l17 233l772 973h-694l20 252h1061l-16 -231l-774 -975h720l-20 -252h-1086z" />
<glyph unicode="[" horiz-adv-x="768" d="M147 -373l144 1831h524l-18 -231h-219l-111 -1368h221l-16 -232h-525z" />
<glyph unicode="\" horiz-adv-x="679" d="M29 1546h252l403 -1671h-252z" />
<glyph unicode="]" horiz-adv-x="768" d="M-39 -373l19 232h221l104 1368h-219l18 231h523l-144 -1831h-522z" />
<glyph unicode="^" d="M68 295l495 1010h232l331 -1010h-229l-238 735l-354 -735h-237z" />
<glyph unicode="_" horiz-adv-x="1034" d="M-23 -180l13 180h977l-15 -180h-975z" />
<glyph unicode="`" horiz-adv-x="614" d="M-7 1571h285l178 -422h-190z" />
<glyph unicode="a" horiz-adv-x="1290" d="M74 483q0 170 62.5 302.5t175 206t257.5 73.5q109 0 191 -42t131 -122l10 137h305l-82 -1038h-305l10 133q-51 -72 -133 -110.5t-180 -38.5q-131 0 -231.5 60t-155.5 173t-55 266zM381 500q0 -137 61.5 -210t175.5 -73q113 0 178.5 88t65.5 236q0 143 -59.5 215.5 t-171.5 72.5q-117 0 -183.5 -89t-66.5 -240z" />
<glyph unicode="b" horiz-adv-x="1292" d="M86 0l119 1507h309l-47 -592q51 70 133 110t180 40q131 0 231.5 -60.5t156 -174t55.5 -265.5q0 -170 -62.5 -302t-175.5 -205.5t-258 -73.5q-109 0 -189.5 42t-131.5 121l-13 -147h-307zM432 504q0 -141 60.5 -214t173.5 -73q116 0 181.5 87t65.5 241q0 137 -61 210.5 t-174 73.5t-179.5 -89t-66.5 -236z" />
<glyph unicode="c" horiz-adv-x="1042" d="M74 492q0 176 70.5 305t200.5 198.5t304 69.5q248 0 404 -129l-101 -215q-141 106 -286 106q-131 0 -203 -87t-72 -244q0 -133 65.5 -204t180.5 -71q150 0 285 105l67 -215q-70 -61 -169 -94t-206 -33q-163 0 -286 63.5t-188.5 178t-65.5 266.5z" />
<glyph unicode="d" horiz-adv-x="1290" d="M74 483q0 170 62.5 302.5t175 206t257.5 73.5q106 0 187.5 -41t130.5 -119l47 602h311l-121 -1507h-305l10 131q-51 -70 -133 -108.5t-180 -38.5q-131 0 -231.5 60t-155.5 173t-55 266zM381 502q0 -137 61.5 -211t175.5 -74q113 0 178.5 88t65.5 236q0 143 -59.5 215.5 t-171.5 72.5q-117 0 -183.5 -88t-66.5 -239z" />
<glyph unicode="e" horiz-adv-x="1126" d="M74 494q0 166 67.5 296t187.5 202.5t269 72.5q209 0 334 -124t125 -345q0 -49 -6 -102h-680q2 -137 68.5 -208t195.5 -71q166 0 307 104l66 -208q-70 -59 -174.5 -93t-219.5 -34q-162 0 -284.5 62.5t-189 178t-66.5 269.5zM385 647h416q0 96 -51.5 148.5t-139.5 52.5 q-184 0 -225 -201z" />
<glyph unicode="f" horiz-adv-x="788" d="M33 807l18 231h197l6 72q16 197 124.5 305.5t299.5 108.5q104 0 174 -27l-18 -242q-57 14 -101 15q-69 0 -115.5 -41t-54.5 -127l-6 -64h264l-18 -231h-264l-66 -807h-309l65 807h-196z" />
<glyph unicode="g" horiz-adv-x="1298" d="M76 508q0 158 62.5 285t175 199.5t259.5 72.5q221 0 326 -162l10 135h305l-77 -979q-20 -268 -167 -393t-413 -125q-256 0 -442 97l67 231q92 -51 185.5 -73.5t197.5 -22.5q121 0 187.5 60.5t76.5 191.5l11 141q-51 -66 -133 -101.5t-185 -35.5q-133 0 -233.5 59 t-156.5 168t-56 252zM383 520q0 -121 63.5 -188.5t176.5 -67.5q116 0 183.5 82t67.5 219q0 129 -62 196.5t-177 67.5q-117 0 -184.5 -82.5t-67.5 -226.5z" />
<glyph unicode="h" horiz-adv-x="1255" d="M84 0l119 1507h309l-47 -585q55 68 141 105.5t189 37.5q172 0 261 -96.5t89 -280.5q0 -45 -2 -67l-49 -621h-310l50 606q2 12 2 37q0 88 -42 134t-124 46q-104 0 -161.5 -64.5t-68.5 -176.5l-47 -582h-309z" />
<glyph unicode="i" horiz-adv-x="561" d="M86 0l82 1038h309l-82 -1038h-309zM170 1235l23 291h332l-23 -291h-332z" />
<glyph unicode="j" horiz-adv-x="561" d="M-207 -432l19 242q57 -15 98 -15q72 0 118 40t54 128l86 1075h309l-86 -1083q-16 -197 -124.5 -305.5t-299.5 -108.5q-109 0 -174 27zM170 1235l23 291h332l-23 -291h-332z" />
<glyph unicode="k" horiz-adv-x="1173" d="M86 0l119 1507h309l-72 -915l416 444h381l-479 -501l424 -535h-375l-377 467l-37 -467h-309z" />
<glyph unicode="l" horiz-adv-x="561" d="M84 0l121 1507h309l-121 -1507h-309z" />
<glyph unicode="m" horiz-adv-x="1865" d="M84 0l59 741q8 88 9 199q0 66 -2 98h292l4 -135q59 82 140.5 122t187.5 40q109 0 185.5 -46t113.5 -134q61 88 150.5 134t199.5 46q164 0 250 -97.5t86 -283.5q0 -41 -2 -61l-49 -623h-309l47 614q2 14 2 41q0 168 -143 168q-188 0 -209 -256l-43 -567h-312l50 610l2 37 q0 176 -146 176q-188 0 -207 -256l-47 -567h-309z" />
<glyph unicode="n" horiz-adv-x="1255" d="M84 0l59 741q8 88 9 199q0 66 -2 98h292l4 -143q51 80 142.5 125t206.5 45q172 0 261 -96.5t89 -280.5q0 -45 -2 -67l-49 -621h-310l50 606q2 12 2 37q0 88 -42 134t-124 46q-104 0 -161.5 -64.5t-68.5 -176.5l-47 -582h-309z" />
<glyph unicode="o" horiz-adv-x="1236" d="M74 496q0 174 68.5 303t193.5 197.5t291 68.5q164 0 285.5 -63.5t187 -179t65.5 -269.5q0 -176 -68.5 -304t-192.5 -196.5t-290 -68.5q-165 0 -287 63.5t-187.5 179t-65.5 269.5zM381 489q0 -272 231 -272q125 0 185.5 95.5t60.5 248.5q0 133 -57.5 200.5t-169.5 67.5 q-127 0 -188.5 -94t-61.5 -246z" />
<glyph unicode="p" horiz-adv-x="1292" d="M49 -442l94 1183q8 88 9 199q0 66 -2 98h292l4 -149q49 82 136.5 129t195.5 47q131 0 231.5 -60.5t156 -174t55.5 -265.5q0 -170 -62.5 -302t-175.5 -205.5t-258 -73.5q-106 0 -188 42t-131 119l-48 -587h-309zM430 504q0 -141 60.5 -214t173.5 -73q116 0 181.5 87 t65.5 241q0 137 -61.5 210.5t-173.5 73.5q-113 0 -179.5 -89t-66.5 -236z" />
<glyph unicode="q" horiz-adv-x="1290" d="M74 483q0 170 62.5 302.5t174 206t256.5 73.5q225 0 336 -184l29 157h293q-27 -129 -41 -297l-94 -1183h-310l45 569q-51 -68 -131 -105.5t-178 -37.5q-131 0 -231.5 60t-155.5 173t-55 266zM381 500q0 -137 61.5 -210t175.5 -73q111 0 177.5 88t66.5 236 q0 143 -59.5 215.5t-171.5 72.5q-117 0 -183.5 -89t-66.5 -240z" />
<glyph unicode="r" horiz-adv-x="839" d="M84 0l59 741q8 143 9 215q0 55 -2 82h292l4 -153q45 84 133.5 131t190.5 47q66 -1 111 -21l-21 -280q-74 33 -151 33q-123 0 -193 -63.5t-78 -188.5l-45 -543h-309z" />
<glyph unicode="s" horiz-adv-x="1030" d="M25 111l100 215q86 -59 184.5 -91t196.5 -32q86 0 127 24.5t41 65.5q0 43 -48 67.5t-157 57.5q-113 31 -184.5 61.5t-123.5 91t-52 156.5q0 100 56 176t159.5 119t236.5 43q117 0 228.5 -35t187.5 -94l-98 -207q-76 55 -160 84t-164 29q-84 0 -127 -24.5t-43 -67.5 q0 -45 51 -72t156 -55q113 -33 183.5 -64t122.5 -91t52 -157q0 -154 -121.5 -240.5t-328.5 -86.5q-266 0 -475 127z" />
<glyph unicode="t" horiz-adv-x="811" d="M33 807l18 231h197l18 244l318 100l-27 -344h264l-18 -231h-264l-33 -404q-1 -11 -1 -21q0 -70 36 -106q41 -40 112 -40q47 0 105 16l-21 -240q-68 -28 -173 -28h-7q-176 0 -269 94t-93 266q0 35 2 53l32 410h-196z" />
<glyph unicode="u" horiz-adv-x="1241" d="M109 352q0 20 4 70l47 616h311l-49 -598q-1 -18 -1 -34q0 -181 163 -181q96 0 152.5 63.5t64.5 174.5l47 575h309l-82 -1038h-301l10 133q-53 -72 -139 -110.5t-188 -38.5q-170 0 -259 94t-89 274z" />
<glyph unicode="v" horiz-adv-x="1126" d="M20 1036h314l223 -669l324 669h311l-541 -1036h-262z" />
<glyph unicode="w" horiz-adv-x="1824" d="M41 1038h309l199 -667l297 667h213l194 -676l303 676h308l-502 -1038h-260l-191 600l-270 -600h-262z" />
<glyph unicode="x" horiz-adv-x="1140" d="M-84 0l479 537l-372 501h358l205 -288l245 288h371l-450 -506l393 -532h-361l-225 322l-274 -322h-369z" />
<glyph unicode="y" horiz-adv-x="1126" d="M-10 -229q145 31 221 79t125 136l37 69l-350 983h313l223 -671l324 671h311l-571 -1093q-104 -201 -244.5 -293t-335.5 -119z" />
<glyph unicode="z" horiz-adv-x="1085" d="M57 0l19 217l563 590h-510l18 231h887l-16 -209l-572 -598h547l-20 -231h-916z" />
<glyph unicode="{" horiz-adv-x="845" d="M80 471l10 143l88 27q72 23 102.5 68t41.5 151l20 242q12 174 120.5 265t299.5 91h129l-19 -231h-73q-61 0 -107.5 -49.5t-54.5 -141.5l-19 -252q-8 -94 -65 -159.5t-127 -81.5q68 -16 115 -83t39 -161l-21 -250q-8 -90 32 -140t99 -50h76l-16 -232h-132q-178 0 -273 81 t-95 235q0 27 2 41l18 239q2 20 2 56q0 76 -24.5 110.5t-83.5 52.5z" />
<glyph unicode="|" horiz-adv-x="598" d="M86 -373l143 1831h289l-145 -1831h-287z" />
<glyph unicode="}" horiz-adv-x="845" d="M-39 -373l19 232h73q61 0 107.5 50t54.5 140l18 250q8 94 65.5 160.5t127.5 83.5q-68 14 -115 80.5t-39 160.5l21 252q8 92 -32 141.5t-99 49.5h-76l18 231h129q180 0 275.5 -81t95.5 -234q0 -27 -2 -41l-20 -242q-2 -20 -2 -53q0 -76 25.5 -112t84.5 -54l82 -27 l-10 -143l-86 -29q-72 -23 -103.5 -67.5t-40.5 -151.5l-18 -239q-14 -174 -123.5 -265.5t-300.5 -91.5h-129z" />
<glyph unicode="~" d="M115 543q41 102 122.5 162.5t176.5 60.5q61 0 119.5 -21.5t132.5 -60.5q61 -31 95 -45t64 -14q51 0 89 29.5t67 93.5l152 -103q-43 -102 -126 -162.5t-178 -60.5q-61 0 -116.5 21.5t-132.5 62.5q-66 33 -98.5 46t-63.5 13q-51 0 -88 -31.5t-66 -95.5z" />
<glyph unicode="&#xa1;" horiz-adv-x="536" d="M6 -373l170 918h186l27 -916zM117 686l24 330h332l-24 -330h-332z" />
<glyph unicode="&#xa2;" horiz-adv-x="1269" d="M166 492q0 246 133 396t365 173l18 229h246l-19 -243q135 -31 236 -111l-103 -215q-76 57 -153 84l-43 -567q82 23 170 88l65 -215q-51 -43 -117.5 -73t-138.5 -42l-18 -240h-246l19 238q-193 33 -303.5 166t-110.5 332zM483 496q0 -90 31 -152.5t86 -93.5l43 557 q-78 -33 -119 -113t-41 -198z" />
<glyph unicode="&#xa3;" d="M41 0l14 215q92 43 128 98.5t46 157.5l13 164h-152l14 190h152l18 240q16 186 149.5 299t346.5 113q143 0 271 -42t214 -122l-118 -230q-190 141 -351 142q-90 0 -139 -46t-55 -137l-19 -217h332l-14 -190h-332l-10 -121q-8 -96 -34 -156.5t-81 -101.5h719l-20 -256 h-1092z" />
<glyph unicode="&#xa4;" d="M96 88l111 115q-96 135 -96 303q0 84 24.5 161.5t71.5 141.5l-111 115l115 114l111 -112q129 94 290 94q158 0 287 -92l113 114l123 -122l-113 -117q90 -131 90 -297t-94 -299l112 -119l-112 -111l-113 115q-131 -98 -293 -98q-164 0 -293 96l-110 -113zM356 506 q0 -113 74 -191.5t182 -78.5q68 0 126.5 36.5t93 99t34.5 134.5q0 74 -34.5 136.5t-94 99t-129.5 36.5q-68 0 -126 -36.5t-92 -100t-34 -135.5z" />
<glyph unicode="&#xa5;" d="M23 1458h344l276 -502l369 502h344l-473 -627h241l-14 -188h-324l-10 -127h324l-15 -188h-323l-27 -328h-321l26 328h-323l14 188h324l10 127h-324l15 188h239z" />
<glyph unicode="&#xa6;" horiz-adv-x="598" d="M88 -373l53 692h287l-53 -692h-287zM176 768l53 690h289l-55 -690h-287z" />
<glyph unicode="&#xa7;" horiz-adv-x="1198" d="M57 -260l101 213q80 -55 168 -84t174 -29q98 0 152.5 39t54.5 107q0 45 -27 78.5t-92 68.5l-258 135q-133 72 -195.5 155t-62.5 193q0 96 42 176t122 140q-41 72 -41 149q0 184 140 288t359 104q238 0 412 -121l-96 -207q-63 49 -143.5 75.5t-159.5 26.5 q-102 0 -156.5 -38t-54.5 -105q0 -84 118 -148l258 -137q131 -70 196 -154.5t65 -195.5q0 -94 -42 -174t-120 -139q39 -70 39 -150q0 -186 -136.5 -289.5t-363.5 -103.5q-133 0 -250 32.5t-203 94.5zM352 688q0 -113 150 -196l266 -144l55 -33q25 45 25 84q0 59 -36 107.5 t-114 91.5l-260 150q-37 20 -53 32q-33 -49 -33 -92z" />
<glyph unicode="&#xa8;" horiz-adv-x="614" d="M26 1223l23 270h284l-20 -270h-287zM419 1223l23 270h287l-25 -270h-285z" />
<glyph unicode="&#xa9;" horiz-adv-x="1685" d="M104 731q0 207 97.5 375t266.5 265t376 97t376 -97t266 -266t97 -374q0 -207 -97 -376t-267 -267t-375 -98q-207 0 -376 98t-266.5 267t-97.5 376zM238 731q0 -174 77.5 -314.5t216 -220t312.5 -79.5q172 0 310 79.5t216 220t78 314.5q0 172 -78 311.5t-216 219 t-310 79.5q-174 0 -312.5 -79.5t-216 -219t-77.5 -311.5zM424 731q0 203 121 324t327 121q96 0 179.5 -26t142.5 -75l-70 -188q-41 29 -98 51.5t-111 22.5q-100 0 -155 -60.5t-55 -169.5q0 -113 55 -173t155 -60q53 0 110.5 22.5t98.5 50.5l70 -188q-125 -100 -322 -100 q-206 0 -327 121.5t-121 326.5z" />
<glyph unicode="&#xaa;" horiz-adv-x="700" d="M74 1020q0 98 79.5 141t254.5 43h61l2 23q2 31 -18.5 44t-67.5 13q-49 0 -102.5 -12t-98.5 -35l-30 176q55 27 127.5 41t148.5 14q145 0 213 -64.5t68 -193.5q0 -33 -2 -49l-25 -321h-240l9 106q-49 -117 -181 -117q-84 0 -141 56.5t-57 134.5zM305 1040q0 -23 16.5 -35 t45.5 -12q36 0 63 22.5t29 61.5l2 15h-68q-88 0 -88 -52z" />
<glyph unicode="&#xab;" horiz-adv-x="1083" d="M47 547l307 377h258l-297 -375l238 -375h-258zM506 547l307 377h258l-297 -375l238 -375h-258z" />
<glyph unicode="&#xac;" d="M125 694l18 211h1010l-51 -626h-217l30 415h-790z" />
<glyph unicode="&#xad;" horiz-adv-x="909" d="M131 432l19 244h638l-20 -244h-637z" />
<glyph unicode="&#xae;" horiz-adv-x="1685" d="M123 731q0 207 97 375t266 265t376 97t376 -97t266.5 -266t97.5 -374q0 -207 -97.5 -376t-267.5 -267t-375 -98t-375 98t-267 267t-97 376zM256 731q0 -174 79 -314.5t218 -220t309 -79.5q172 0 309.5 79.5t216 220t78.5 314.5q0 172 -77.5 311.5t-216 219t-310.5 79.5 t-310 -78.5t-217 -219t-79 -312.5zM467 293l70 876h397q160 0 245 -69.5t85 -194.5q0 -106 -59.5 -180t-164.5 -98q99 -17 136 -103l100 -231h-305l-117 282q-14 33 -41 33h-49l-25 -315h-272zM776 797h123q53 0 77.5 22.5t24.5 69.5q0 39 -24.5 56.5t-81.5 17.5h-107z" />
<glyph unicode="&#xaf;" horiz-adv-x="614" d="M47 1260l14 192h647l-16 -192h-645z" />
<glyph unicode="&#xb0;" horiz-adv-x="761" d="M117 1157q0 88 41 158.5t113.5 111.5t160.5 41t161 -41t115 -111.5t42 -158.5t-42 -158.5t-115 -111.5t-161 -41t-160.5 41t-113.5 111.5t-41 158.5zM283 1157q0 -66 44 -109.5t105 -43.5q62 0 105 43t43 110q0 68 -43 111t-105 43q-61 0 -105 -43t-44 -111z" />
<glyph unicode="&#xb1;" d="M70 0l16 213h1010l-17 -213h-1009zM117 590l18 213h397l25 295h211l-25 -295h402l-21 -213h-397l-25 -297h-210l24 297h-399z" />
<glyph unicode="&#xb2;" horiz-adv-x="778" d="M96 584l14 195l297 282q43 43 61.5 75t18.5 62q0 35 -24.5 51.5t-77.5 16.5t-113.5 -19.5t-111.5 -52.5l-27 193q59 35 143 57.5t164 22.5q141 0 228.5 -65.5t87.5 -176.5q0 -80 -40 -150.5t-149 -156.5l-151 -127h325l-16 -207h-629z" />
<glyph unicode="&#xb3;" horiz-adv-x="778" d="M63 654l56 192q131 -72 262 -72q123 0 123 82q0 68 -101 68h-153l16 201h123q117 0 117 73q0 68 -105 68q-127 0 -241 -72l-27 193q59 37 142 58.5t165 21.5q143 0 229.5 -63.5t86.5 -170.5q0 -72 -39 -124t-111 -76q68 -23 105.5 -71t37.5 -116q0 -125 -96 -198.5 t-256 -73.5q-90 0 -181 22.5t-153 57.5z" />
<glyph unicode="&#xb4;" horiz-adv-x="614" d="M266 1149l227 422h320l-357 -422h-190z" />
<glyph unicode="&#xb5;" horiz-adv-x="1241" d="M45 -442l115 1480h311l-49 -598q-16 -215 162 -215q96 0 152.5 64.5t64.5 173.5l47 575h309l-82 -1038h-301l10 133q-53 -72 -139 -110.5t-188 -38.5q-39 0 -70 6l-35 -432h-307z" />
<glyph unicode="&#xb6;" horiz-adv-x="1298" d="M102 969q0 145 59.5 255.5t172 172t266.5 61.5h631l-146 -1831h-208l133 1647h-219l-134 -1647h-206l75 924q-190 4 -307 115.5t-117 302.5z" />
<glyph unicode="&#xb7;" horiz-adv-x="536" d="M92 389l29 330h332l-27 -330h-334z" />
<glyph unicode="&#xb8;" horiz-adv-x="614" d="M20 -371l33 121q92 -29 166 -29q92 0 92 54q0 18 -16 29.5t-47 11.5q-23 0 -76 -15l-37 43l41 197h168l-27 -123h15q76 0 123 -38t47 -103q0 -80 -73 -132.5t-202 -52.5q-53 0 -110.5 9.5t-96.5 27.5z" />
<glyph unicode="&#xb9;" horiz-adv-x="778" d="M156 584l14 207h164l32 387l-161 -84l18 240l244 124h186l-53 -667h168l-19 -207h-593z" />
<glyph unicode="&#xba;" horiz-adv-x="772" d="M82 1122q0 160 102.5 253t272.5 93q156 0 247 -80.5t91 -213.5q0 -158 -103.5 -251.5t-271.5 -93.5q-156 0 -247 81t-91 212zM336 1139q0 -51 25.5 -81t68.5 -30q53 0 84 37t31 100q0 49 -28 77t-71 28q-53 0 -81.5 -34t-28.5 -97z" />
<glyph unicode="&#xbb;" horiz-adv-x="1079" d="M25 174l290 375l-237 375h260l244 -377l-303 -373h-254zM484 174l290 375l-237 375h260l244 -377l-303 -373h-254z" />
<glyph unicode="&#xbc;" horiz-adv-x="1970" d="M156 584l14 207h164l33 387l-162 -84l18 239l244 125h186l-53 -667h168l-18 -207h-594zM430 63l960 1457l185 -125l-959 -1456zM1188 133l14 182l455 559h207l-43 -550h125l-15 -191h-125l-10 -133h-233l10 133h-385zM1417 324h172l17 231z" />
<glyph unicode="&#xbd;" horiz-adv-x="1970" d="M156 584l14 207h164l33 387l-162 -84l18 239l244 125h186l-53 -667h168l-18 -207h-594zM430 63l960 1457l185 -125l-959 -1456zM1241 0l14 195l297 282q43 43 61.5 75t18.5 62q0 35 -24.5 51.5t-77.5 16.5t-113.5 -19.5t-111.5 -52.5l-27 193q59 35 143 57.5t164 22.5 q141 0 228.5 -65.5t87.5 -176.5q0 -80 -40 -150.5t-149 -156.5l-151 -127h325l-16 -207h-629z" />
<glyph unicode="&#xbe;" horiz-adv-x="1970" d="M63 653l56 193q131 -72 262 -72q123 0 123 82q0 68 -101 68h-153l16 200h123q117 0 117 74q0 68 -105 68q-127 0 -241 -72l-27 192q59 37 142 58.5t165 21.5q143 0 229.5 -63.5t86.5 -169.5q0 -72 -39 -124t-111 -77q68 -22 106 -70.5t38 -115.5q0 -125 -96.5 -199 t-256.5 -74q-90 0 -181 22.5t-153 57.5zM430 63l960 1457l185 -125l-959 -1456zM1188 133l14 182l455 559h207l-43 -550h125l-15 -191h-125l-10 -133h-233l10 133h-385zM1417 324h172l17 231z" />
<glyph unicode="&#xbf;" horiz-adv-x="966" d="M-25 -61q0 82 34 144t81 105t125 99q82 57 125 100t57 98l17 70h182l-8 -104q-8 -102 -53.5 -165t-126.5 -134q-59 -47 -88 -84t-29 -86q0 -55 43 -87t117 -32q137 0 290 86l-20 -264q-141 -74 -305 -74q-131 0 -231.5 42t-155 115.5t-54.5 170.5zM344 686l27 330h331 l-26 -330h-332z" />
<glyph unicode="&#xc0;" horiz-adv-x="1554" d="M-61 0l782 1458h260l555 -1458h-311l-115 324h-680l-164 -324h-327zM489 1905h271l194 -322h-190zM553 567h471l-193 549z" />
<glyph unicode="&#xc1;" horiz-adv-x="1554" d="M-61 0l782 1458h260l555 -1458h-311l-115 324h-680l-164 -324h-327zM553 567h471l-193 549zM764 1583l231 322h301l-342 -322h-190z" />
<glyph unicode="&#xc2;" horiz-adv-x="1554" d="M-61 0l782 1458h260l555 -1458h-311l-115 324h-680l-164 -324h-327zM499 1583l297 322h177l247 -322h-231l-109 176l-149 -176h-232zM553 567h471l-193 549z" />
<glyph unicode="&#xc3;" horiz-adv-x="1554" d="M-61 0l782 1458h260l555 -1458h-311l-115 324h-680l-164 -324h-327zM501 1597q9 156 77.5 228.5t168.5 72.5q39 0 75 -15t81 -46q37 -23 62.5 -35t50.5 -12q86 0 94 102h135q-8 -156 -78 -228.5t-170 -72.5q-39 0 -75 16.5t-79 45.5q-37 23 -62.5 35t-49.5 12 q-84 0 -96 -103h-134zM553 567h471l-193 549z" />
<glyph unicode="&#xc4;" horiz-adv-x="1554" d="M-61 0l782 1458h260l555 -1458h-311l-115 324h-680l-164 -324h-327zM522 1610l22 270h287l-22 -270h-287zM553 567h471l-193 549zM915 1610l23 270h286l-22 -270h-287z" />
<glyph unicode="&#xc5;" horiz-adv-x="1554" d="M-61 0l774 1442q-37 31 -56.5 75t-19.5 93q0 92 66.5 156.5t160.5 64.5t160 -64.5t66 -156.5q0 -57 -26 -105.5t-71 -79.5l543 -1425h-311l-115 324h-680l-164 -324h-327zM553 567h471l-193 549zM774 1610q0 -41 25.5 -69t64.5 -28t64.5 28t25.5 69q0 39 -25.5 65.5 t-64.5 26.5t-64.5 -26.5t-25.5 -65.5z" />
<glyph unicode="&#xc6;" horiz-adv-x="2068" d="M-104 0l1030 1458h1138l-16 -250h-664l-2 -342h596l-22 -250h-576l-2 -366h594l-22 -250h-871l4 324h-616l-217 -324h-354zM629 567h456l9 641h-37z" />
<glyph unicode="&#xc7;" horiz-adv-x="1402" d="M121 680q0 240 94 420t265 278.5t401 98.5q150 0 279.5 -43t228.5 -125l-121 -230q-92 74 -181.5 108t-193.5 34q-213 0 -330 -144.5t-117 -398.5q0 -213 96.5 -326.5t278.5 -113.5q180 0 391 141l84 -229q-75 -74 -198 -119t-260 -49l-15 -64h15q76 0 123 -38t47 -103 q0 -80 -73 -132.5t-202 -52.5q-53 0 -110.5 9.5t-96.5 27.5l33 121q92 -29 166 -29q92 0 92 54q0 18 -16.5 29.5t-46.5 11.5q-23 0 -76 -15l-37 43l31 148q-258 39 -404.5 220t-146.5 468z" />
<glyph unicode="&#xc8;" horiz-adv-x="1226" d="M106 0l115 1458h1006l-21 -248h-690l-29 -344h652l-23 -250h-647l-31 -368h692l-20 -248h-1004zM397 1905h271l194 -322h-190z" />
<glyph unicode="&#xc9;" horiz-adv-x="1226" d="M106 0l115 1458h1006l-21 -248h-690l-29 -344h652l-23 -250h-647l-31 -368h692l-20 -248h-1004zM672 1583l231 322h301l-342 -322h-190z" />
<glyph unicode="&#xca;" horiz-adv-x="1226" d="M106 0l115 1458h1006l-21 -248h-690l-29 -344h652l-23 -250h-647l-31 -368h692l-20 -248h-1004zM407 1583l297 322h177l247 -322h-231l-109 176l-149 -176h-232z" />
<glyph unicode="&#xcb;" horiz-adv-x="1226" d="M106 0l115 1458h1006l-21 -248h-690l-29 -344h652l-23 -250h-647l-31 -368h692l-20 -248h-1004zM430 1610l22 270h287l-22 -270h-287zM823 1610l23 270h286l-22 -270h-287z" />
<glyph unicode="&#xcc;" horiz-adv-x="612" d="M20 1905h271l194 -322h-190zM106 0l113 1458h322l-115 -1458h-320z" />
<glyph unicode="&#xcd;" horiz-adv-x="612" d="M106 0l113 1458h322l-115 -1458h-320zM295 1583l231 322h301l-342 -322h-190z" />
<glyph unicode="&#xce;" horiz-adv-x="612" d="M30 1583l297 322h177l247 -322h-231l-109 176l-149 -176h-232zM106 0l113 1458h322l-115 -1458h-320z" />
<glyph unicode="&#xcf;" horiz-adv-x="612" d="M53 1610l22 270h287l-22 -270h-287zM106 0l113 1458h322l-115 -1458h-320zM446 1610l23 270h286l-22 -270h-287z" />
<glyph unicode="&#xd0;" horiz-adv-x="1640" d="M39 614l18 244h176l48 600h563q219 0 379.5 -82t246.5 -235.5t86 -362.5q0 -246 -94 -420t-273 -266t-429 -92h-592l47 614h-176zM508 258h223q254 0 379 129t125 393q0 205 -110.5 312.5t-321.5 107.5h-221l-27 -342h385l-20 -244h-383z" />
<glyph unicode="&#xd1;" horiz-adv-x="1556" d="M106 0l115 1458h236l655 -921l72 921h299l-115 -1458h-240l-651 922l-71 -922h-300zM503 1597q9 156 77.5 228.5t168.5 72.5q39 0 75 -15t81 -46q37 -23 62.5 -35t50.5 -12q86 0 94 102h135q-8 -156 -78 -228.5t-170 -72.5q-39 0 -75 16.5t-79 45.5q-37 23 -62.5 35 t-49.5 12q-84 0 -96 -103h-134z" />
<glyph unicode="&#xd2;" horiz-adv-x="1628" d="M121 680q0 240 89 421t252 279.5t380 98.5q213 0 371.5 -85t243.5 -243t85 -373q0 -240 -89 -421t-252 -279t-380 -98q-213 0 -371.5 85t-243.5 242.5t-85 372.5zM440 678q0 -215 98.5 -331t280.5 -116q187 0 295.5 145.5t108.5 401.5q0 215 -99.5 332t-277.5 117 q-190 0 -298 -145.5t-108 -403.5zM526 1905h271l194 -322h-190z" />
<glyph unicode="&#xd3;" horiz-adv-x="1628" d="M121 680q0 240 89 421t252 279.5t380 98.5q213 0 371.5 -85t243.5 -243t85 -373q0 -240 -89 -421t-252 -279t-380 -98q-213 0 -371.5 85t-243.5 242.5t-85 372.5zM440 678q0 -215 98.5 -331t280.5 -116q187 0 295.5 145.5t108.5 401.5q0 215 -99.5 332t-277.5 117 q-190 0 -298 -145.5t-108 -403.5zM801 1583l231 322h301l-342 -322h-190z" />
<glyph unicode="&#xd4;" horiz-adv-x="1628" d="M121 680q0 240 89 421t252 279.5t380 98.5q213 0 371.5 -85t243.5 -243t85 -373q0 -240 -89 -421t-252 -279t-380 -98q-213 0 -371.5 85t-243.5 242.5t-85 372.5zM440 678q0 -215 98.5 -331t280.5 -116q187 0 295.5 145.5t108.5 401.5q0 215 -99.5 332t-277.5 117 q-190 0 -298 -145.5t-108 -403.5zM536 1583l297 322h177l247 -322h-231l-109 176l-149 -176h-232z" />
<glyph unicode="&#xd5;" horiz-adv-x="1628" d="M121 680q0 240 89 421t252 279.5t380 98.5q213 0 371.5 -85t243.5 -243t85 -373q0 -240 -89 -421t-252 -279t-380 -98q-213 0 -371.5 85t-243.5 242.5t-85 372.5zM440 678q0 -215 98.5 -331t280.5 -116q187 0 295.5 145.5t108.5 401.5q0 215 -99.5 332t-277.5 117 q-190 0 -298 -145.5t-108 -403.5zM538 1597q9 156 77.5 228.5t168.5 72.5q39 0 75 -15t81 -46q37 -23 62.5 -35t50.5 -12q86 0 94 102h135q-8 -156 -78 -228.5t-170 -72.5q-39 0 -75 16.5t-79 45.5q-37 23 -62.5 35t-49.5 12q-84 0 -96 -103h-134z" />
<glyph unicode="&#xd6;" horiz-adv-x="1628" d="M121 680q0 240 89 421t252 279.5t380 98.5q213 0 371.5 -85t243.5 -243t85 -373q0 -240 -89 -421t-252 -279t-380 -98q-213 0 -371.5 85t-243.5 242.5t-85 372.5zM440 678q0 -215 98.5 -331t280.5 -116q187 0 295.5 145.5t108.5 401.5q0 215 -99.5 332t-277.5 117 q-190 0 -298 -145.5t-108 -403.5zM559 1610l22 270h287l-22 -270h-287zM952 1610l23 270h286l-22 -270h-287z" />
<glyph unicode="&#xd7;" d="M154 258l321 330l-311 338l162 151l305 -329l321 329l138 -151l-322 -328l311 -340l-161 -147l-306 329l-321 -329z" />
<glyph unicode="&#xd8;" horiz-adv-x="1628" d="M121 680q0 240 89 421t252 279.5t380 98.5q174 0 311 -56l115 174l194 -122l-116 -177q96 -92 146 -224t50 -296q0 -240 -89 -421t-252 -279t-380 -98q-174 0 -309 55l-115 -174l-196 123l116 176q-96 92 -146 224t-50 296zM440 678q0 -154 49 -256l515 776 q-74 29 -158 29q-190 0 -298 -145.5t-108 -403.5zM659 260q74 -29 160 -29q187 0 295.5 145.5t108.5 401.5q0 150 -52 256z" />
<glyph unicode="&#xd9;" horiz-adv-x="1527" d="M141 537q0 27 4 84l66 837h315l-67 -846q-2 -23 -2 -61q0 -162 76.5 -241t234.5 -79q139 0 218 79t93 261l72 887h313l-67 -864q-23 -305 -184.5 -458.5t-458.5 -153.5q-303 0 -458 140t-155 415zM477 1905h271l194 -322h-190z" />
<glyph unicode="&#xda;" horiz-adv-x="1527" d="M141 537q0 27 4 84l66 837h315l-67 -846q-2 -23 -2 -61q0 -162 76.5 -241t234.5 -79q139 0 218 79t93 261l72 887h313l-67 -864q-23 -305 -184.5 -458.5t-458.5 -153.5q-303 0 -458 140t-155 415zM752 1583l231 322h301l-342 -322h-190z" />
<glyph unicode="&#xdb;" horiz-adv-x="1527" d="M141 537q0 27 4 84l66 837h315l-67 -846q-2 -23 -2 -61q0 -162 76.5 -241t234.5 -79q139 0 218 79t93 261l72 887h313l-67 -864q-23 -305 -184.5 -458.5t-458.5 -153.5q-303 0 -458 140t-155 415zM487 1583l297 322h177l247 -322h-231l-109 176l-149 -176h-232z" />
<glyph unicode="&#xdc;" horiz-adv-x="1527" d="M141 537q0 27 4 84l66 837h315l-67 -846q-2 -23 -2 -61q0 -162 76.5 -241t234.5 -79q139 0 218 79t93 261l72 887h313l-67 -864q-23 -305 -184.5 -458.5t-458.5 -153.5q-303 0 -458 140t-155 415zM510 1610l22 270h287l-22 -270h-287zM903 1610l23 270h286l-22 -270h-287 z" />
<glyph unicode="&#xdd;" horiz-adv-x="1314" d="M-29 1458h357l350 -635l448 635h369l-672 -893l-45 -565h-319l45 571zM646 1583l231 322h301l-342 -322h-190z" />
<glyph unicode="&#xde;" horiz-adv-x="1384" d="M106 0l115 1458h316l-23 -293h365q215 0 335.5 -105.5t120.5 -291.5q0 -217 -128 -334t-367 -117h-396l-24 -317h-314zM465 561h350q221 1 221 189q0 88 -47 128t-147 40h-348z" />
<glyph unicode="&#xdf;" horiz-adv-x="1431" d="M86 0l76 946q47 580 610 580q223 0 354 -95.5t131 -269.5q0 -133 -72.5 -231.5t-230.5 -165.5q217 -49 318.5 -147.5t101.5 -254.5q0 -109 -58.5 -195.5t-162.5 -134.5t-240 -48q-113 0 -221 32.5t-192 94.5l102 215q82 -55 167 -86t155 -31q78 0 122 37t44 104 q0 92 -105.5 158.5t-343.5 126.5l18 227q168 43 238 107.5t70 163.5q0 82 -54.5 126t-148.5 44q-135 0 -205 -75t-82 -237l-82 -991h-309z" />
<glyph unicode="&#xe0;" horiz-adv-x="1290" d="M74 483q0 170 62.5 302.5t175 206t257.5 73.5q109 0 191 -42t131 -122l10 137h305l-82 -1038h-305l10 133q-51 -72 -133 -110.5t-180 -38.5q-131 0 -231.5 60t-155.5 173t-55 266zM329 1594h285l178 -422h-190zM381 500q0 -137 61.5 -210t175.5 -73q113 0 178.5 88 t65.5 236q0 143 -59.5 215.5t-171.5 72.5q-117 0 -183.5 -89t-66.5 -240z" />
<glyph unicode="&#xe1;" horiz-adv-x="1290" d="M74 483q0 170 62.5 302.5t175 206t257.5 73.5q109 0 191 -42t131 -122l10 137h305l-82 -1038h-305l10 133q-51 -72 -133 -110.5t-180 -38.5q-131 0 -231.5 60t-155.5 173t-55 266zM381 500q0 -137 61.5 -210t175.5 -73q113 0 178.5 88t65.5 236q0 143 -59.5 215.5 t-171.5 72.5q-117 0 -183.5 -89t-66.5 -240zM602 1172l227 422h320l-357 -422h-190z" />
<glyph unicode="&#xe2;" horiz-adv-x="1290" d="M74 483q0 170 62.5 302.5t175 206t257.5 73.5q109 0 191 -42t131 -122l10 137h305l-82 -1038h-305l10 133q-51 -72 -133 -110.5t-180 -38.5q-131 0 -231.5 60t-155.5 173t-55 266zM336 1172l301 422h186l236 -422h-236l-106 240l-134 -240h-247zM381 500 q0 -137 61.5 -210t175.5 -73q113 0 178.5 88t65.5 236q0 143 -59.5 215.5t-171.5 72.5q-117 0 -183.5 -89t-66.5 -240z" />
<glyph unicode="&#xe3;" horiz-adv-x="1290" d="M74 483q0 170 62.5 302.5t175 206t257.5 73.5q109 0 191 -42t131 -122l10 137h305l-82 -1038h-305l10 133q-51 -72 -133 -110.5t-180 -38.5q-131 0 -231.5 60t-155.5 173t-55 266zM342 1237q8 154 76.5 226.5t160.5 72.5q43 0 79 -15t89 -46q43 -25 64.5 -35t46.5 -10 q82 0 94 100h135q-10 -154 -77.5 -226.5t-161.5 -72.5q-43 0 -79 15.5t-85 46.5q-8 4 -33 17t-44 20.5t-36 7.5q-82 0 -96 -101h-133zM381 500q0 -137 61.5 -210t175.5 -73q113 0 178.5 88t65.5 236q0 143 -59.5 215.5t-171.5 72.5q-117 0 -183.5 -89t-66.5 -240z" />
<glyph unicode="&#xe4;" horiz-adv-x="1290" d="M74 483q0 170 62.5 302.5t175 206t257.5 73.5q109 0 191 -42t131 -122l10 137h305l-82 -1038h-305l10 133q-51 -72 -133 -110.5t-180 -38.5q-131 0 -231.5 60t-155.5 173t-55 266zM362 1246l23 270h284l-20 -270h-287zM381 500q0 -137 61.5 -210t175.5 -73 q113 0 178.5 88t65.5 236q0 143 -59.5 215.5t-171.5 72.5q-117 0 -183.5 -89t-66.5 -240zM755 1246l23 270h287l-25 -270h-285z" />
<glyph unicode="&#xe5;" horiz-adv-x="1290" d="M74 483q0 170 62.5 302.5t175 206t257.5 73.5q109 0 191 -42t131 -122l10 137h305l-82 -1038h-305l10 133q-51 -72 -133 -110.5t-180 -38.5q-131 0 -231.5 60t-155.5 173t-55 266zM381 500q0 -137 61.5 -210t175.5 -73q113 0 178.5 88t65.5 236q0 143 -59.5 215.5 t-171.5 72.5q-117 0 -183.5 -89t-66.5 -240zM489 1385q0 92 65.5 156.5t159.5 64.5t160 -64.5t66 -156.5q0 -94 -65.5 -158.5t-160.5 -64.5q-96 0 -160.5 64.5t-64.5 158.5zM624 1385q0 -41 26 -68.5t64 -27.5q39 0 64 27.5t25 68.5q0 39 -25 65.5t-64 26.5t-64.5 -26.5 t-25.5 -65.5z" />
<glyph unicode="&#xe6;" horiz-adv-x="1773" d="M70 299q0 184 136 266t445 82h94q8 96 -34.5 140t-145.5 44q-78 0 -168 -28.5t-170 -77.5l-67 211q86 57 214 93t251 36q221 0 317 -129q66 61 151 95t181 34q125 0 222 -55.5t152.5 -163t55.5 -254.5q0 -45 -6 -98h-670q2 -137 69.5 -208t192.5 -71q160 0 297 104 l68 -208q-66 -59 -171.5 -93t-213.5 -34q-147 0 -254 54t-170 157q-59 -100 -162.5 -155.5t-230.5 -55.5q-174 0 -278.5 87t-104.5 228zM369 334q0 -66 38.5 -100.5t104.5 -34.5q88 0 148.5 64.5t68.5 164.5l6 70h-78q-160 0 -224 -37t-64 -127zM1042 647h404 q-4 100 -52 150.5t-124 50.5q-183 0 -228 -201z" />
<glyph unicode="&#xe7;" horiz-adv-x="1042" d="M74 492q0 176 70.5 305t200.5 198.5t304 69.5q248 0 404 -129l-101 -215q-141 106 -286 106q-131 0 -203 -87t-72 -244q0 -133 65.5 -204t180.5 -71q150 0 285 105l67 -215q-67 -60 -164.5 -92.5t-201.5 -34.5l-15 -66h15q76 0 123 -38t47 -103q0 -80 -73 -132.5 t-202 -52.5q-53 0 -110.5 9.5t-96.5 27.5l33 121q92 -29 166 -29q92 0 92 54q0 18 -16.5 29.5t-46.5 11.5q-23 0 -76 -15l-37 43l33 156q-180 39 -282.5 170t-102.5 322z" />
<glyph unicode="&#xe8;" horiz-adv-x="1126" d="M74 494q0 166 67.5 296t187.5 202.5t269 72.5q209 0 334 -124t125 -345q0 -49 -6 -102h-680q2 -137 68.5 -208t195.5 -71q166 0 307 104l66 -208q-70 -59 -174.5 -93t-219.5 -34q-162 0 -284.5 62.5t-189 178t-66.5 269.5zM268 1594h285l178 -422h-190zM385 647h416 q0 96 -51.5 148.5t-139.5 52.5q-184 0 -225 -201z" />
<glyph unicode="&#xe9;" horiz-adv-x="1126" d="M74 494q0 166 67.5 296t187.5 202.5t269 72.5q209 0 334 -124t125 -345q0 -49 -6 -102h-680q2 -137 68.5 -208t195.5 -71q166 0 307 104l66 -208q-70 -59 -174.5 -93t-219.5 -34q-162 0 -284.5 62.5t-189 178t-66.5 269.5zM385 647h416q0 96 -51.5 148.5t-139.5 52.5 q-184 0 -225 -201zM541 1172l227 422h320l-357 -422h-190z" />
<glyph unicode="&#xea;" horiz-adv-x="1126" d="M74 494q0 166 67.5 296t187.5 202.5t269 72.5q209 0 334 -124t125 -345q0 -49 -6 -102h-680q2 -137 68.5 -208t195.5 -71q166 0 307 104l66 -208q-70 -59 -174.5 -93t-219.5 -34q-162 0 -284.5 62.5t-189 178t-66.5 269.5zM275 1172l301 422h186l236 -422h-236l-106 240 l-134 -240h-247zM385 647h416q0 96 -51.5 148.5t-139.5 52.5q-184 0 -225 -201z" />
<glyph unicode="&#xeb;" horiz-adv-x="1126" d="M74 494q0 166 67.5 296t187.5 202.5t269 72.5q209 0 334 -124t125 -345q0 -49 -6 -102h-680q2 -137 68.5 -208t195.5 -71q166 0 307 104l66 -208q-70 -59 -174.5 -93t-219.5 -34q-162 0 -284.5 62.5t-189 178t-66.5 269.5zM301 1246l23 270h284l-20 -270h-287zM385 647 h416q0 96 -51.5 148.5t-139.5 52.5q-184 0 -225 -201zM694 1246l23 270h287l-25 -270h-285z" />
<glyph unicode="&#xec;" horiz-adv-x="561" d="M-37 1594h285l178 -422h-190zM86 0l82 1038h309l-82 -1038h-309z" />
<glyph unicode="&#xed;" horiz-adv-x="561" d="M86 0l82 1038h309l-82 -1038h-309zM236 1172l227 422h320l-357 -422h-190z" />
<glyph unicode="&#xee;" horiz-adv-x="561" d="M-30 1172l301 422h186l236 -422h-236l-106 240l-134 -240h-247zM86 0l82 1038h309l-82 -1038h-309z" />
<glyph unicode="&#xef;" horiz-adv-x="561" d="M-4 1246l23 270h284l-20 -270h-287zM86 0l82 1038h309l-82 -1038h-309zM389 1246l23 270h287l-25 -270h-285z" />
<glyph unicode="&#xf0;" horiz-adv-x="1253" d="M70 453q0 154 68.5 269.5t188 178t269.5 62.5q199 0 297 -107q-31 147 -127 256l-371 -102l-30 159l247 68q-100 59 -235 82l84 213q281 -41 463 -211l272 74l29 -158l-185 -51q74 -109 112 -240t38 -274q0 -352 -158 -520t-422 -168q-166 0 -287.5 57t-187 163.5 t-65.5 248.5zM377 455q0 -104 60.5 -170t170.5 -66q125 0 185.5 79t60.5 206q0 106 -58.5 167.5t-168.5 61.5q-127 0 -188.5 -79t-61.5 -199z" />
<glyph unicode="&#xf1;" horiz-adv-x="1255" d="M84 0l59 741q8 88 9 199q0 66 -2 98h292l4 -143q51 80 142.5 125t206.5 45q172 0 261 -96.5t89 -280.5q0 -45 -2 -67l-49 -621h-310l50 606q2 12 2 37q0 88 -42 134t-124 46q-104 0 -161.5 -64.5t-68.5 -176.5l-47 -582h-309zM328 1237q8 154 76.5 226.5t160.5 72.5 q43 0 79 -15t89 -46q43 -25 64.5 -35t46.5 -10q82 0 94 100h135q-10 -154 -77.5 -226.5t-161.5 -72.5q-43 0 -79 15.5t-85 46.5q-8 4 -33 17t-44 20.5t-36 7.5q-82 0 -96 -101h-133z" />
<glyph unicode="&#xf2;" horiz-adv-x="1236" d="M74 496q0 174 68.5 303t193.5 197.5t291 68.5q164 0 285.5 -63.5t187 -179t65.5 -269.5q0 -176 -68.5 -304t-192.5 -196.5t-290 -68.5q-165 0 -287 63.5t-187.5 179t-65.5 269.5zM303 1594h285l178 -422h-190zM381 489q0 -272 231 -272q125 0 185.5 95.5t60.5 248.5 q0 133 -57.5 200.5t-169.5 67.5q-127 0 -188.5 -94t-61.5 -246z" />
<glyph unicode="&#xf3;" horiz-adv-x="1236" d="M74 496q0 174 68.5 303t193.5 197.5t291 68.5q164 0 285.5 -63.5t187 -179t65.5 -269.5q0 -176 -68.5 -304t-192.5 -196.5t-290 -68.5q-165 0 -287 63.5t-187.5 179t-65.5 269.5zM381 489q0 -272 231 -272q125 0 185.5 95.5t60.5 248.5q0 133 -57.5 200.5t-169.5 67.5 q-127 0 -188.5 -94t-61.5 -246zM576 1172l227 422h320l-357 -422h-190z" />
<glyph unicode="&#xf4;" horiz-adv-x="1236" d="M74 496q0 174 68.5 303t193.5 197.5t291 68.5q164 0 285.5 -63.5t187 -179t65.5 -269.5q0 -176 -68.5 -304t-192.5 -196.5t-290 -68.5q-165 0 -287 63.5t-187.5 179t-65.5 269.5zM310 1172l301 422h186l236 -422h-236l-106 240l-134 -240h-247zM381 489q0 -272 231 -272 q125 0 185.5 95.5t60.5 248.5q0 133 -57.5 200.5t-169.5 67.5q-127 0 -188.5 -94t-61.5 -246z" />
<glyph unicode="&#xf5;" horiz-adv-x="1236" d="M74 496q0 174 68.5 303t193.5 197.5t291 68.5q164 0 285.5 -63.5t187 -179t65.5 -269.5q0 -176 -68.5 -304t-192.5 -196.5t-290 -68.5q-165 0 -287 63.5t-187.5 179t-65.5 269.5zM316 1237q8 154 76.5 226.5t160.5 72.5q43 0 79 -15t89 -46q43 -25 64.5 -35t46.5 -10 q82 0 94 100h135q-10 -154 -77.5 -226.5t-161.5 -72.5q-43 0 -79 15.5t-85 46.5q-8 4 -33 17t-44 20.5t-36 7.5q-82 0 -96 -101h-133zM381 489q0 -272 231 -272q125 0 185.5 95.5t60.5 248.5q0 133 -57.5 200.5t-169.5 67.5q-127 0 -188.5 -94t-61.5 -246z" />
<glyph unicode="&#xf6;" horiz-adv-x="1236" d="M74 496q0 174 68.5 303t193.5 197.5t291 68.5q164 0 285.5 -63.5t187 -179t65.5 -269.5q0 -176 -68.5 -304t-192.5 -196.5t-290 -68.5q-165 0 -287 63.5t-187.5 179t-65.5 269.5zM336 1246l23 270h284l-20 -270h-287zM381 489q0 -272 231 -272q125 0 185.5 95.5 t60.5 248.5q0 133 -57.5 200.5t-169.5 67.5q-127 0 -188.5 -94t-61.5 -246zM729 1246l23 270h287l-25 -270h-285z" />
<glyph unicode="&#xf7;" d="M111 487l16 211h1008l-19 -211h-1005zM444 66l21 245h244l-21 -245h-244zM508 864l20 244h244l-18 -244h-246z" />
<glyph unicode="&#xf8;" horiz-adv-x="1236" d="M74 496q0 174 68.5 303t193.5 197.5t291 68.5q123 0 229 -39l98 150l140 -86l-97 -146q82 -67 125 -167.5t43 -223.5q0 -176 -68.5 -304t-192.5 -196.5t-290 -68.5q-125 0 -227 36l-100 -151l-142 86l99 147q-82 68 -126 168.5t-44 225.5zM375 489q-1 -90 24 -151 l320 481q-39 12 -88 12q-131 0 -193.5 -94t-62.5 -248zM522 227q39 -12 90 -12q129 0 191.5 95.5t62.5 250.5q0 86 -24 148z" />
<glyph unicode="&#xf9;" horiz-adv-x="1241" d="M109 352q0 20 4 70l47 616h311l-49 -598q-16 -215 162 -215q96 0 152.5 63.5t64.5 174.5l47 575h309l-82 -1038h-301l10 133q-53 -72 -139 -110.5t-188 -38.5q-170 0 -259 94t-89 274zM303 1594h285l178 -422h-190z" />
<glyph unicode="&#xfa;" horiz-adv-x="1241" d="M109 352q0 20 4 70l47 616h311l-49 -598q-16 -215 162 -215q96 0 152.5 63.5t64.5 174.5l47 575h309l-82 -1038h-301l10 133q-53 -72 -139 -110.5t-188 -38.5q-170 0 -259 94t-89 274zM576 1172l227 422h320l-357 -422h-190z" />
<glyph unicode="&#xfb;" horiz-adv-x="1241" d="M109 352q0 20 4 70l47 616h311l-49 -598q-16 -215 162 -215q96 0 152.5 63.5t64.5 174.5l47 575h309l-82 -1038h-301l10 133q-53 -72 -139 -110.5t-188 -38.5q-170 0 -259 94t-89 274zM310 1172l301 422h186l236 -422h-236l-106 240l-134 -240h-247z" />
<glyph unicode="&#xfc;" horiz-adv-x="1241" d="M109 352q0 20 4 70l47 616h311l-49 -598q-16 -215 162 -215q96 0 152.5 63.5t64.5 174.5l47 575h309l-82 -1038h-301l10 133q-53 -72 -139 -110.5t-188 -38.5q-170 0 -259 94t-89 274zM336 1246l23 270h284l-20 -270h-287zM729 1246l23 270h287l-25 -270h-285z" />
<glyph unicode="&#xfd;" horiz-adv-x="1126" d="M-10 -229q145 31 221 79t125 136l37 69l-350 983h313l223 -671l324 671h311l-571 -1093q-104 -201 -244.5 -293t-335.5 -119zM522 1172l227 422h320l-357 -422h-190z" />
<glyph unicode="&#xfe;" horiz-adv-x="1292" d="M51 -442l154 1933h307l-47 -576q51 70 134 110t181 40q131 0 231.5 -60.5t156 -174t55.5 -265.5q0 -170 -62.5 -302t-175.5 -205.5t-258 -73.5q-213 0 -319 161l-50 -587h-307zM432 504q0 -141 60.5 -214t173.5 -73q116 0 181.5 87t65.5 241q0 137 -61 210.5t-174 73.5 t-179.5 -89t-66.5 -236z" />
<glyph unicode="&#xff;" horiz-adv-x="1126" d="M-10 -229q145 31 221 79t125 136l37 69l-350 983h313l223 -671l324 671h311l-571 -1093q-104 -201 -244.5 -293t-335.5 -119zM282 1246l23 270h284l-20 -270h-287zM675 1246l23 270h287l-25 -270h-285z" />
<glyph unicode="&#x152;" horiz-adv-x="2158" d="M121 680q0 240 89 421t253 279.5t381 98.5q90 0 177 -21.5t146 -62.5l4 63h983l-18 -248h-690l-27 -344h649l-20 -250h-649l-29 -368h692l-20 -248h-985l6 72q-125 -92 -299 -92q-186 0 -332.5 85t-228.5 243.5t-82 371.5zM440 678q0 -215 98.5 -331t280.5 -116 q141 0 242 70l67 856q-90 70 -243 70q-217 0 -331 -143.5t-114 -405.5z" />
<glyph unicode="&#x153;" horiz-adv-x="1902" d="M74 496q0 174 68.5 302t191.5 197.5t282 69.5q139 0 242 -44t164 -128q63 82 158.5 127t214.5 45q196 0 316 -128t120 -366q0 -51 -6 -110h-666q8 -121 74.5 -183.5t185.5 -62.5q156 0 297 104l68 -208q-68 -59 -172.5 -93t-214.5 -34q-129 0 -230.5 47t-165.5 131 q-63 -86 -165.5 -132t-237.5 -46q-158 0 -276.5 63.5t-183 179t-64.5 269.5zM381 489q0 -272 231 -272q121 0 180.5 95.5t59.5 248.5q0 133 -56.5 200.5t-164.5 67.5q-127 0 -188.5 -94t-61.5 -246zM1165 616h408q0 117 -47 174.5t-127 57.5q-195 -1 -234 -232z" />
<glyph unicode="&#x178;" horiz-adv-x="1314" d="M-29 1458h357l350 -635l448 635h369l-672 -893l-45 -565h-319l45 571zM404 1610l22 270h287l-22 -270h-287zM797 1610l23 270h286l-22 -270h-287z" />
<glyph unicode="&#x2c6;" horiz-adv-x="614" d="M0 1149l301 422h186l236 -422h-236l-106 240l-134 -240h-247z" />
<glyph unicode="&#x2dc;" horiz-adv-x="614" d="M6 1214q8 154 76.5 226.5t160.5 72.5q43 0 79 -15t89 -46q43 -25 64.5 -35t46.5 -10q82 0 94 100h135q-10 -154 -77.5 -226.5t-161.5 -72.5q-43 0 -79 15.5t-85 46.5q-8 4 -33 17t-44 20.5t-36 7.5q-82 0 -96 -101h-133z" />
<glyph unicode="&#x2000;" horiz-adv-x="952" />
<glyph unicode="&#x2001;" horiz-adv-x="1905" />
<glyph unicode="&#x2002;" horiz-adv-x="952" />
<glyph unicode="&#x2003;" horiz-adv-x="1905" />
<glyph unicode="&#x2004;" horiz-adv-x="635" />
<glyph unicode="&#x2005;" horiz-adv-x="476" />
<glyph unicode="&#x2006;" horiz-adv-x="317" />
<glyph unicode="&#x2007;" horiz-adv-x="317" />
<glyph unicode="&#x2008;" horiz-adv-x="238" />
<glyph unicode="&#x2009;" horiz-adv-x="381" />
<glyph unicode="&#x200a;" horiz-adv-x="105" />
<glyph unicode="&#x2010;" horiz-adv-x="909" d="M131 432l19 244h638l-20 -244h-637z" />
<glyph unicode="&#x2011;" horiz-adv-x="909" d="M131 432l19 244h638l-20 -244h-637z" />
<glyph unicode="&#x2012;" horiz-adv-x="909" d="M131 432l19 244h638l-20 -244h-637z" />
<glyph unicode="&#x2013;" horiz-adv-x="1034" d="M-4 463l14 180h1034l-14 -180h-1034z" />
<glyph unicode="&#x2014;" horiz-adv-x="2068" d="M-4 463l14 180h2069l-15 -180h-2068z" />
<glyph unicode="&#x2018;" horiz-adv-x="536" d="M131 848l16 213q8 119 58.5 215t159.5 199l110 -97q-111 -109 -139 -200h151l-24 -330h-332z" />
<glyph unicode="&#x2019;" horiz-adv-x="536" d="M152 1128l24 330h334l-18 -211q-8 -119 -57.5 -215t-160.5 -201l-110 97q113 106 141 200h-153z" />
<glyph unicode="&#x201a;" horiz-adv-x="536" d="M61 0l27 330h334l-16 -205q-10 -123 -59.5 -222.5t-158.5 -197.5l-114 94q111 106 141 201h-154z" />
<glyph unicode="&#x201c;" horiz-adv-x="964" d="M131 848l16 213q8 119 58.5 215t159.5 199l110 -97q-111 -109 -139 -200h151l-24 -330h-332zM559 848l16 213q8 119 58.5 215t159.5 199l110 -97q-111 -109 -139 -200h151l-24 -330h-332z" />
<glyph unicode="&#x201d;" horiz-adv-x="964" d="M152 1128l24 330h334l-18 -211q-8 -119 -57.5 -215t-160.5 -201l-110 97q113 106 141 200h-153zM580 1128l24 330h334l-18 -211q-8 -119 -57.5 -215t-160.5 -201l-110 97q113 106 141 200h-153z" />
<glyph unicode="&#x201e;" horiz-adv-x="964" d="M61 0l27 330h334l-16 -205q-10 -123 -59.5 -222.5t-158.5 -197.5l-114 94q111 106 141 201h-154zM489 0l27 330h334l-16 -205q-10 -123 -59.5 -222.5t-158.5 -197.5l-114 94q111 106 141 201h-154z" />
<glyph unicode="&#x2022;" horiz-adv-x="1083" d="M170 549q0 94 49 179t135 136t191 51q98 0 184 -48t137.5 -132t51.5 -186q0 -100 -50.5 -184t-136.5 -133.5t-186 -49.5q-101 0 -187 48.5t-137 133.5t-51 185z" />
<glyph unicode="&#x2026;" horiz-adv-x="1609" d="M61 0l27 330h334l-27 -330h-334zM600 0l25 330h333l-26 -330h-332zM1137 0l26 330h330l-25 -330h-331z" />
<glyph unicode="&#x202f;" horiz-adv-x="381" />
<glyph unicode="&#x2039;" horiz-adv-x="624" d="M47 547l307 377h258l-297 -375l238 -375h-258z" />
<glyph unicode="&#x203a;" horiz-adv-x="620" d="M25 174l290 375l-237 375h260l244 -377l-303 -373h-254z" />
<glyph unicode="&#x205f;" horiz-adv-x="476" />
<glyph unicode="&#x20ac;" d="M35 477l14 189h162q0 68 6 129h-158l17 188h174q59 238 205.5 366t365.5 128q129 0 249 -45.5t194 -122.5l-119 -230q-94 78 -168 111t-148 33q-190 0 -262 -240h310l-17 -188h-328q-4 -43 -8 -129h326l-14 -189h-304q16 -125 75 -183t161 -58q63 0 140 33.5t179 109.5 l87 -229q-84 -76 -205 -122t-221 -46q-215 0 -351.5 130t-173.5 365h-188z" />
<glyph unicode="&#x2122;" horiz-adv-x="1951" d="M88 1233l18 225h762l-18 -225h-242l-51 -645h-283l56 645h-242zM918 588l69 870h215l199 -446l272 446h215l-67 -870h-242l29 385l-138 -230h-174l-102 228l-31 -383h-245z" />
<glyph unicode="&#x25fc;" horiz-adv-x="1034" d="M0 0v1034h1034v-1034h-1034z" />
</font>
</defs>
</svg>
